<?xml version="1.0" encoding="UTF-8" standalone="no"?>
<!DOCTYPE svg PUBLIC "-//W3C//DTD SVG 1.1//EN"
 "http://www.w3.org/Graphics/SVG/1.1/DTD/svg11.dtd">
<!-- Generated by graphviz version 2.42.4 (0)
 -->
<!-- Title: IPC Pages: 1 -->
<svg width="4432pt" height="1685pt"
 viewBox="0.00 0.00 4431.68 1684.68" xmlns="http://www.w3.org/2000/svg" xmlns:xlink="http://www.w3.org/1999/xlink">
<g id="graph0" class="graph" transform="scale(1 1) rotate(0) translate(15.84 1668.84)">
<title>IPC</title>
<polygon fill="#0f172a" stroke="transparent" points="-15.84,15.84 -15.84,-1668.84 4415.84,-1668.84 4415.84,15.84 -15.84,15.84"/>
<text text-anchor="start" x="1710" y="-1608.4" font-family="Helvetica,Arial,sans-serif" font-weight="bold" font-size="52.00" fill="#f1f5f9">System Architecture and Message Flow</text>
<g id="clust1" class="cluster">
<title>cluster_sim</title>
<path fill="#1e293b" stroke="#475569" stroke-width="4" d="M20,-338C20,-338 4380,-338 4380,-338 4386,-338 4392,-344 4392,-350 4392,-350 4392,-1568 4392,-1568 4392,-1574 4386,-1580 4380,-1580 4380,-1580 20,-1580 20,-1580 14,-1580 8,-1574 8,-1568 8,-1568 8,-350 8,-350 8,-344 14,-338 20,-338"/>
<text text-anchor="start" x="2106.5" y="-1545" font-family="Helvetica,Arial,sans-serif" font-weight="bold" font-size="40.00" fill="#f1f5f9">Simulator</text>
</g>
<g id="clust2" class="cluster">
<title>cluster_sockets</title>
<path fill="#2a1b07" stroke="#f59e0b" stroke-width="6" d="M684.5,-8C684.5,-8 1003.5,-8 1003.5,-8 1009.5,-8 1015.5,-14 1015.5,-20 1015.5,-20 1015.5,-318 1015.5,-318 1015.5,-324 1009.5,-330 1003.5,-330 1003.5,-330 684.5,-330 684.5,-330 678.5,-330 672.5,-324 672.5,-318 672.5,-318 672.5,-20 672.5,-20 672.5,-14 678.5,-8 684.5,-8"/>
<text text-anchor="start" x="704.5" y="-295" font-family="Helvetica,Arial,sans-serif" font-weight="bold" font-size="40.00" fill="#f1f5f9">Network Layer</text>
</g>
<g id="clust4" class="cluster">
<title>cluster_fixtures</title>
<path fill="#0b2a20" stroke="#22c55e" stroke-width="6" d="M68.5,-104C68.5,-104 430.5,-104 430.5,-104 436.5,-104 442.5,-110 442.5,-116 442.5,-116 442.5,-242 442.5,-242 442.5,-248 436.5,-254 430.5,-254 430.5,-254 68.5,-254 68.5,-254 62.5,-254 56.5,-248 56.5,-242 56.5,-242 56.5,-116 56.5,-116 56.5,-110 62.5,-104 68.5,-104"/>
<text text-anchor="start" x="123.5" y="-219" font-family="Helvetica,Arial,sans-serif" font-weight="bold" font-size="40.00" fill="#f1f5f9">Test Harness</text>
</g>
<!-- MotorService -->
<g id="node1" class="node">
<title>MotorService</title>
<path fill="#0369a1" stroke="#f1f5f9" stroke-width="4" d="M445,-1366C445,-1366 54,-1366 54,-1366 48,-1366 42,-1360 42,-1354 42,-1354 42,-1288 42,-1288 42,-1282 48,-1276 54,-1276 54,-1276 445,-1276 445,-1276 451,-1276 457,-1282 457,-1288 457,-1288 457,-1354 457,-1354 457,-1360 451,-1366 445,-1366"/>
<text text-anchor="start" x="154.5" y="-1337" font-family="Helvetica,Arial,sans-serif" font-weight="bold" font-size="30.00" fill="#ffffff">MotorService</text>
<text text-anchor="start" x="51" y="-1311.8" font-family="Helvetica,Arial,sans-serif" font-size="24.00" fill="#ffffff">Reactive service that executes motor</text>
<text text-anchor="start" x="130.5" y="-1287.8" font-family="Helvetica,Arial,sans-serif" font-size="24.00" fill="#ffffff">command sequences.</text>
</g>
<!-- KinematicsService -->
<g id="node2" class="node">
<title>KinematicsService</title>
<path fill="#0369a1" stroke="#f1f5f9" stroke-width="4" d="M1051,-1275C1051,-1275 637,-1275 637,-1275 631,-1275 625,-1269 625,-1263 625,-1263 625,-1173 625,-1173 625,-1167 631,-1161 637,-1161 637,-1161 1051,-1161 1051,-1161 1057,-1161 1063,-1167 1063,-1173 1063,-1173 1063,-1263 1063,-1263 1063,-1269 1057,-1275 1051,-1275"/>
<text text-anchor="start" x="711" y="-1246" font-family="Helvetica,Arial,sans-serif" font-weight="bold" font-size="30.00" fill="#ffffff">KinematicsService</text>
<text text-anchor="start" x="634" y="-1220.8" font-family="Helvetica,Arial,sans-serif" font-size="24.00" fill="#ffffff">Simulates vehicle motion by integrating</text>
<text text-anchor="start" x="641" y="-1196.8" font-family="Helvetica,Arial,sans-serif" font-size="24.00" fill="#ffffff">motor RPM over time to track position</text>
<text text-anchor="start" x="744.5" y="-1172.8" font-family="Helvetica,Arial,sans-serif" font-size="24.00" fill="#ffffff">and linear velocity.</text>
</g>
<!-- MotorService&#45;&gt;KinematicsService -->
<g id="edge10" class="edge">
<title>MotorService&#45;&gt;KinematicsService</title>
<path fill="none" stroke="#64748b" stroke-width="3" stroke-dasharray="5,2" d="M457.31,-1285.05C506.93,-1276.42 560.24,-1267.16 610.92,-1258.35"/>
<polygon fill="#64748b" stroke="#64748b" stroke-width="3" points="611.83,-1263.16 624.79,-1255.93 610.15,-1253.5 611.83,-1263.16"/>
<text text-anchor="middle" x="541" y="-1284.4" font-family="Helvetica,Arial,sans-serif" font-size="22.00" fill="#cbd5e1">MotorStatus</text>
</g>
<!-- PowerService -->
<g id="node3" class="node">
<title>PowerService</title>
<path fill="#0369a1" stroke="#f1f5f9" stroke-width="4" d="M3730,-1396C3730,-1396 3289,-1396 3289,-1396 3283,-1396 3277,-1390 3277,-1384 3277,-1384 3277,-1318 3277,-1318 3277,-1312 3283,-1306 3289,-1306 3289,-1306 3730,-1306 3730,-1306 3736,-1306 3742,-1312 3742,-1318 3742,-1318 3742,-1384 3742,-1384 3742,-1390 3736,-1396 3730,-1396"/>
<text text-anchor="start" x="3411" y="-1367" font-family="Helvetica,Arial,sans-serif" font-weight="bold" font-size="30.00" fill="#ffffff">PowerService</text>
<text text-anchor="start" x="3286" y="-1341.8" font-family="Helvetica,Arial,sans-serif" font-size="24.00" fill="#ffffff">Models a simple battery pack dynamically</text>
<text text-anchor="start" x="3371.5" y="-1317.8" font-family="Helvetica,Arial,sans-serif" font-size="24.00" fill="#ffffff">responding to motor load.</text>
</g>
<!-- MotorService&#45;&gt;PowerService -->
<g id="edge11" class="edge">
<title>MotorService&#45;&gt;PowerService</title>
<path fill="none" stroke="#64748b" stroke-width="3" stroke-dasharray="5,2" d="M457.34,-1349.42C897.55,-1406.27 1959.7,-1524.06 2850,-1470 3029.66,-1459.09 3075.38,-1455.67 3252,-1421 3281.95,-1415.12 3313.54,-1407.61 3343.93,-1399.7"/>
<polygon fill="#64748b" stroke="#64748b" stroke-width="3" points="3345.51,-1404.35 3357.79,-1396.04 3343.01,-1394.87 3345.51,-1404.35"/>
<text text-anchor="middle" x="1803" y="-1484.4" font-family="Helvetica,Arial,sans-serif" font-size="22.00" fill="#cbd5e1">MotorStatus</text>
</g>
<!-- StateService -->
<g id="node4" class="node">
<title>StateService</title>
<path fill="#0369a1" stroke="#f1f5f9" stroke-width="4" d="M2838,-1447C2838,-1447 2399,-1447 2399,-1447 2393,-1447 2387,-1441 2387,-1435 2387,-1435 2387,-1369 2387,-1369 2387,-1363 2393,-1357 2399,-1357 2399,-1357 2838,-1357 2838,-1357 2844,-1357 2850,-1363 2850,-1369 2850,-1369 2850,-1435 2850,-1435 2850,-1441 2844,-1447 2838,-1447"/>
<text text-anchor="start" x="2528.5" y="-1418" font-family="Helvetica,Arial,sans-serif" font-weight="bold" font-size="30.00" fill="#ffffff">StateService</text>
<text text-anchor="start" x="2430.5" y="-1392.8" font-family="Helvetica,Arial,sans-serif" font-size="24.00" fill="#ffffff">Maintains the central lifecycle state</text>
<text text-anchor="start" x="2396" y="-1368.8" font-family="Helvetica,Arial,sans-serif" font-size="24.00" fill="#ffffff">machine and the master simulation clock.</text>
</g>
<!-- MotorService&#45;&gt;StateService -->
<g id="edge12" class="edge">
<title>MotorService&#45;&gt;StateService</title>
<path fill="none" stroke="#64748b" stroke-width="3" stroke-dasharray="5,2" d="M457,-1319.11C626.51,-1317.66 872.8,-1315.77 1088,-1315 1285.78,-1314.29 1340.15,-1271.11 1533,-1315 1545.02,-1317.73 1546.05,-1323.97 1558,-1327 1731.39,-1371.02 2183.88,-1350.4 2362,-1367 2365.56,-1367.33 2369.15,-1367.68 2372.75,-1368.03"/>
<polygon fill="#64748b" stroke="#64748b" stroke-width="3" points="2372.33,-1372.92 2386.76,-1369.47 2373.33,-1363.17 2372.33,-1372.92"/>
<text text-anchor="middle" x="1310.5" y="-1321.4" font-family="Helvetica,Arial,sans-serif" font-size="22.00" fill="#cbd5e1">MotorStatus</text>
</g>
<!-- UdpBridge -->
<g id="node10" class="node">
<title>UdpBridge</title>
<path fill="#0f766e" stroke="#f1f5f9" stroke-width="4" d="M2036,-1058C2036,-1058 1570,-1058 1570,-1058 1564,-1058 1558,-1052 1558,-1046 1558,-1046 1558,-942 1558,-942 1558,-936 1564,-930 1570,-930 1570,-930 2036,-930 2036,-930 2042,-930 2048,-936 2048,-942 2048,-942 2048,-1046 2048,-1046 2048,-1052 2042,-1058 2036,-1058"/>
<text text-anchor="start" x="1705" y="-1022.6" font-family="Helvetica,Arial,sans-serif" font-weight="bold" font-size="38.00" fill="#ffffff">UdpBridge</text>
<text text-anchor="start" x="1567" y="-994.2" font-family="Helvetica,Arial,sans-serif" font-size="26.00" fill="#ffffff">Stateful bridge that relays IPC messages</text>
<text text-anchor="start" x="1582.5" y="-968.2" font-family="Helvetica,Arial,sans-serif" font-size="26.00" fill="#ffffff">between the internal MessageBus and</text>
<text text-anchor="start" x="1681.5" y="-942.2" font-family="Helvetica,Arial,sans-serif" font-size="26.00" fill="#ffffff">external UDP clients.</text>
</g>
<!-- KinematicsService&#45;&gt;UdpBridge -->
<g id="edge8" class="edge">
<title>KinematicsService&#45;&gt;UdpBridge</title>
<path fill="none" stroke="#64748b" stroke-width="3" stroke-dasharray="5,2" d="M1001.12,-1160.97C1029.72,-1152.14 1059.53,-1143.98 1088,-1138 1282.45,-1097.13 1339.43,-1139.86 1533,-1095 1568.12,-1086.86 1604.85,-1075.27 1639.48,-1062.82"/>
<polygon fill="#64748b" stroke="#64748b" stroke-width="3" points="1641.17,-1067.42 1652.64,-1058.01 1637.81,-1058.21 1641.17,-1067.42"/>
<text text-anchor="middle" x="1310.5" y="-1144.4" font-family="Helvetica,Arial,sans-serif" font-size="22.00" fill="#cbd5e1">KinematicsData</text>
</g>
<!-- PowerService&#45;&gt;UdpBridge -->
<g id="edge13" class="edge">
<title>PowerService&#45;&gt;UdpBridge</title>
<path fill="none" stroke="#64748b" stroke-width="3" stroke-dasharray="5,2" d="M3462.84,-1305.64C3414.08,-1259.21 3332.84,-1187.45 3252,-1141 3086.66,-1045.98 3037.2,-1027.37 2850,-991 2585.32,-939.58 2275.8,-948.81 2062.49,-965.64"/>
<polygon fill="#64748b" stroke="#64748b" stroke-width="3" points="2061.82,-960.78 2048.26,-966.79 2062.61,-970.55 2061.82,-960.78"/>
<text text-anchor="middle" x="2618.5" y="-997.4" font-family="Helvetica,Arial,sans-serif" font-size="22.00" fill="#cbd5e1">PowerData</text>
</g>
<!-- StateService&#45;&gt;MotorService -->
<g id="edge17" class="edge">
<title>StateService&#45;&gt;MotorService</title>
<path fill="none" stroke="#64748b" stroke-width="3" stroke-dasharray="5,2" d="M2386.8,-1394.61C1995.17,-1381.98 1175.23,-1355.16 482,-1330 478.44,-1329.87 474.85,-1329.74 471.23,-1329.61"/>
<polygon fill="#64748b" stroke="#64748b" stroke-width="3" points="471.35,-1324.71 457.18,-1329.09 470.99,-1334.5 471.35,-1324.71"/>
<text text-anchor="middle" x="1310.5" y="-1371.4" font-family="Helvetica,Arial,sans-serif" font-size="22.00" fill="#cbd5e1">PhysicsTick</text>
</g>
<!-- StateService&#45;&gt;KinematicsService -->
<g id="edge16" class="edge">
<title>StateService&#45;&gt;KinematicsService</title>
<path fill="none" stroke="#64748b" stroke-width="3" stroke-dasharray="5,2" d="M2426.3,-1357C2404.7,-1353.06 2382.94,-1349.6 2362,-1347 2330.11,-1343.05 2100.74,-1353.21 2073,-1337 2054.57,-1326.23 2066.31,-1306.97 2048,-1296 1956.38,-1241.11 1194.43,-1256.83 1088,-1248 1084.43,-1247.7 1080.84,-1247.4 1077.22,-1247.07"/>
<polygon fill="#64748b" stroke="#64748b" stroke-width="3" points="1077.55,-1242.18 1063.16,-1245.78 1076.65,-1251.94 1077.55,-1242.18"/>
<text text-anchor="middle" x="1803" y="-1302.4" font-family="Helvetica,Arial,sans-serif" font-size="22.00" fill="#cbd5e1">PhysicsTick</text>
</g>
<!-- StateService&#45;&gt;PowerService -->
<g id="edge18" class="edge">
<title>StateService&#45;&gt;PowerService</title>
<path fill="none" stroke="#64748b" stroke-width="3" stroke-dasharray="5,2" d="M2850.17,-1388.77C2976.88,-1381.5 3134,-1372.48 3262.97,-1365.09"/>
<polygon fill="#64748b" stroke="#64748b" stroke-width="3" points="3263.26,-1369.98 3276.96,-1364.28 3262.7,-1360.19 3263.26,-1369.98"/>
<text text-anchor="middle" x="3063.5" y="-1392.4" font-family="Helvetica,Arial,sans-serif" font-size="22.00" fill="#cbd5e1">PhysicsTick</text>
</g>
<!-- ThermalService -->
<g id="node5" class="node">
<title>ThermalService</title>
<path fill="#0369a1" stroke="#f1f5f9" stroke-width="4" d="M3690,-555C3690,-555 3329,-555 3329,-555 3323,-555 3317,-549 3317,-543 3317,-543 3317,-477 3317,-477 3317,-471 3323,-465 3329,-465 3329,-465 3690,-465 3690,-465 3696,-465 3702,-471 3702,-477 3702,-477 3702,-543 3702,-543 3702,-549 3696,-555 3690,-555"/>
<text text-anchor="start" x="3398" y="-526" font-family="Helvetica,Arial,sans-serif" font-weight="bold" font-size="30.00" fill="#ffffff">ThermalService</text>
<text text-anchor="start" x="3326" y="-500.8" font-family="Helvetica,Arial,sans-serif" font-size="24.00" fill="#ffffff">Simulates basic motor and battery</text>
<text text-anchor="start" x="3386" y="-476.8" font-family="Helvetica,Arial,sans-serif" font-size="24.00" fill="#ffffff">temperature dynamics.</text>
</g>
<!-- StateService&#45;&gt;ThermalService -->
<g id="edge19" class="edge">
<title>StateService&#45;&gt;ThermalService</title>
<path fill="none" stroke="#64748b" stroke-width="3" stroke-dasharray="5,2" d="M2811.06,-1356.95C2825.75,-1347.67 2839.08,-1336.48 2850,-1323 2908.04,-1251.33 2833.75,-1199.49 2875,-1117 3002.45,-862.18 3281.85,-655.68 3423.12,-562.93"/>
<polygon fill="#64748b" stroke="#64748b" stroke-width="3" points="3426.06,-566.86 3435.11,-555.11 3420.71,-558.65 3426.06,-566.86"/>
<text text-anchor="middle" x="3063.5" y="-1123.4" font-family="Helvetica,Arial,sans-serif" font-size="22.00" fill="#cbd5e1">PhysicsTick</text>
</g>
<!-- AutonomousService -->
<g id="node7" class="node">
<title>AutonomousService</title>
<path fill="#0369a1" stroke="#f1f5f9" stroke-width="4" d="M3711,-875C3711,-875 3308,-875 3308,-875 3302,-875 3296,-869 3296,-863 3296,-863 3296,-797 3296,-797 3296,-791 3302,-785 3308,-785 3308,-785 3711,-785 3711,-785 3717,-785 3723,-791 3723,-797 3723,-797 3723,-863 3723,-863 3723,-869 3717,-875 3711,-875"/>
<text text-anchor="start" x="3364.5" y="-846" font-family="Helvetica,Arial,sans-serif" font-weight="bold" font-size="30.00" fill="#ffffff">AutonomousService</text>
<text text-anchor="start" x="3305" y="-820.8" font-family="Helvetica,Arial,sans-serif" font-size="24.00" fill="#ffffff">High&#45;level autonomous driving service</text>
<text text-anchor="start" x="3323" y="-796.8" font-family="Helvetica,Arial,sans-serif" font-size="24.00" fill="#ffffff">executing a waypoint (node) route.</text>
</g>
<!-- StateService&#45;&gt;AutonomousService -->
<g id="edge15" class="edge">
<title>StateService&#45;&gt;AutonomousService</title>
<path fill="none" stroke="#64748b" stroke-width="3" stroke-dasharray="5,2" d="M2780.23,-1356.96C2811.64,-1348.26 2844.33,-1339.29 2875,-1331 3042.24,-1285.81 3112,-1334.04 3252,-1232 3374.06,-1143.04 3452.41,-976.71 3487.37,-888.47"/>
<polygon fill="#64748b" stroke="#64748b" stroke-width="3" points="3492,-890.08 3492.51,-875.26 3482.86,-886.53 3492,-890.08"/>
<text text-anchor="middle" x="3063.5" y="-1337.4" font-family="Helvetica,Arial,sans-serif" font-size="22.00" fill="#cbd5e1">PhysicsTick</text>
</g>
<!-- StateService&#45;&gt;UdpBridge -->
<g id="edge20" class="edge">
<title>StateService&#45;&gt;UdpBridge</title>
<path fill="none" stroke="#64748b" stroke-width="3" stroke-dasharray="5,2" d="M2431.03,-1356.95C2414.75,-1347.67 2399.67,-1336.49 2387,-1323 2358.28,-1292.44 2393.39,-1259.82 2362,-1232 2264.82,-1145.87 2193.23,-1238.07 2073,-1189 2002.85,-1160.37 1933.86,-1109.78 1883.32,-1067.3"/>
<polygon fill="#64748b" stroke="#64748b" stroke-width="3" points="1886.33,-1063.43 1872.49,-1058.09 1879.98,-1070.9 1886.33,-1063.43"/>
<text text-anchor="middle" x="2217.5" y="-1238.4" font-family="Helvetica,Arial,sans-serif" font-size="22.00" fill="#cbd5e1">StateData</text>
</g>
<!-- ThermalService&#45;&gt;UdpBridge -->
<g id="edge21" class="edge">
<title>ThermalService&#45;&gt;UdpBridge</title>
<path fill="none" stroke="#64748b" stroke-width="3" stroke-dasharray="5,2" d="M3316.96,-499.34C2975.58,-483.77 2278.48,-468.5 2073,-589 1947.26,-662.74 1868.75,-821.29 1830.97,-916.67"/>
<polygon fill="#64748b" stroke="#64748b" stroke-width="3" points="1826.3,-915.16 1825.8,-929.98 1835.44,-918.71 1826.3,-915.16"/>
<text text-anchor="middle" x="2618.5" y="-515.4" font-family="Helvetica,Arial,sans-serif" font-size="22.00" fill="#cbd5e1">ThermalData</text>
</g>
<!-- EnvironmentService -->
<g id="node6" class="node">
<title>EnvironmentService</title>
<path fill="#0369a1" stroke="#f1f5f9" stroke-width="4" d="M4346,-875C4346,-875 3997,-875 3997,-875 3991,-875 3985,-869 3985,-863 3985,-863 3985,-797 3985,-797 3985,-791 3991,-785 3997,-785 3997,-785 4346,-785 4346,-785 4352,-785 4358,-791 4358,-797 4358,-797 4358,-863 4358,-863 4358,-869 4352,-875 4346,-875"/>
<text text-anchor="start" x="4027" y="-846" font-family="Helvetica,Arial,sans-serif" font-weight="bold" font-size="30.00" fill="#ffffff">EnvironmentService</text>
<text text-anchor="start" x="3994" y="-820.8" font-family="Helvetica,Arial,sans-serif" font-size="24.00" fill="#ffffff">Centralized service for managing</text>
<text text-anchor="start" x="4007" y="-796.8" font-family="Helvetica,Arial,sans-serif" font-size="24.00" fill="#ffffff">environmental simulation data.</text>
</g>
<!-- EnvironmentService&#45;&gt;AutonomousService -->
<g id="edge6" class="edge">
<title>EnvironmentService&#45;&gt;AutonomousService</title>
<path fill="none" stroke="#64748b" stroke-width="3" stroke-dasharray="5,2" d="M3984.82,-830C3908.02,-830 3818.24,-830 3737.58,-830"/>
<polygon fill="#64748b" stroke="#64748b" stroke-width="3" points="3737.42,-825.1 3723.42,-830 3737.42,-834.9 3737.42,-825.1"/>
<text text-anchor="middle" x="3863.5" y="-836.4" font-family="Helvetica,Arial,sans-serif" font-size="22.00" fill="#cbd5e1">InternalEnvData</text>
</g>
<!-- EnvironmentService&#45;&gt;UdpBridge -->
<g id="edge7" class="edge">
<title>EnvironmentService&#45;&gt;UdpBridge</title>
<path fill="none" stroke="#64748b" stroke-width="3" stroke-dasharray="5,2" d="M4042.39,-875.08C3808.94,-954.59 3297.06,-1116.72 2850,-1174 2645.89,-1200.15 2591.74,-1194.65 2387,-1174 2245.29,-1159.71 2208.89,-1152.65 2073,-1110 2032.48,-1097.28 1989.77,-1080.52 1950.61,-1063.7"/>
<polygon fill="#64748b" stroke="#64748b" stroke-width="3" points="1952.54,-1059.2 1937.75,-1058.12 1948.64,-1068.19 1952.54,-1059.2"/>
<text text-anchor="middle" x="3063.5" y="-1176.4" font-family="Helvetica,Arial,sans-serif" font-size="22.00" fill="#cbd5e1">EnvironmentAck, EnvironmentRequest</text>
</g>
<!-- AutonomousService&#45;&gt;EnvironmentService -->
<g id="edge4" class="edge">
<title>AutonomousService&#45;&gt;EnvironmentService</title>
<path fill="none" stroke="#64748b" stroke-width="3" stroke-dasharray="5,2" d="M3723.25,-791.56C3738.03,-789.74 3752.71,-788.19 3767,-787 3852.48,-779.88 3874.66,-778.37 3960,-787 3963.57,-787.36 3967.17,-787.76 3970.8,-788.18"/>
<polygon fill="#64748b" stroke="#64748b" stroke-width="3" points="3970.36,-793.06 3984.86,-789.97 3971.59,-783.34 3970.36,-793.06"/>
<text text-anchor="middle" x="3863.5" y="-793.4" font-family="Helvetica,Arial,sans-serif" font-size="22.00" fill="#cbd5e1">InternalEnvRequest</text>
</g>
<!-- AutonomousService&#45;&gt;UdpBridge -->
<g id="edge5" class="edge">
<title>AutonomousService&#45;&gt;UdpBridge</title>
<path fill="none" stroke="#64748b" stroke-width="3" stroke-dasharray="5,2" d="M3295.87,-831.66C3020.74,-834.63 2556.6,-842.71 2387,-864 2277.81,-877.7 2158.96,-902.39 2057.23,-926.59"/>
<polygon fill="#64748b" stroke="#64748b" stroke-width="3" points="2055.78,-921.9 2043.31,-929.92 2058.06,-931.43 2055.78,-921.9"/>
<text text-anchor="middle" x="2618.5" y="-894.4" font-family="Helvetica,Arial,sans-serif" font-size="22.00" fill="#cbd5e1">AutoDriveStatus, KinematicsRequest</text>
<text text-anchor="middle" x="2618.5" y="-870.4" font-family="Helvetica,Arial,sans-serif" font-size="22.00" fill="#cbd5e1">MotorSequence, PowerRequest</text>
</g>
<!-- SensorService -->
<g id="node8" class="node">
<title>SensorService</title>
<path fill="#0369a1" stroke="#f1f5f9" stroke-width="4" d="M2820,-1151C2820,-1151 2417,-1151 2417,-1151 2411,-1151 2405,-1145 2405,-1139 2405,-1139 2405,-1049 2405,-1049 2405,-1043 2411,-1037 2417,-1037 2417,-1037 2820,-1037 2820,-1037 2826,-1037 2832,-1043 2832,-1049 2832,-1049 2832,-1139 2832,-1139 2832,-1145 2826,-1151 2820,-1151"/>
<text text-anchor="start" x="2514.5" y="-1122" font-family="Helvetica,Arial,sans-serif" font-weight="bold" font-size="30.00" fill="#ffffff">SensorService</text>
<text text-anchor="start" x="2445.5" y="-1096.8" font-family="Helvetica,Arial,sans-serif" font-size="24.00" fill="#ffffff">Sensor service that procedurally</text>
<text text-anchor="start" x="2414" y="-1072.8" font-family="Helvetica,Arial,sans-serif" font-size="24.00" fill="#ffffff">generates environment data based on</text>
<text text-anchor="start" x="2510" y="-1048.8" font-family="Helvetica,Arial,sans-serif" font-size="24.00" fill="#ffffff">requested locations.</text>
</g>
<!-- SensorService&#45;&gt;UdpBridge -->
<g id="edge14" class="edge">
<title>SensorService&#45;&gt;UdpBridge</title>
<path fill="none" stroke="#64748b" stroke-width="3" stroke-dasharray="5,2" d="M2458.28,-1036.97C2426.74,-1027.72 2393.61,-1019.41 2362,-1014 2265,-997.39 2157.18,-990.8 2062.37,-988.91"/>
<polygon fill="#64748b" stroke="#64748b" stroke-width="3" points="2062.26,-984.01 2048.18,-988.66 2062.09,-993.81 2062.26,-984.01"/>
<text text-anchor="middle" x="2217.5" y="-1020.4" font-family="Helvetica,Arial,sans-serif" font-size="22.00" fill="#cbd5e1">EnvironmentData, SensorAck</text>
</g>
<!-- LogService -->
<g id="node9" class="node">
<title>LogService</title>
<path fill="#0369a1" stroke="#f1f5f9" stroke-width="4" d="M988.5,-1002C988.5,-1002 699.5,-1002 699.5,-1002 693.5,-1002 687.5,-996 687.5,-990 687.5,-990 687.5,-948 687.5,-948 687.5,-942 693.5,-936 699.5,-936 699.5,-936 988.5,-936 988.5,-936 994.5,-936 1000.5,-942 1000.5,-948 1000.5,-948 1000.5,-990 1000.5,-990 1000.5,-996 994.5,-1002 988.5,-1002"/>
<text text-anchor="start" x="763.5" y="-973" font-family="Helvetica,Arial,sans-serif" font-weight="bold" font-size="30.00" fill="#ffffff">LogService</text>
<text text-anchor="start" x="696.5" y="-947.8" font-family="Helvetica,Arial,sans-serif" font-size="24.00" fill="#ffffff">Asynchronous logging sink.</text>
</g>
<!-- LogService&#45;&gt;UdpBridge -->
<g id="edge9" class="edge">
<title>LogService&#45;&gt;UdpBridge</title>
<path fill="none" stroke="#64748b" stroke-width="3" stroke-dasharray="5,2" d="M1000.62,-973.07C1147.34,-976.9 1369.98,-982.71 1543.39,-987.24"/>
<polygon fill="#64748b" stroke="#64748b" stroke-width="3" points="1543.51,-992.15 1557.63,-987.62 1543.76,-982.35 1543.51,-992.15"/>
<text text-anchor="middle" x="1310.5" y="-992.4" font-family="Helvetica,Arial,sans-serif" font-size="22.00" fill="#cbd5e1">Log</text>
</g>
<!-- UdpBridge&#45;&gt;MotorService -->
<g id="edge25" class="edge">
<title>UdpBridge&#45;&gt;MotorService</title>
<path fill="none" stroke="#64748b" stroke-width="3" stroke-dasharray="5,2" d="M1557.77,-1018.81C1214.6,-1053.7 630.54,-1113.27 625,-1115 513.79,-1149.73 398.12,-1219.35 325.3,-1267.99"/>
<polygon fill="#64748b" stroke="#64748b" stroke-width="3" points="322.41,-1264.03 313.54,-1275.91 327.89,-1272.15 322.41,-1264.03"/>
<text text-anchor="middle" x="844" y="-1121.4" font-family="Helvetica,Arial,sans-serif" font-size="22.00" fill="#cbd5e1">MotorSequence</text>
</g>
<!-- UdpBridge&#45;&gt;KinematicsService -->
<g id="edge24" class="edge">
<title>UdpBridge&#45;&gt;KinematicsService</title>
<path fill="none" stroke="#64748b" stroke-width="3" stroke-dasharray="5,2" d="M1726.59,-1058.07C1675.47,-1097.53 1604.43,-1145.02 1533,-1169 1451.2,-1196.47 1243.44,-1208.54 1077.47,-1213.84"/>
<polygon fill="#64748b" stroke="#64748b" stroke-width="3" points="1077.17,-1208.95 1063.33,-1214.28 1077.47,-1218.74 1077.17,-1208.95"/>
<text text-anchor="middle" x="1310.5" y="-1219.4" font-family="Helvetica,Arial,sans-serif" font-size="22.00" fill="#cbd5e1">KinematicsRequest</text>
</g>
<!-- UdpBridge&#45;&gt;PowerService -->
<g id="edge26" class="edge">
<title>UdpBridge&#45;&gt;PowerService</title>
<path fill="none" stroke="#64748b" stroke-width="3" stroke-dasharray="5,2" d="M1871.68,-1058.09C1922.67,-1101.91 1996.66,-1156.51 2073,-1182 2133.95,-1202.35 2300.92,-1172.04 2362,-1192 2374.77,-1196.17 2374.36,-1204.43 2387,-1209 2750.23,-1340.35 2870.66,-1231.62 3252,-1293 3270.32,-1295.95 3289.28,-1299.42 3308.23,-1303.18"/>
<polygon fill="#64748b" stroke="#64748b" stroke-width="3" points="3307.32,-1308 3322.01,-1305.96 3309.26,-1298.39 3307.32,-1308"/>
<text text-anchor="middle" x="2618.5" y="-1283.4" font-family="Helvetica,Arial,sans-serif" font-size="22.00" fill="#cbd5e1">PowerRequest</text>
</g>
<!-- UdpBridge&#45;&gt;StateService -->
<g id="edge28" class="edge">
<title>UdpBridge&#45;&gt;StateService</title>
<path fill="none" stroke="#64748b" stroke-width="3" stroke-dasharray="5,2" d="M1896.14,-1058.2C1946.09,-1096.6 2006.01,-1148.94 2048,-1206 2064.4,-1228.28 2051.02,-1246.2 2073,-1263 2176.17,-1341.86 2241.04,-1258.75 2362,-1306 2374.52,-1310.89 2374.98,-1316.99 2387,-1323 2408.03,-1333.52 2430.8,-1343.19 2453.56,-1351.89"/>
<polygon fill="#64748b" stroke="#64748b" stroke-width="3" points="2452.11,-1356.59 2466.94,-1356.9 2455.55,-1347.41 2452.11,-1356.59"/>
<text text-anchor="middle" x="2217.5" y="-1312.4" font-family="Helvetica,Arial,sans-serif" font-size="22.00" fill="#cbd5e1">StateRequest</text>
</g>
<!-- UdpBridge&#45;&gt;ThermalService -->
<g id="edge29" class="edge">
<title>UdpBridge&#45;&gt;ThermalService</title>
<path fill="none" stroke="#64748b" stroke-width="3" stroke-dasharray="5,2" d="M1819.71,-929.77C1849.46,-822.8 1924.75,-609.6 2073,-505 2468.63,-225.86 3090.54,-373.29 3367.41,-460.6"/>
<polygon fill="#64748b" stroke="#64748b" stroke-width="3" points="3366.31,-465.39 3381.14,-464.96 3369.28,-456.05 3366.31,-465.39"/>
<text text-anchor="middle" x="2618.5" y="-374.4" font-family="Helvetica,Arial,sans-serif" font-size="22.00" fill="#cbd5e1">EnvironmentData, ThermalRequest</text>
</g>
<!-- UdpBridge&#45;&gt;EnvironmentService -->
<g id="edge23" class="edge">
<title>UdpBridge&#45;&gt;EnvironmentService</title>
<path fill="none" stroke="#64748b" stroke-width="3" stroke-dasharray="5,2" d="M1857.18,-929.82C1907.07,-874.01 1986.75,-795.47 2073,-752 2200.18,-687.9 2246.16,-709.22 2387,-688 3079.25,-583.69 3278.32,-610.65 3960,-770 3974.73,-773.44 3989.97,-777.27 4005.21,-781.27"/>
<polygon fill="#64748b" stroke="#64748b" stroke-width="3" points="4004.39,-786.12 4019.18,-784.99 4006.91,-776.65 4004.39,-786.12"/>
<text text-anchor="middle" x="3063.5" y="-641.4" font-family="Helvetica,Arial,sans-serif" font-size="22.00" fill="#cbd5e1">EnvironmentData</text>
</g>
<!-- UdpBridge&#45;&gt;AutonomousService -->
<g id="edge22" class="edge">
<title>UdpBridge&#45;&gt;AutonomousService</title>
<path fill="none" stroke="#64748b" stroke-width="3" stroke-dasharray="5,2" d="M1914.2,-929.99C1961.86,-904.29 2019,-876.06 2073,-856 2413.63,-729.44 2512.91,-727.57 2875,-697 3041.96,-682.9 3089.21,-657.31 3252,-697 3316.13,-712.64 3382.11,-747.34 3431.09,-777.38"/>
<polygon fill="#64748b" stroke="#64748b" stroke-width="3" points="3428.69,-781.66 3443.16,-784.9 3433.87,-773.34 3428.69,-781.66"/>
<text text-anchor="middle" x="2618.5" y="-785.4" font-family="Helvetica,Arial,sans-serif" font-size="22.00" fill="#cbd5e1">AutoDriveCommand, KinematicsData</text>
<text text-anchor="middle" x="2618.5" y="-761.4" font-family="Helvetica,Arial,sans-serif" font-size="22.00" fill="#cbd5e1">PowerData</text>
</g>
<!-- UdpBridge&#45;&gt;SensorService -->
<g id="edge27" class="edge">
<title>UdpBridge&#45;&gt;SensorService</title>
<path fill="none" stroke="#64748b" stroke-width="3" stroke-dasharray="5,2" d="M2048.31,-1041.38C2056.63,-1042.66 2064.88,-1043.87 2073,-1045 2177.04,-1059.51 2292.89,-1070.63 2390.9,-1078.58"/>
<polygon fill="#64748b" stroke="#64748b" stroke-width="3" points="2390.57,-1083.47 2404.91,-1079.71 2391.35,-1073.7 2390.57,-1083.47"/>
<text text-anchor="middle" x="2217.5" y="-1081.4" font-family="Helvetica,Arial,sans-serif" font-size="22.00" fill="#cbd5e1">SensorRequest, StateData</text>
</g>
<!-- TX -->
<g id="node11" class="node">
<title>TX</title>
<path fill="#b45309" stroke="#f1f5f9" stroke-width="4" d="M970.5,-254C970.5,-254 717.5,-254 717.5,-254 711.5,-254 705.5,-248 705.5,-242 705.5,-242 705.5,-200 705.5,-200 705.5,-194 711.5,-188 717.5,-188 717.5,-188 970.5,-188 970.5,-188 976.5,-188 982.5,-194 982.5,-200 982.5,-200 982.5,-242 982.5,-242 982.5,-248 976.5,-254 970.5,-254"/>
<text text-anchor="start" x="771.5" y="-225" font-family="Helvetica,Arial,sans-serif" font-weight="bold" font-size="30.00" fill="#ffffff">TX Socket</text>
<text text-anchor="start" x="714.5" y="-199.8" font-family="Helvetica,Arial,sans-serif" font-size="24.00" fill="#ffffff">Port 9000 (SIL Inbound)</text>
</g>
<!-- TX&#45;&gt;UdpBridge -->
<g id="edge3" class="edge">
<title>TX&#45;&gt;UdpBridge</title>
<path fill="none" stroke="#f1f5f9" stroke-width="5" d="M953.28,-254C992.31,-270.53 1033.87,-294.2 1063,-327 1085.49,-352.33 1068.7,-371.16 1088,-399 1234.42,-610.13 1335.75,-603.36 1533,-768 1593.88,-818.81 1662.3,-876.3 1714.9,-920.58"/>
<polygon fill="#f1f5f9" stroke="#f1f5f9" stroke-width="5" points="1711.22,-925.49 1725.87,-929.82 1719.11,-916.12 1711.22,-925.49"/>
<text text-anchor="middle" x="1310.5" y="-944" font-family="Helvetica,Arial,sans-serif" font-size="25.00" fill="#cbd5e1">Inbound Traffic:</text>
<text text-anchor="middle" x="1310.5" y="-916" font-family="Helvetica,Arial,sans-serif" font-size="25.00" fill="#cbd5e1">AutoDriveCommand, EnvironmentData</text>
<text text-anchor="middle" x="1310.5" y="-888" font-family="Helvetica,Arial,sans-serif" font-size="25.00" fill="#cbd5e1">KinematicsData, KinematicsRequest</text>
<text text-anchor="middle" x="1310.5" y="-860" font-family="Helvetica,Arial,sans-serif" font-size="25.00" fill="#cbd5e1">MotorSequence, PowerData</text>
<text text-anchor="middle" x="1310.5" y="-832" font-family="Helvetica,Arial,sans-serif" font-size="25.00" fill="#cbd5e1">PowerRequest, SensorRequest</text>
<text text-anchor="middle" x="1310.5" y="-804" font-family="Helvetica,Arial,sans-serif" font-size="25.00" fill="#cbd5e1">StateData, StateRequest</text>
<text text-anchor="middle" x="1310.5" y="-776" font-family="Helvetica,Arial,sans-serif" font-size="25.00" fill="#cbd5e1">ThermalRequest</text>
</g>
<!-- RX -->
<g id="node12" class="node">
<title>RX</title>
<path fill="#b45309" stroke="#f1f5f9" stroke-width="4" d="M979.5,-98C979.5,-98 708.5,-98 708.5,-98 702.5,-98 696.5,-92 696.5,-86 696.5,-86 696.5,-44 696.5,-44 696.5,-38 702.5,-32 708.5,-32 708.5,-32 979.5,-32 979.5,-32 985.5,-32 991.5,-38 991.5,-44 991.5,-44 991.5,-86 991.5,-86 991.5,-92 985.5,-98 979.5,-98"/>
<text text-anchor="start" x="770" y="-69" font-family="Helvetica,Arial,sans-serif" font-weight="bold" font-size="30.00" fill="#ffffff">RX Socket</text>
<text text-anchor="start" x="705.5" y="-43.8" font-family="Helvetica,Arial,sans-serif" font-size="24.00" fill="#ffffff">Port 9001 (SIL Outbound)</text>
</g>
<!-- TX&#45;&gt;RX -->
<!-- RX&#45;&gt;UdpBridge -->
<g id="edge30" class="edge">
<title>RX&#45;&gt;UdpBridge</title>
<path fill="none" stroke="#f1f5f9" stroke-width="5" d="M1005.63,-43.45C1158.75,-32.21 1387.02,-41 1533,-164 1769.32,-363.11 1799.82,-771.94 1802.46,-929.82"/>
<polygon fill="#f1f5f9" stroke="#f1f5f9" stroke-width="5" points="1004.99,-37.35 991.51,-44.55 1005.95,-49.56 1004.99,-37.35"/>
<text text-anchor="middle" x="1310.5" y="-368" font-family="Helvetica,Arial,sans-serif" font-size="25.00" fill="#cbd5e1">Outbound Traffic:</text>
<text text-anchor="middle" x="1310.5" y="-340" font-family="Helvetica,Arial,sans-serif" font-size="25.00" fill="#cbd5e1">AutoDriveStatus, EnvironmentAck</text>
<text text-anchor="middle" x="1310.5" y="-312" font-family="Helvetica,Arial,sans-serif" font-size="25.00" fill="#cbd5e1">EnvironmentData, EnvironmentRequest</text>
<text text-anchor="middle" x="1310.5" y="-284" font-family="Helvetica,Arial,sans-serif" font-size="25.00" fill="#cbd5e1">KinematicsData, KinematicsRequest</text>
<text text-anchor="middle" x="1310.5" y="-256" font-family="Helvetica,Arial,sans-serif" font-size="25.00" fill="#cbd5e1">Log, MotorSequence</text>
<text text-anchor="middle" x="1310.5" y="-228" font-family="Helvetica,Arial,sans-serif" font-size="25.00" fill="#cbd5e1">PowerData, PowerRequest</text>
<text text-anchor="middle" x="1310.5" y="-200" font-family="Helvetica,Arial,sans-serif" font-size="25.00" fill="#cbd5e1">SensorAck, StateData</text>
<text text-anchor="middle" x="1310.5" y="-172" font-family="Helvetica,Arial,sans-serif" font-size="25.00" fill="#cbd5e1">ThermalData</text>
</g>
<!-- TestCase -->
<g id="node13" class="node">
<title>TestCase</title>
<path fill="#047857" stroke="#f1f5f9" stroke-width="4" d="M406.5,-177.5C406.5,-177.5 92.5,-177.5 92.5,-177.5 86.5,-177.5 80.5,-171.5 80.5,-165.5 80.5,-165.5 80.5,-140.5 80.5,-140.5 80.5,-134.5 86.5,-128.5 92.5,-128.5 92.5,-128.5 406.5,-128.5 406.5,-128.5 412.5,-128.5 418.5,-134.5 418.5,-140.5 418.5,-140.5 418.5,-165.5 418.5,-165.5 418.5,-171.5 412.5,-177.5 406.5,-177.5"/>
<text text-anchor="start" x="89.5" y="-145.3" font-family="Helvetica,Arial,sans-serif" font-weight="bold" font-size="34.00" fill="#ffffff">Test Case / Fixtures</text>
</g>
<!-- TestCase&#45;&gt;TX -->
<g id="edge2" class="edge">
<title>TestCase&#45;&gt;TX</title>
<path fill="none" stroke="#f1f5f9" stroke-width="5" d="M418.7,-172.3C504.5,-182.15 608.03,-194.03 691.35,-203.6"/>
<polygon fill="#f1f5f9" stroke="#f1f5f9" stroke-width="5" points="690.73,-209.69 705.33,-205.2 692.12,-197.52 690.73,-209.69"/>
<text text-anchor="middle" x="541" y="-200.4" font-family="Helvetica,Arial,sans-serif" font-size="22.00" fill="#cbd5e1">send_msg</text>
</g>
<!-- TestCase&#45;&gt;RX -->
<g id="edge31" class="edge">
<title>TestCase&#45;&gt;RX</title>
<path fill="none" stroke="#f1f5f9" stroke-width="5" d="M429.62,-126.4C514.81,-113.74 615.39,-98.81 696.01,-86.83"/>
<polygon fill="#f1f5f9" stroke="#f1f5f9" stroke-width="5" points="428.49,-120.37 415.54,-128.49 430.29,-132.49 428.49,-120.37"/>
<text text-anchor="middle" x="541" y="-123.4" font-family="Helvetica,Arial,sans-serif" font-size="22.00" fill="#cbd5e1">recv_msg</text>
</g>
</g>
</svg>
