<?xml version="1.0" encoding="UTF-8" standalone="no"?>
<!DOCTYPE svg PUBLIC "-//W3C//DTD SVG 1.1//EN"
 "http://www.w3.org/Graphics/SVG/1.1/DTD/svg11.dtd">
<!-- Generated by graphviz version 2.42.4 (0)
 -->
<!-- Title: IPC Pages: 1 -->
<svg width="4432pt" height="1820pt"
 viewBox="0.00 0.00 4431.68 1819.68" xmlns="http://www.w3.org/2000/svg" xmlns:xlink="http://www.w3.org/1999/xlink">
<g id="graph0" class="graph" transform="scale(1 1) rotate(0) translate(15.84 1803.84)">
<title>IPC</title>
<polygon fill="#0f172a" stroke="transparent" points="-15.84,15.84 -15.84,-1803.84 4415.84,-1803.84 4415.84,15.84 -15.84,15.84"/>
<text text-anchor="start" x="1710" y="-1743.4" font-family="Helvetica,Arial,sans-serif" font-weight="bold" font-size="52.00" fill="#f1f5f9">System Architecture and Message Flow</text>
<g id="clust1" class="cluster">
<title>cluster_sim</title>
<path fill="#1e293b" stroke="#475569" stroke-width="4" d="M20,-338C20,-338 4380,-338 4380,-338 4386,-338 4392,-344 4392,-350 4392,-350 4392,-1703 4392,-1703 4392,-1709 4386,-1715 4380,-1715 4380,-1715 20,-1715 20,-1715 14,-1715 8,-1709 8,-1703 8,-1703 8,-350 8,-350 8,-344 14,-338 20,-338"/>
<text text-anchor="start" x="2106.5" y="-1680" font-family="Helvetica,Arial,sans-serif" font-weight="bold" font-size="40.00" fill="#f1f5f9">Simulator</text>
</g>
<g id="clust2" class="cluster">
<title>cluster_sockets</title>
<path fill="#2a1b07" stroke="#f59e0b" stroke-width="6" d="M684.5,-8C684.5,-8 1003.5,-8 1003.5,-8 1009.5,-8 1015.5,-14 1015.5,-20 1015.5,-20 1015.5,-318 1015.5,-318 1015.5,-324 1009.5,-330 1003.5,-330 1003.5,-330 684.5,-330 684.5,-330 678.5,-330 672.5,-324 672.5,-318 672.5,-318 672.5,-20 672.5,-20 672.5,-14 678.5,-8 684.5,-8"/>
<text text-anchor="start" x="704.5" y="-295" font-family="Helvetica,Arial,sans-serif" font-weight="bold" font-size="40.00" fill="#f1f5f9">Network Layer</text>
</g>
<g id="clust4" class="cluster">
<title>cluster_fixtures</title>
<path fill="#0b2a20" stroke="#22c55e" stroke-width="6" d="M68.5,-104C68.5,-104 430.5,-104 430.5,-104 436.5,-104 442.5,-110 442.5,-116 442.5,-116 442.5,-242 442.5,-242 442.5,-248 436.5,-254 430.5,-254 430.5,-254 68.5,-254 68.5,-254 62.5,-254 56.5,-248 56.5,-242 56.5,-242 56.5,-116 56.5,-116 56.5,-110 62.5,-104 68.5,-104"/>
<text text-anchor="start" x="123.5" y="-219" font-family="Helvetica,Arial,sans-serif" font-weight="bold" font-size="40.00" fill="#f1f5f9">Test Harness</text>
</g>
<!-- MotorService -->
<g id="node1" class="node">
<title>MotorService</title>
<path fill="#0369a1" stroke="#f1f5f9" stroke-width="4" d="M445,-1493C445,-1493 54,-1493 54,-1493 48,-1493 42,-1487 42,-1481 42,-1481 42,-1415 42,-1415 42,-1409 48,-1403 54,-1403 54,-1403 445,-1403 445,-1403 451,-1403 457,-1409 457,-1415 457,-1415 457,-1481 457,-1481 457,-1487 451,-1493 445,-1493"/>
<text text-anchor="start" x="154.5" y="-1464" font-family="Helvetica,Arial,sans-serif" font-weight="bold" font-size="30.00" fill="#ffffff">MotorService</text>
<text text-anchor="start" x="51" y="-1438.8" font-family="Helvetica,Arial,sans-serif" font-size="24.00" fill="#ffffff">Reactive service that executes motor</text>
<text text-anchor="start" x="130.5" y="-1414.8" font-family="Helvetica,Arial,sans-serif" font-size="24.00" fill="#ffffff">command sequences.</text>
</g>
<!-- KinematicsService -->
<g id="node2" class="node">
<title>KinematicsService</title>
<path fill="#0369a1" stroke="#f1f5f9" stroke-width="4" d="M1051,-1358C1051,-1358 637,-1358 637,-1358 631,-1358 625,-1352 625,-1346 625,-1346 625,-1256 625,-1256 625,-1250 631,-1244 637,-1244 637,-1244 1051,-1244 1051,-1244 1057,-1244 1063,-1250 1063,-1256 1063,-1256 1063,-1346 1063,-1346 1063,-1352 1057,-1358 1051,-1358"/>
<text text-anchor="start" x="711" y="-1329" font-family="Helvetica,Arial,sans-serif" font-weight="bold" font-size="30.00" fill="#ffffff">KinematicsService</text>
<text text-anchor="start" x="634" y="-1303.8" font-family="Helvetica,Arial,sans-serif" font-size="24.00" fill="#ffffff">Simulates vehicle motion by integrating</text>
<text text-anchor="start" x="641" y="-1279.8" font-family="Helvetica,Arial,sans-serif" font-size="24.00" fill="#ffffff">motor RPM over time to track position</text>
<text text-anchor="start" x="744.5" y="-1255.8" font-family="Helvetica,Arial,sans-serif" font-size="24.00" fill="#ffffff">and linear velocity.</text>
</g>
<!-- MotorService&#45;&gt;KinematicsService -->
<g id="edge10" class="edge">
<title>MotorService&#45;&gt;KinematicsService</title>
<path fill="none" stroke="#64748b" stroke-width="3" stroke-dasharray="5,2" d="M431.89,-1403C488.4,-1388.98 551.49,-1373.32 610.96,-1358.57"/>
<polygon fill="#64748b" stroke="#64748b" stroke-width="3" points="612.38,-1363.26 624.79,-1355.14 610.02,-1353.75 612.38,-1363.26"/>
<text text-anchor="middle" x="541" y="-1393.4" font-family="Helvetica,Arial,sans-serif" font-size="22.00" fill="#cbd5e1">MotorStatus</text>
</g>
<!-- PowerService -->
<g id="node3" class="node">
<title>PowerService</title>
<path fill="#0369a1" stroke="#f1f5f9" stroke-width="4" d="M3730,-1286C3730,-1286 3289,-1286 3289,-1286 3283,-1286 3277,-1280 3277,-1274 3277,-1274 3277,-1208 3277,-1208 3277,-1202 3283,-1196 3289,-1196 3289,-1196 3730,-1196 3730,-1196 3736,-1196 3742,-1202 3742,-1208 3742,-1208 3742,-1274 3742,-1274 3742,-1280 3736,-1286 3730,-1286"/>
<text text-anchor="start" x="3411" y="-1257" font-family="Helvetica,Arial,sans-serif" font-weight="bold" font-size="30.00" fill="#ffffff">PowerService</text>
<text text-anchor="start" x="3286" y="-1231.8" font-family="Helvetica,Arial,sans-serif" font-size="24.00" fill="#ffffff">Models a simple battery pack dynamically</text>
<text text-anchor="start" x="3371.5" y="-1207.8" font-family="Helvetica,Arial,sans-serif" font-size="24.00" fill="#ffffff">responding to motor load.</text>
</g>
<!-- MotorService&#45;&gt;PowerService -->
<g id="edge11" class="edge">
<title>MotorService&#45;&gt;PowerService</title>
<path fill="none" stroke="#64748b" stroke-width="3" stroke-dasharray="5,2" d="M457.12,-1480.51C897.44,-1545.38 1960.66,-1678.6 2850,-1605 3030.51,-1590.06 3125.77,-1667.9 3252,-1538 3308.9,-1479.45 3229.35,-1422.3 3277,-1356 3296.02,-1329.53 3322.88,-1308.83 3351.6,-1292.75"/>
<polygon fill="#64748b" stroke="#64748b" stroke-width="3" points="3353.96,-1297.04 3364.01,-1286.13 3349.35,-1288.39 3353.96,-1297.04"/>
<text text-anchor="middle" x="1803" y="-1629.4" font-family="Helvetica,Arial,sans-serif" font-size="22.00" fill="#cbd5e1">MotorStatus</text>
</g>
<!-- StateService -->
<g id="node4" class="node">
<title>StateService</title>
<path fill="#0369a1" stroke="#f1f5f9" stroke-width="4" d="M2838,-1582C2838,-1582 2399,-1582 2399,-1582 2393,-1582 2387,-1576 2387,-1570 2387,-1570 2387,-1504 2387,-1504 2387,-1498 2393,-1492 2399,-1492 2399,-1492 2838,-1492 2838,-1492 2844,-1492 2850,-1498 2850,-1504 2850,-1504 2850,-1570 2850,-1570 2850,-1576 2844,-1582 2838,-1582"/>
<text text-anchor="start" x="2528.5" y="-1553" font-family="Helvetica,Arial,sans-serif" font-weight="bold" font-size="30.00" fill="#ffffff">StateService</text>
<text text-anchor="start" x="2430.5" y="-1527.8" font-family="Helvetica,Arial,sans-serif" font-size="24.00" fill="#ffffff">Maintains the central lifecycle state</text>
<text text-anchor="start" x="2396" y="-1503.8" font-family="Helvetica,Arial,sans-serif" font-size="24.00" fill="#ffffff">machine and the master simulation clock.</text>
</g>
<!-- MotorService&#45;&gt;StateService -->
<g id="edge12" class="edge">
<title>MotorService&#45;&gt;StateService</title>
<path fill="none" stroke="#64748b" stroke-width="3" stroke-dasharray="5,2" d="M457,-1446.11C626.51,-1444.66 872.8,-1442.77 1088,-1442 1285.78,-1441.29 1346.37,-1376.53 1533,-1442 1546.43,-1446.71 1544.69,-1456.96 1558,-1462 1725.28,-1525.39 2183.88,-1485.4 2362,-1502 2365.56,-1502.33 2369.15,-1502.68 2372.75,-1503.03"/>
<polygon fill="#64748b" stroke="#64748b" stroke-width="3" points="2372.33,-1507.92 2386.76,-1504.47 2373.33,-1498.17 2372.33,-1507.92"/>
<text text-anchor="middle" x="1310.5" y="-1448.4" font-family="Helvetica,Arial,sans-serif" font-size="22.00" fill="#cbd5e1">MotorStatus</text>
</g>
<!-- UdpBridge -->
<g id="node11" class="node">
<title>UdpBridge</title>
<path fill="#0f766e" stroke="#f1f5f9" stroke-width="4" d="M2036,-1085C2036,-1085 1570,-1085 1570,-1085 1564,-1085 1558,-1079 1558,-1073 1558,-1073 1558,-969 1558,-969 1558,-963 1564,-957 1570,-957 1570,-957 2036,-957 2036,-957 2042,-957 2048,-963 2048,-969 2048,-969 2048,-1073 2048,-1073 2048,-1079 2042,-1085 2036,-1085"/>
<text text-anchor="start" x="1705" y="-1049.6" font-family="Helvetica,Arial,sans-serif" font-weight="bold" font-size="38.00" fill="#ffffff">UdpBridge</text>
<text text-anchor="start" x="1567" y="-1021.2" font-family="Helvetica,Arial,sans-serif" font-size="26.00" fill="#ffffff">Stateful bridge that relays IPC messages</text>
<text text-anchor="start" x="1582.5" y="-995.2" font-family="Helvetica,Arial,sans-serif" font-size="26.00" fill="#ffffff">between the internal MessageBus and</text>
<text text-anchor="start" x="1681.5" y="-969.2" font-family="Helvetica,Arial,sans-serif" font-size="26.00" fill="#ffffff">external UDP clients.</text>
</g>
<!-- KinematicsService&#45;&gt;UdpBridge -->
<g id="edge8" class="edge">
<title>KinematicsService&#45;&gt;UdpBridge</title>
<path fill="none" stroke="#64748b" stroke-width="3" stroke-dasharray="5,2" d="M1063.13,-1303.76C1202.02,-1298.71 1383.3,-1279.28 1533,-1220 1604.96,-1191.51 1674.87,-1138.77 1725.38,-1094.75"/>
<polygon fill="#64748b" stroke="#64748b" stroke-width="3" points="1728.93,-1098.15 1736.18,-1085.21 1722.44,-1090.81 1728.93,-1098.15"/>
<text text-anchor="middle" x="1310.5" y="-1308.4" font-family="Helvetica,Arial,sans-serif" font-size="22.00" fill="#cbd5e1">KinematicsData</text>
</g>
<!-- PowerService&#45;&gt;UdpBridge -->
<g id="edge13" class="edge">
<title>PowerService&#45;&gt;UdpBridge</title>
<path fill="none" stroke="#64748b" stroke-width="3" stroke-dasharray="5,2" d="M3276.69,-1229.7C2991.36,-1212.92 2493.02,-1174.19 2073,-1093 2065.02,-1091.46 2056.92,-1089.81 2048.77,-1088.07"/>
<polygon fill="#64748b" stroke="#64748b" stroke-width="3" points="2049.71,-1083.26 2034.99,-1085.06 2047.62,-1092.83 2049.71,-1083.26"/>
<text text-anchor="middle" x="2618.5" y="-1201.4" font-family="Helvetica,Arial,sans-serif" font-size="22.00" fill="#cbd5e1">PowerData</text>
</g>
<!-- StateService&#45;&gt;MotorService -->
<g id="edge18" class="edge">
<title>StateService&#45;&gt;MotorService</title>
<path fill="none" stroke="#64748b" stroke-width="3" stroke-dasharray="5,2" d="M2386.81,-1528.46C1995.19,-1513.95 1175.28,-1483.46 482,-1457 478.44,-1456.86 474.85,-1456.73 471.23,-1456.59"/>
<polygon fill="#64748b" stroke="#64748b" stroke-width="3" points="471.35,-1451.69 457.18,-1456.05 470.98,-1461.48 471.35,-1451.69"/>
<text text-anchor="middle" x="1310.5" y="-1502.4" font-family="Helvetica,Arial,sans-serif" font-size="22.00" fill="#cbd5e1">PhysicsTick</text>
</g>
<!-- StateService&#45;&gt;KinematicsService -->
<g id="edge17" class="edge">
<title>StateService&#45;&gt;KinematicsService</title>
<path fill="none" stroke="#64748b" stroke-width="3" stroke-dasharray="5,2" d="M2465.6,-1491.97C2431.78,-1483.57 2395.89,-1475.9 2362,-1471 2330.2,-1466.4 2101.86,-1475.13 2073,-1461 2057.41,-1453.37 2063.34,-1439.12 2048,-1431 1858.55,-1330.72 1300.75,-1363.16 1088,-1337 1084.44,-1336.56 1080.84,-1336.11 1077.23,-1335.66"/>
<polygon fill="#64748b" stroke="#64748b" stroke-width="3" points="1077.69,-1330.78 1063.18,-1333.85 1076.44,-1340.49 1077.69,-1330.78"/>
<text text-anchor="middle" x="1803" y="-1437.4" font-family="Helvetica,Arial,sans-serif" font-size="22.00" fill="#cbd5e1">PhysicsTick</text>
</g>
<!-- StateService&#45;&gt;PowerService -->
<g id="edge19" class="edge">
<title>StateService&#45;&gt;PowerService</title>
<path fill="none" stroke="#64748b" stroke-width="3" stroke-dasharray="5,2" d="M2792.06,-1491.93C2812.65,-1482.57 2832.53,-1471.37 2850,-1458 2865.76,-1445.94 2858.93,-1432.64 2875,-1421 2988.14,-1339.08 3137.57,-1294.35 3262.88,-1269.98"/>
<polygon fill="#64748b" stroke="#64748b" stroke-width="3" points="3264.03,-1274.75 3276.87,-1267.32 3262.2,-1265.12 3264.03,-1274.75"/>
<text text-anchor="middle" x="3063.5" y="-1427.4" font-family="Helvetica,Arial,sans-serif" font-size="22.00" fill="#cbd5e1">PhysicsTick</text>
</g>
<!-- ThermalService -->
<g id="node5" class="node">
<title>ThermalService</title>
<path fill="#0369a1" stroke="#f1f5f9" stroke-width="4" d="M3690,-1468C3690,-1468 3329,-1468 3329,-1468 3323,-1468 3317,-1462 3317,-1456 3317,-1456 3317,-1390 3317,-1390 3317,-1384 3323,-1378 3329,-1378 3329,-1378 3690,-1378 3690,-1378 3696,-1378 3702,-1384 3702,-1390 3702,-1390 3702,-1456 3702,-1456 3702,-1462 3696,-1468 3690,-1468"/>
<text text-anchor="start" x="3398" y="-1439" font-family="Helvetica,Arial,sans-serif" font-weight="bold" font-size="30.00" fill="#ffffff">ThermalService</text>
<text text-anchor="start" x="3326" y="-1413.8" font-family="Helvetica,Arial,sans-serif" font-size="24.00" fill="#ffffff">Simulates basic motor and battery</text>
<text text-anchor="start" x="3386" y="-1389.8" font-family="Helvetica,Arial,sans-serif" font-size="24.00" fill="#ffffff">temperature dynamics.</text>
</g>
<!-- StateService&#45;&gt;ThermalService -->
<g id="edge20" class="edge">
<title>StateService&#45;&gt;ThermalService</title>
<path fill="none" stroke="#64748b" stroke-width="3" stroke-dasharray="5,2" d="M2850.17,-1507.42C2990.17,-1489.47 3167.32,-1466.75 3302.58,-1449.41"/>
<polygon fill="#64748b" stroke="#64748b" stroke-width="3" points="3303.51,-1454.23 3316.78,-1447.59 3302.27,-1444.51 3303.51,-1454.23"/>
<text text-anchor="middle" x="3063.5" y="-1509.4" font-family="Helvetica,Arial,sans-serif" font-size="22.00" fill="#cbd5e1">PhysicsTick</text>
</g>
<!-- AutonomousService -->
<g id="node7" class="node">
<title>AutonomousService</title>
<path fill="#0369a1" stroke="#f1f5f9" stroke-width="4" d="M3711,-661C3711,-661 3308,-661 3308,-661 3302,-661 3296,-655 3296,-649 3296,-649 3296,-583 3296,-583 3296,-577 3302,-571 3308,-571 3308,-571 3711,-571 3711,-571 3717,-571 3723,-577 3723,-583 3723,-583 3723,-649 3723,-649 3723,-655 3717,-661 3711,-661"/>
<text text-anchor="start" x="3364.5" y="-632" font-family="Helvetica,Arial,sans-serif" font-weight="bold" font-size="30.00" fill="#ffffff">AutonomousService</text>
<text text-anchor="start" x="3305" y="-606.8" font-family="Helvetica,Arial,sans-serif" font-size="24.00" fill="#ffffff">High&#45;level autonomous driving service</text>
<text text-anchor="start" x="3323" y="-582.8" font-family="Helvetica,Arial,sans-serif" font-size="24.00" fill="#ffffff">executing a waypoint (node) route.</text>
</g>
<!-- StateService&#45;&gt;AutonomousService -->
<g id="edge16" class="edge">
<title>StateService&#45;&gt;AutonomousService</title>
<path fill="none" stroke="#64748b" stroke-width="3" stroke-dasharray="5,2" d="M2811.44,-1491.87C2826.01,-1482.6 2839.21,-1471.44 2850,-1458 2911.9,-1380.93 2831.65,-1325.84 2875,-1237 3002,-976.76 3284.17,-763.81 3425.08,-669.06"/>
<polygon fill="#64748b" stroke="#64748b" stroke-width="3" points="3428.11,-672.93 3437.03,-661.08 3422.67,-664.78 3428.11,-672.93"/>
<text text-anchor="middle" x="3063.5" y="-1243.4" font-family="Helvetica,Arial,sans-serif" font-size="22.00" fill="#cbd5e1">PhysicsTick</text>
</g>
<!-- StateService&#45;&gt;UdpBridge -->
<g id="edge21" class="edge">
<title>StateService&#45;&gt;UdpBridge</title>
<path fill="none" stroke="#64748b" stroke-width="3" stroke-dasharray="5,2" d="M2430.09,-1491.98C2414.09,-1482.7 2399.34,-1471.5 2387,-1458 2355.51,-1423.55 2396.5,-1387.44 2362,-1356 2266.02,-1268.53 2187.76,-1373.78 2073,-1313 1977.99,-1262.68 1898.9,-1165.28 1851.59,-1096.85"/>
<polygon fill="#64748b" stroke="#64748b" stroke-width="3" points="1855.64,-1094.09 1843.71,-1085.28 1847.54,-1099.61 1855.64,-1094.09"/>
<text text-anchor="middle" x="2217.5" y="-1362.4" font-family="Helvetica,Arial,sans-serif" font-size="22.00" fill="#cbd5e1">StateData</text>
</g>
<!-- ThermalService&#45;&gt;UdpBridge -->
<g id="edge22" class="edge">
<title>ThermalService&#45;&gt;UdpBridge</title>
<path fill="none" stroke="#64748b" stroke-width="3" stroke-dasharray="5,2" d="M3316.91,-1428.58C3191.09,-1430.49 3023.02,-1429.75 2875,-1418 2656.32,-1400.65 2579.91,-1448.44 2387,-1344 2372.33,-1336.06 2377.11,-1323.08 2362,-1316 2303.81,-1288.73 2131.56,-1332.46 2073,-1306 1976.2,-1262.26 1897.42,-1165.87 1850.68,-1097.31"/>
<polygon fill="#64748b" stroke="#64748b" stroke-width="3" points="1854.48,-1094.18 1842.61,-1085.28 1846.34,-1099.64 1854.48,-1094.18"/>
<text text-anchor="middle" x="2618.5" y="-1422.4" font-family="Helvetica,Arial,sans-serif" font-size="22.00" fill="#cbd5e1">ThermalData</text>
</g>
<!-- EnvironmentService -->
<g id="node6" class="node">
<title>EnvironmentService</title>
<path fill="#0369a1" stroke="#f1f5f9" stroke-width="4" d="M4346,-561C4346,-561 3997,-561 3997,-561 3991,-561 3985,-555 3985,-549 3985,-549 3985,-483 3985,-483 3985,-477 3991,-471 3997,-471 3997,-471 4346,-471 4346,-471 4352,-471 4358,-477 4358,-483 4358,-483 4358,-549 4358,-549 4358,-555 4352,-561 4346,-561"/>
<text text-anchor="start" x="4027" y="-532" font-family="Helvetica,Arial,sans-serif" font-weight="bold" font-size="30.00" fill="#ffffff">EnvironmentService</text>
<text text-anchor="start" x="3994" y="-506.8" font-family="Helvetica,Arial,sans-serif" font-size="24.00" fill="#ffffff">Centralized service for managing</text>
<text text-anchor="start" x="4007" y="-482.8" font-family="Helvetica,Arial,sans-serif" font-size="24.00" fill="#ffffff">environmental simulation data.</text>
</g>
<!-- EnvironmentService&#45;&gt;AutonomousService -->
<g id="edge6" class="edge">
<title>EnvironmentService&#45;&gt;AutonomousService</title>
<path fill="none" stroke="#64748b" stroke-width="3" stroke-dasharray="5,2" d="M3991.4,-561.04C3980.8,-563.2 3970.28,-565.2 3960,-567 3887.96,-579.6 3808.82,-589.52 3737.29,-597.04"/>
<polygon fill="#64748b" stroke="#64748b" stroke-width="3" points="3736.51,-592.19 3723.09,-598.51 3737.52,-601.94 3736.51,-592.19"/>
<text text-anchor="middle" x="3863.5" y="-598.4" font-family="Helvetica,Arial,sans-serif" font-size="22.00" fill="#cbd5e1">InternalEnvData</text>
</g>
<!-- EnvironmentService&#45;&gt;UdpBridge -->
<g id="edge7" class="edge">
<title>EnvironmentService&#45;&gt;UdpBridge</title>
<path fill="none" stroke="#64748b" stroke-width="3" stroke-dasharray="5,2" d="M3984.85,-505.91C3976.45,-505.58 3968.14,-505.27 3960,-505 3750.42,-498.05 2249.73,-424.14 2073,-537 1927.12,-630.16 1853.38,-831.69 1822.46,-943.07"/>
<polygon fill="#64748b" stroke="#64748b" stroke-width="3" points="1817.66,-942.06 1818.73,-956.85 1827.12,-944.62 1817.66,-942.06"/>
<text text-anchor="middle" x="3063.5" y="-486.4" font-family="Helvetica,Arial,sans-serif" font-size="22.00" fill="#cbd5e1">EnvironmentAck, EnvironmentRequest</text>
</g>
<!-- AutonomousService&#45;&gt;EnvironmentService -->
<g id="edge4" class="edge">
<title>AutonomousService&#45;&gt;EnvironmentService</title>
<path fill="none" stroke="#64748b" stroke-width="3" stroke-dasharray="5,2" d="M3632.87,-570.92C3674.84,-557.32 3722.45,-543.92 3767,-536 3832.7,-524.32 3905.3,-518.56 3970.6,-515.93"/>
<polygon fill="#64748b" stroke="#64748b" stroke-width="3" points="3971.04,-520.82 3984.85,-515.4 3970.67,-511.03 3971.04,-520.82"/>
<text text-anchor="middle" x="3863.5" y="-542.4" font-family="Helvetica,Arial,sans-serif" font-size="22.00" fill="#cbd5e1">InternalEnvRequest</text>
</g>
<!-- AutonomousService&#45;&gt;UdpBridge -->
<g id="edge5" class="edge">
<title>AutonomousService&#45;&gt;UdpBridge</title>
<path fill="none" stroke="#64748b" stroke-width="3" stroke-dasharray="5,2" d="M3295.86,-576.69C3069.53,-540.87 2701.42,-499.89 2387,-545 2243.05,-565.65 2191.16,-552.22 2073,-637 1962.01,-716.63 1880.94,-856.87 1838.26,-944.04"/>
<polygon fill="#64748b" stroke="#64748b" stroke-width="3" points="1833.79,-942.03 1832.12,-956.77 1842.61,-946.29 1833.79,-942.03"/>
<text text-anchor="middle" x="2618.5" y="-575.4" font-family="Helvetica,Arial,sans-serif" font-size="22.00" fill="#cbd5e1">AutoDriveStatus, KinematicsRequest</text>
<text text-anchor="middle" x="2618.5" y="-551.4" font-family="Helvetica,Arial,sans-serif" font-size="22.00" fill="#cbd5e1">MotorSequence, PowerRequest</text>
</g>
<!-- SensorService -->
<g id="node8" class="node">
<title>SensorService</title>
<path fill="#0369a1" stroke="#f1f5f9" stroke-width="4" d="M2820,-856C2820,-856 2417,-856 2417,-856 2411,-856 2405,-850 2405,-844 2405,-844 2405,-754 2405,-754 2405,-748 2411,-742 2417,-742 2417,-742 2820,-742 2820,-742 2826,-742 2832,-748 2832,-754 2832,-754 2832,-844 2832,-844 2832,-850 2826,-856 2820,-856"/>
<text text-anchor="start" x="2514.5" y="-827" font-family="Helvetica,Arial,sans-serif" font-weight="bold" font-size="30.00" fill="#ffffff">SensorService</text>
<text text-anchor="start" x="2445.5" y="-801.8" font-family="Helvetica,Arial,sans-serif" font-size="24.00" fill="#ffffff">Sensor service that procedurally</text>
<text text-anchor="start" x="2414" y="-777.8" font-family="Helvetica,Arial,sans-serif" font-size="24.00" fill="#ffffff">generates environment data based on</text>
<text text-anchor="start" x="2510" y="-753.8" font-family="Helvetica,Arial,sans-serif" font-size="24.00" fill="#ffffff">requested locations.</text>
</g>
<!-- SensorService&#45;&gt;UdpBridge -->
<g id="edge15" class="edge">
<title>SensorService&#45;&gt;UdpBridge</title>
<path fill="none" stroke="#64748b" stroke-width="3" stroke-dasharray="5,2" d="M2404.9,-818.28C2302.82,-831.32 2179.77,-852.66 2073,-887 2023.17,-903.03 1971.09,-927.07 1926.17,-950.39"/>
<polygon fill="#64748b" stroke="#64748b" stroke-width="3" points="1923.81,-946.09 1913.7,-956.94 1928.37,-954.76 1923.81,-946.09"/>
<text text-anchor="middle" x="2217.5" y="-893.4" font-family="Helvetica,Arial,sans-serif" font-size="22.00" fill="#cbd5e1">EnvironmentData, SensorAck</text>
</g>
<!-- RevisionService -->
<g id="node9" class="node">
<title>RevisionService</title>
<path fill="#0369a1" stroke="#f1f5f9" stroke-width="4" d="M2801.5,-991C2801.5,-991 2435.5,-991 2435.5,-991 2429.5,-991 2423.5,-985 2423.5,-979 2423.5,-979 2423.5,-913 2423.5,-913 2423.5,-907 2429.5,-901 2435.5,-901 2435.5,-901 2801.5,-901 2801.5,-901 2807.5,-901 2813.5,-907 2813.5,-913 2813.5,-913 2813.5,-979 2813.5,-979 2813.5,-985 2807.5,-991 2801.5,-991"/>
<text text-anchor="start" x="2503" y="-962" font-family="Helvetica,Arial,sans-serif" font-weight="bold" font-size="30.00" fill="#ffffff">RevisionService</text>
<text text-anchor="start" x="2432.5" y="-936.8" font-family="Helvetica,Arial,sans-serif" font-size="24.00" fill="#ffffff">Provides runtime verification of the</text>
<text text-anchor="start" x="2467" y="-912.8" font-family="Helvetica,Arial,sans-serif" font-size="24.00" fill="#ffffff">compiled IPC protocol hash.</text>
</g>
<!-- RevisionService&#45;&gt;UdpBridge -->
<g id="edge14" class="edge">
<title>RevisionService&#45;&gt;UdpBridge</title>
<path fill="none" stroke="#64748b" stroke-width="3" stroke-dasharray="5,2" d="M2423.27,-966.05C2402.59,-968.1 2381.86,-970.12 2362,-972 2264.17,-981.27 2156.64,-990.86 2062.3,-999.07"/>
<polygon fill="#64748b" stroke="#64748b" stroke-width="3" points="2061.7,-994.2 2048.18,-1000.29 2062.55,-1003.96 2061.7,-994.2"/>
<text text-anchor="middle" x="2217.5" y="-1002.4" font-family="Helvetica,Arial,sans-serif" font-size="22.00" fill="#cbd5e1">RevisionResponse</text>
</g>
<!-- LogService -->
<g id="node10" class="node">
<title>LogService</title>
<path fill="#0369a1" stroke="#f1f5f9" stroke-width="4" d="M988.5,-1156C988.5,-1156 699.5,-1156 699.5,-1156 693.5,-1156 687.5,-1150 687.5,-1144 687.5,-1144 687.5,-1102 687.5,-1102 687.5,-1096 693.5,-1090 699.5,-1090 699.5,-1090 988.5,-1090 988.5,-1090 994.5,-1090 1000.5,-1096 1000.5,-1102 1000.5,-1102 1000.5,-1144 1000.5,-1144 1000.5,-1150 994.5,-1156 988.5,-1156"/>
<text text-anchor="start" x="763.5" y="-1127" font-family="Helvetica,Arial,sans-serif" font-weight="bold" font-size="30.00" fill="#ffffff">LogService</text>
<text text-anchor="start" x="696.5" y="-1101.8" font-family="Helvetica,Arial,sans-serif" font-size="24.00" fill="#ffffff">Asynchronous logging sink.</text>
</g>
<!-- LogService&#45;&gt;UdpBridge -->
<g id="edge9" class="edge">
<title>LogService&#45;&gt;UdpBridge</title>
<path fill="none" stroke="#64748b" stroke-width="3" stroke-dasharray="5,2" d="M1000.62,-1106.41C1147.42,-1090.77 1370.21,-1067.02 1543.65,-1048.54"/>
<polygon fill="#64748b" stroke="#64748b" stroke-width="3" points="1544.23,-1053.4 1557.63,-1047.05 1543.19,-1043.66 1544.23,-1053.4"/>
<text text-anchor="middle" x="1310.5" y="-1101.4" font-family="Helvetica,Arial,sans-serif" font-size="22.00" fill="#cbd5e1">Log</text>
</g>
<!-- UdpBridge&#45;&gt;MotorService -->
<g id="edge26" class="edge">
<title>UdpBridge&#45;&gt;MotorService</title>
<path fill="none" stroke="#64748b" stroke-width="3" stroke-dasharray="5,2" d="M1557.82,-1015.64C1237.84,-1010.17 707.47,-1007.03 625,-1044 462.51,-1116.84 338.28,-1297.43 282.61,-1390.51"/>
<polygon fill="#64748b" stroke="#64748b" stroke-width="3" points="278.27,-1388.22 275.37,-1402.77 286.7,-1393.21 278.27,-1388.22"/>
<text text-anchor="middle" x="844" y="-1050.4" font-family="Helvetica,Arial,sans-serif" font-size="22.00" fill="#cbd5e1">MotorSequence</text>
</g>
<!-- UdpBridge&#45;&gt;KinematicsService -->
<g id="edge25" class="edge">
<title>UdpBridge&#45;&gt;KinematicsService</title>
<path fill="none" stroke="#64748b" stroke-width="3" stroke-dasharray="5,2" d="M1663.7,-1085.11C1622.4,-1102.03 1576.53,-1118.7 1533,-1130 1340.11,-1180.07 1279.29,-1129.13 1088,-1185 1044.17,-1197.8 998.41,-1217.72 958.57,-1237.47"/>
<polygon fill="#64748b" stroke="#64748b" stroke-width="3" points="956.16,-1233.19 945.86,-1243.86 960.57,-1241.95 956.16,-1233.19"/>
<text text-anchor="middle" x="1310.5" y="-1191.4" font-family="Helvetica,Arial,sans-serif" font-size="22.00" fill="#cbd5e1">KinematicsRequest</text>
</g>
<!-- UdpBridge&#45;&gt;PowerService -->
<g id="edge27" class="edge">
<title>UdpBridge&#45;&gt;PowerService</title>
<path fill="none" stroke="#64748b" stroke-width="3" stroke-dasharray="5,2" d="M2048.21,-1030.43C2453.5,-1046.29 3223.66,-1077.41 3252,-1086 3321.61,-1107.09 3391.68,-1151.37 3440.95,-1187.22"/>
<polygon fill="#64748b" stroke="#64748b" stroke-width="3" points="3438.22,-1191.29 3452.39,-1195.66 3444.04,-1183.41 3438.22,-1191.29"/>
<text text-anchor="middle" x="2618.5" y="-1068.4" font-family="Helvetica,Arial,sans-serif" font-size="22.00" fill="#cbd5e1">PowerRequest</text>
</g>
<!-- UdpBridge&#45;&gt;StateService -->
<g id="edge30" class="edge">
<title>UdpBridge&#45;&gt;StateService</title>
<path fill="none" stroke="#64748b" stroke-width="3" stroke-dasharray="5,2" d="M1857.52,-1085.05C1909.12,-1148.17 1988,-1248.34 2048,-1341 2060.65,-1360.53 2053.93,-1373.66 2073,-1387 2179.41,-1461.43 2247.72,-1368.33 2362,-1430 2376.68,-1437.92 2373.1,-1448.77 2387,-1458 2403.1,-1468.69 2420.8,-1478.08 2439,-1486.29"/>
<polygon fill="#64748b" stroke="#64748b" stroke-width="3" points="2437.21,-1490.86 2452.01,-1491.93 2441.11,-1481.87 2437.21,-1490.86"/>
<text text-anchor="middle" x="2217.5" y="-1436.4" font-family="Helvetica,Arial,sans-serif" font-size="22.00" fill="#cbd5e1">StateRequest</text>
</g>
<!-- UdpBridge&#45;&gt;ThermalService -->
<g id="edge31" class="edge">
<title>UdpBridge&#45;&gt;ThermalService</title>
<path fill="none" stroke="#64748b" stroke-width="3" stroke-dasharray="5,2" d="M1960.17,-1085.09C1997,-1099.66 2036.24,-1114.74 2073,-1128 2211.02,-1177.81 2243.35,-1200.07 2387,-1230 2765.13,-1308.8 2877.69,-1218.69 3252,-1314 3305.25,-1327.56 3361.74,-1350.54 3408.11,-1371.92"/>
<polygon fill="#64748b" stroke="#64748b" stroke-width="3" points="3406.15,-1376.41 3420.91,-1377.89 3410.3,-1367.53 3406.15,-1376.41"/>
<text text-anchor="middle" x="2618.5" y="-1272.4" font-family="Helvetica,Arial,sans-serif" font-size="22.00" fill="#cbd5e1">EnvironmentData, ThermalRequest</text>
</g>
<!-- UdpBridge&#45;&gt;EnvironmentService -->
<g id="edge24" class="edge">
<title>UdpBridge&#45;&gt;EnvironmentService</title>
<path fill="none" stroke="#64748b" stroke-width="3" stroke-dasharray="5,2" d="M1814.09,-956.95C1836.57,-838.23 1902.88,-586.05 2073,-475 2703.47,-63.45 3683.39,-343.28 4037.32,-466.27"/>
<polygon fill="#64748b" stroke="#64748b" stroke-width="3" points="4035.83,-470.94 4050.66,-470.93 4039.06,-461.69 4035.83,-470.94"/>
<text text-anchor="middle" x="3063.5" y="-284.4" font-family="Helvetica,Arial,sans-serif" font-size="22.00" fill="#cbd5e1">EnvironmentData</text>
</g>
<!-- UdpBridge&#45;&gt;AutonomousService -->
<g id="edge23" class="edge">
<title>UdpBridge&#45;&gt;AutonomousService</title>
<path fill="none" stroke="#64748b" stroke-width="3" stroke-dasharray="5,2" d="M1848.48,-956.75C1896.39,-892.58 1978.6,-796.07 2073,-743 2274.11,-629.95 2930.49,-613.87 3281.78,-613.72"/>
<polygon fill="#64748b" stroke="#64748b" stroke-width="3" points="3281.95,-618.62 3295.96,-613.72 3281.96,-608.82 3281.95,-618.62"/>
<text text-anchor="middle" x="2618.5" y="-688.4" font-family="Helvetica,Arial,sans-serif" font-size="22.00" fill="#cbd5e1">AutoDriveCommand, KinematicsData</text>
<text text-anchor="middle" x="2618.5" y="-664.4" font-family="Helvetica,Arial,sans-serif" font-size="22.00" fill="#cbd5e1">PowerData</text>
</g>
<!-- UdpBridge&#45;&gt;SensorService -->
<g id="edge29" class="edge">
<title>UdpBridge&#45;&gt;SensorService</title>
<path fill="none" stroke="#64748b" stroke-width="3" stroke-dasharray="5,2" d="M1854.79,-956.98C1903.79,-900.84 1983.53,-823.14 2073,-790 2173.02,-752.95 2290.63,-750.3 2390.91,-758.93"/>
<polygon fill="#64748b" stroke="#64748b" stroke-width="3" points="2390.55,-763.82 2404.94,-760.22 2391.45,-754.06 2390.55,-763.82"/>
<text text-anchor="middle" x="2217.5" y="-796.4" font-family="Helvetica,Arial,sans-serif" font-size="22.00" fill="#cbd5e1">SensorRequest, StateData</text>
</g>
<!-- UdpBridge&#45;&gt;RevisionService -->
<g id="edge28" class="edge">
<title>UdpBridge&#45;&gt;RevisionService</title>
<path fill="none" stroke="#64748b" stroke-width="3" stroke-dasharray="5,2" d="M1982.74,-956.97C2012.53,-948.68 2043.38,-941.52 2073,-937 2183.13,-920.2 2307.24,-920.78 2409.12,-926.29"/>
<polygon fill="#64748b" stroke="#64748b" stroke-width="3" points="2409.09,-931.19 2423.35,-927.1 2409.65,-921.41 2409.09,-931.19"/>
<text text-anchor="middle" x="2217.5" y="-943.4" font-family="Helvetica,Arial,sans-serif" font-size="22.00" fill="#cbd5e1">RevisionRequest</text>
</g>
<!-- TX -->
<g id="node12" class="node">
<title>TX</title>
<path fill="#b45309" stroke="#f1f5f9" stroke-width="4" d="M970.5,-254C970.5,-254 717.5,-254 717.5,-254 711.5,-254 705.5,-248 705.5,-242 705.5,-242 705.5,-200 705.5,-200 705.5,-194 711.5,-188 717.5,-188 717.5,-188 970.5,-188 970.5,-188 976.5,-188 982.5,-194 982.5,-200 982.5,-200 982.5,-242 982.5,-242 982.5,-248 976.5,-254 970.5,-254"/>
<text text-anchor="start" x="771.5" y="-225" font-family="Helvetica,Arial,sans-serif" font-weight="bold" font-size="30.00" fill="#ffffff">TX Socket</text>
<text text-anchor="start" x="714.5" y="-199.8" font-family="Helvetica,Arial,sans-serif" font-size="24.00" fill="#ffffff">Port 9000 (SIL Inbound)</text>
</g>
<!-- TX&#45;&gt;UdpBridge -->
<g id="edge3" class="edge">
<title>TX&#45;&gt;UdpBridge</title>
<path fill="none" stroke="#f1f5f9" stroke-width="5" d="M957.36,-254.12C995.7,-270.47 1035.73,-293.99 1063,-327 1090.26,-360 1065.02,-383.89 1088,-420 1130.58,-486.9 1525.61,-802.97 1709.12,-947.97"/>
<polygon fill="#f1f5f9" stroke="#f1f5f9" stroke-width="5" points="1705.58,-952.98 1720.36,-956.85 1713.17,-943.37 1705.58,-952.98"/>
<text text-anchor="middle" x="1310.5" y="-978" font-family="Helvetica,Arial,sans-serif" font-size="25.00" fill="#cbd5e1">Inbound Traffic:</text>
<text text-anchor="middle" x="1310.5" y="-950" font-family="Helvetica,Arial,sans-serif" font-size="25.00" fill="#cbd5e1">AutoDriveCommand, EnvironmentData</text>
<text text-anchor="middle" x="1310.5" y="-922" font-family="Helvetica,Arial,sans-serif" font-size="25.00" fill="#cbd5e1">KinematicsData, KinematicsRequest</text>
<text text-anchor="middle" x="1310.5" y="-894" font-family="Helvetica,Arial,sans-serif" font-size="25.00" fill="#cbd5e1">MotorSequence, PowerData</text>
<text text-anchor="middle" x="1310.5" y="-866" font-family="Helvetica,Arial,sans-serif" font-size="25.00" fill="#cbd5e1">PowerRequest, RevisionRequest</text>
<text text-anchor="middle" x="1310.5" y="-838" font-family="Helvetica,Arial,sans-serif" font-size="25.00" fill="#cbd5e1">SensorRequest, StateData</text>
<text text-anchor="middle" x="1310.5" y="-810" font-family="Helvetica,Arial,sans-serif" font-size="25.00" fill="#cbd5e1">StateRequest, ThermalRequest</text>
</g>
<!-- RX -->
<g id="node13" class="node">
<title>RX</title>
<path fill="#b45309" stroke="#f1f5f9" stroke-width="4" d="M979.5,-98C979.5,-98 708.5,-98 708.5,-98 702.5,-98 696.5,-92 696.5,-86 696.5,-86 696.5,-44 696.5,-44 696.5,-38 702.5,-32 708.5,-32 708.5,-32 979.5,-32 979.5,-32 985.5,-32 991.5,-38 991.5,-44 991.5,-44 991.5,-86 991.5,-86 991.5,-92 985.5,-98 979.5,-98"/>
<text text-anchor="start" x="770" y="-69" font-family="Helvetica,Arial,sans-serif" font-weight="bold" font-size="30.00" fill="#ffffff">RX Socket</text>
<text text-anchor="start" x="705.5" y="-43.8" font-family="Helvetica,Arial,sans-serif" font-size="24.00" fill="#ffffff">Port 9001 (SIL Outbound)</text>
</g>
<!-- TX&#45;&gt;RX -->
<!-- RX&#45;&gt;UdpBridge -->
<g id="edge32" class="edge">
<title>RX&#45;&gt;UdpBridge</title>
<path fill="none" stroke="#f1f5f9" stroke-width="5" d="M1005.84,-49.04C1159.39,-42.95 1388.2,-59 1533,-185 1767.64,-389.17 1799.14,-798.81 1802.26,-956.81"/>
<polygon fill="#f1f5f9" stroke="#f1f5f9" stroke-width="5" points="1005.4,-42.93 991.69,-49.67 1005.95,-55.17 1005.4,-42.93"/>
<text text-anchor="middle" x="1310.5" y="-389" font-family="Helvetica,Arial,sans-serif" font-size="25.00" fill="#cbd5e1">Outbound Traffic:</text>
<text text-anchor="middle" x="1310.5" y="-361" font-family="Helvetica,Arial,sans-serif" font-size="25.00" fill="#cbd5e1">AutoDriveStatus, EnvironmentAck</text>
<text text-anchor="middle" x="1310.5" y="-333" font-family="Helvetica,Arial,sans-serif" font-size="25.00" fill="#cbd5e1">EnvironmentData, EnvironmentRequest</text>
<text text-anchor="middle" x="1310.5" y="-305" font-family="Helvetica,Arial,sans-serif" font-size="25.00" fill="#cbd5e1">KinematicsData, KinematicsRequest</text>
<text text-anchor="middle" x="1310.5" y="-277" font-family="Helvetica,Arial,sans-serif" font-size="25.00" fill="#cbd5e1">Log, MotorSequence</text>
<text text-anchor="middle" x="1310.5" y="-249" font-family="Helvetica,Arial,sans-serif" font-size="25.00" fill="#cbd5e1">PowerData, PowerRequest</text>
<text text-anchor="middle" x="1310.5" y="-221" font-family="Helvetica,Arial,sans-serif" font-size="25.00" fill="#cbd5e1">RevisionResponse, SensorAck</text>
<text text-anchor="middle" x="1310.5" y="-193" font-family="Helvetica,Arial,sans-serif" font-size="25.00" fill="#cbd5e1">StateData, ThermalData</text>
</g>
<!-- TestCase -->
<g id="node14" class="node">
<title>TestCase</title>
<path fill="#047857" stroke="#f1f5f9" stroke-width="4" d="M406.5,-177.5C406.5,-177.5 92.5,-177.5 92.5,-177.5 86.5,-177.5 80.5,-171.5 80.5,-165.5 80.5,-165.5 80.5,-140.5 80.5,-140.5 80.5,-134.5 86.5,-128.5 92.5,-128.5 92.5,-128.5 406.5,-128.5 406.5,-128.5 412.5,-128.5 418.5,-134.5 418.5,-140.5 418.5,-140.5 418.5,-165.5 418.5,-165.5 418.5,-171.5 412.5,-177.5 406.5,-177.5"/>
<text text-anchor="start" x="89.5" y="-145.3" font-family="Helvetica,Arial,sans-serif" font-weight="bold" font-size="34.00" fill="#ffffff">Test Case / Fixtures</text>
</g>
<!-- TestCase&#45;&gt;TX -->
<g id="edge2" class="edge">
<title>TestCase&#45;&gt;TX</title>
<path fill="none" stroke="#f1f5f9" stroke-width="5" d="M418.7,-172.3C504.5,-182.15 608.03,-194.03 691.35,-203.6"/>
<polygon fill="#f1f5f9" stroke="#f1f5f9" stroke-width="5" points="690.73,-209.69 705.33,-205.2 692.12,-197.52 690.73,-209.69"/>
<text text-anchor="middle" x="541" y="-200.4" font-family="Helvetica,Arial,sans-serif" font-size="22.00" fill="#cbd5e1">send_msg</text>
</g>
<!-- TestCase&#45;&gt;RX -->
<g id="edge33" class="edge">
<title>TestCase&#45;&gt;RX</title>
<path fill="none" stroke="#f1f5f9" stroke-width="5" d="M429.62,-126.4C514.81,-113.74 615.39,-98.81 696.01,-86.83"/>
<polygon fill="#f1f5f9" stroke="#f1f5f9" stroke-width="5" points="428.49,-120.37 415.54,-128.49 430.29,-132.49 428.49,-120.37"/>
<text text-anchor="middle" x="541" y="-123.4" font-family="Helvetica,Arial,sans-serif" font-size="22.00" fill="#cbd5e1">recv_msg</text>
</g>
</g>
</svg>
