<?xml version="1.0" encoding="UTF-8" standalone="no"?>
<!DOCTYPE svg PUBLIC "-//W3C//DTD SVG 1.1//EN"
 "http://www.w3.org/Graphics/SVG/1.1/DTD/svg11.dtd">
<!-- Generated by graphviz version 2.42.4 (0)
 -->
<!-- Title: IPC Pages: 1 -->
<svg width="4110pt" height="1550pt"
 viewBox="0.00 0.00 4109.68 1549.68" xmlns="http://www.w3.org/2000/svg" xmlns:xlink="http://www.w3.org/1999/xlink">
<g id="graph0" class="graph" transform="scale(1 1) rotate(0) translate(15.84 1533.84)">
<title>IPC</title>
<polygon fill="#0f172a" stroke="transparent" points="-15.84,15.84 -15.84,-1533.84 4093.84,-1533.84 4093.84,15.84 -15.84,15.84"/>
<text text-anchor="start" x="1549" y="-1473.4" font-family="Helvetica,Arial,sans-serif" font-weight="bold" font-size="52.00" fill="#f1f5f9">System Architecture and Message Flow</text>
<g id="clust1" class="cluster">
<title>cluster_sim</title>
<path fill="#1e293b" stroke="#475569" stroke-width="4" d="M20,-338C20,-338 4058,-338 4058,-338 4064,-338 4070,-344 4070,-350 4070,-350 4070,-1433 4070,-1433 4070,-1439 4064,-1445 4058,-1445 4058,-1445 20,-1445 20,-1445 14,-1445 8,-1439 8,-1433 8,-1433 8,-350 8,-350 8,-344 14,-338 20,-338"/>
<text text-anchor="start" x="1945.5" y="-1410" font-family="Helvetica,Arial,sans-serif" font-weight="bold" font-size="40.00" fill="#f1f5f9">Simulator</text>
</g>
<g id="clust2" class="cluster">
<title>cluster_sockets</title>
<path fill="#2a1b07" stroke="#f59e0b" stroke-width="6" d="M693.5,-8C693.5,-8 1012.5,-8 1012.5,-8 1018.5,-8 1024.5,-14 1024.5,-20 1024.5,-20 1024.5,-318 1024.5,-318 1024.5,-324 1018.5,-330 1012.5,-330 1012.5,-330 693.5,-330 693.5,-330 687.5,-330 681.5,-324 681.5,-318 681.5,-318 681.5,-20 681.5,-20 681.5,-14 687.5,-8 693.5,-8"/>
<text text-anchor="start" x="713.5" y="-295" font-family="Helvetica,Arial,sans-serif" font-weight="bold" font-size="40.00" fill="#f1f5f9">Network Layer</text>
</g>
<g id="clust4" class="cluster">
<title>cluster_fixtures</title>
<path fill="#0b2a20" stroke="#22c55e" stroke-width="6" d="M68.5,-104C68.5,-104 430.5,-104 430.5,-104 436.5,-104 442.5,-110 442.5,-116 442.5,-116 442.5,-242 442.5,-242 442.5,-248 436.5,-254 430.5,-254 430.5,-254 68.5,-254 68.5,-254 62.5,-254 56.5,-248 56.5,-242 56.5,-242 56.5,-116 56.5,-116 56.5,-110 62.5,-104 68.5,-104"/>
<text text-anchor="start" x="123.5" y="-219" font-family="Helvetica,Arial,sans-serif" font-weight="bold" font-size="40.00" fill="#f1f5f9">Test Harness</text>
</g>
<!-- MotorService -->
<g id="node1" class="node">
<title>MotorService</title>
<path fill="#0369a1" stroke="#f1f5f9" stroke-width="4" d="M445,-1250C445,-1250 54,-1250 54,-1250 48,-1250 42,-1244 42,-1238 42,-1238 42,-1172 42,-1172 42,-1166 48,-1160 54,-1160 54,-1160 445,-1160 445,-1160 451,-1160 457,-1166 457,-1172 457,-1172 457,-1238 457,-1238 457,-1244 451,-1250 445,-1250"/>
<text text-anchor="start" x="154.5" y="-1221" font-family="Helvetica,Arial,sans-serif" font-weight="bold" font-size="30.00" fill="#ffffff">MotorService</text>
<text text-anchor="start" x="51" y="-1195.8" font-family="Helvetica,Arial,sans-serif" font-size="24.00" fill="#ffffff">Reactive service that executes motor</text>
<text text-anchor="start" x="130.5" y="-1171.8" font-family="Helvetica,Arial,sans-serif" font-size="24.00" fill="#ffffff">command sequences.</text>
</g>
<!-- KinematicsService -->
<g id="node2" class="node">
<title>KinematicsService</title>
<path fill="#0369a1" stroke="#f1f5f9" stroke-width="4" d="M1060,-934C1060,-934 646,-934 646,-934 640,-934 634,-928 634,-922 634,-922 634,-832 634,-832 634,-826 640,-820 646,-820 646,-820 1060,-820 1060,-820 1066,-820 1072,-826 1072,-832 1072,-832 1072,-922 1072,-922 1072,-928 1066,-934 1060,-934"/>
<text text-anchor="start" x="720" y="-905" font-family="Helvetica,Arial,sans-serif" font-weight="bold" font-size="30.00" fill="#ffffff">KinematicsService</text>
<text text-anchor="start" x="643" y="-879.8" font-family="Helvetica,Arial,sans-serif" font-size="24.00" fill="#ffffff">Simulates vehicle motion by integrating</text>
<text text-anchor="start" x="650" y="-855.8" font-family="Helvetica,Arial,sans-serif" font-size="24.00" fill="#ffffff">motor RPM over time to track position</text>
<text text-anchor="start" x="753.5" y="-831.8" font-family="Helvetica,Arial,sans-serif" font-size="24.00" fill="#ffffff">and linear velocity.</text>
</g>
<!-- MotorService&#45;&gt;KinematicsService -->
<g id="edge10" class="edge">
<title>MotorService&#45;&gt;KinematicsService</title>
<path fill="none" stroke="#64748b" stroke-width="3" stroke-dasharray="5,2" d="M310.75,-1159.98C384.23,-1106.54 513.57,-1017.1 634,-957 646.11,-950.96 658.79,-945.13 671.68,-939.55"/>
<polygon fill="#64748b" stroke="#64748b" stroke-width="3" points="673.65,-944.04 684.63,-934.06 669.83,-935.01 673.65,-944.04"/>
<text text-anchor="middle" x="545.5" y="-1043.4" font-family="Helvetica,Arial,sans-serif" font-size="22.00" fill="#cbd5e1">StateChange</text>
</g>
<!-- PowerService -->
<g id="node3" class="node">
<title>PowerService</title>
<path fill="#0369a1" stroke="#f1f5f9" stroke-width="4" d="M3408,-1260C3408,-1260 2967,-1260 2967,-1260 2961,-1260 2955,-1254 2955,-1248 2955,-1248 2955,-1182 2955,-1182 2955,-1176 2961,-1170 2967,-1170 2967,-1170 3408,-1170 3408,-1170 3414,-1170 3420,-1176 3420,-1182 3420,-1182 3420,-1248 3420,-1248 3420,-1254 3414,-1260 3408,-1260"/>
<text text-anchor="start" x="3089" y="-1231" font-family="Helvetica,Arial,sans-serif" font-weight="bold" font-size="30.00" fill="#ffffff">PowerService</text>
<text text-anchor="start" x="2964" y="-1205.8" font-family="Helvetica,Arial,sans-serif" font-size="24.00" fill="#ffffff">Models a simple battery pack dynamically</text>
<text text-anchor="start" x="3049.5" y="-1181.8" font-family="Helvetica,Arial,sans-serif" font-size="24.00" fill="#ffffff">responding to motor load.</text>
</g>
<!-- MotorService&#45;&gt;PowerService -->
<g id="edge11" class="edge">
<title>MotorService&#45;&gt;PowerService</title>
<path fill="none" stroke="#64748b" stroke-width="3" stroke-dasharray="5,2" d="M457.04,-1232.97C855.84,-1283.39 1759.66,-1380.27 2520,-1335 2703.19,-1324.09 2749.94,-1321.47 2930,-1286 2960.9,-1279.91 2993.53,-1272.03 3024.78,-1263.75"/>
<polygon fill="#64748b" stroke="#64748b" stroke-width="3" points="3026.3,-1268.41 3038.55,-1260.05 3023.76,-1258.95 3026.3,-1268.41"/>
<text text-anchor="middle" x="1716" y="-1349.4" font-family="Helvetica,Arial,sans-serif" font-size="22.00" fill="#cbd5e1">StateChange</text>
</g>
<!-- StateService -->
<g id="node4" class="node">
<title>StateService</title>
<path fill="#0369a1" stroke="#f1f5f9" stroke-width="4" d="M2508,-1312C2508,-1312 2069,-1312 2069,-1312 2063,-1312 2057,-1306 2057,-1300 2057,-1300 2057,-1234 2057,-1234 2057,-1228 2063,-1222 2069,-1222 2069,-1222 2508,-1222 2508,-1222 2514,-1222 2520,-1228 2520,-1234 2520,-1234 2520,-1300 2520,-1300 2520,-1306 2514,-1312 2508,-1312"/>
<text text-anchor="start" x="2198.5" y="-1283" font-family="Helvetica,Arial,sans-serif" font-weight="bold" font-size="30.00" fill="#ffffff">StateService</text>
<text text-anchor="start" x="2100.5" y="-1257.8" font-family="Helvetica,Arial,sans-serif" font-size="24.00" fill="#ffffff">Maintains the central lifecycle state</text>
<text text-anchor="start" x="2066" y="-1233.8" font-family="Helvetica,Arial,sans-serif" font-size="24.00" fill="#ffffff">machine and the master simulation clock.</text>
</g>
<!-- MotorService&#45;&gt;StateService -->
<g id="edge12" class="edge">
<title>MotorService&#45;&gt;StateService</title>
<path fill="none" stroke="#64748b" stroke-width="3" stroke-dasharray="5,2" d="M457.41,-1205.71C623.59,-1205.38 862.91,-1202.88 1072,-1193 1083.13,-1192.47 1085.86,-1191.44 1097,-1191 1290.62,-1183.27 1339.38,-1183.06 1533,-1191 1755.34,-1200.12 1810.8,-1207.78 2032,-1232 2035.55,-1232.39 2039.13,-1232.79 2042.74,-1233.2"/>
<polygon fill="#64748b" stroke="#64748b" stroke-width="3" points="2042.26,-1238.07 2056.73,-1234.81 2043.38,-1228.34 2042.26,-1238.07"/>
<text text-anchor="middle" x="1315" y="-1197.4" font-family="Helvetica,Arial,sans-serif" font-size="22.00" fill="#cbd5e1">MotorStatus, StateChange</text>
</g>
<!-- UdpBridge -->
<g id="node9" class="node">
<title>UdpBridge</title>
<path fill="#0f766e" stroke="#f1f5f9" stroke-width="4" d="M1862,-894C1862,-894 1570,-894 1570,-894 1564,-894 1558,-888 1558,-882 1558,-882 1558,-830 1558,-830 1558,-824 1564,-818 1570,-818 1570,-818 1862,-818 1862,-818 1868,-818 1874,-824 1874,-830 1874,-830 1874,-882 1874,-882 1874,-888 1868,-894 1862,-894"/>
<text text-anchor="start" x="1618" y="-858.6" font-family="Helvetica,Arial,sans-serif" font-weight="bold" font-size="38.00" fill="#ffffff">UdpBridge</text>
<text text-anchor="start" x="1567" y="-830.2" font-family="Helvetica,Arial,sans-serif" font-size="26.00" fill="#ffffff">Message Distribution Hub</text>
</g>
<!-- KinematicsService&#45;&gt;UdpBridge -->
<g id="edge8" class="edge">
<title>KinematicsService&#45;&gt;UdpBridge</title>
<path fill="none" stroke="#64748b" stroke-width="3" stroke-dasharray="5,2" d="M1072.3,-874.9C1205.45,-873.18 1379.08,-870.16 1533,-865 1536.4,-864.89 1539.84,-864.77 1543.3,-864.64"/>
<polygon fill="#64748b" stroke="#64748b" stroke-width="3" points="1543.86,-869.52 1557.67,-864.09 1543.49,-859.73 1543.86,-869.52"/>
<text text-anchor="middle" x="1315" y="-880.4" font-family="Helvetica,Arial,sans-serif" font-size="22.00" fill="#cbd5e1">KinematicsData</text>
</g>
<!-- PowerService&#45;&gt;UdpBridge -->
<g id="edge13" class="edge">
<title>PowerService&#45;&gt;UdpBridge</title>
<path fill="none" stroke="#64748b" stroke-width="3" stroke-dasharray="5,2" d="M2996.15,-1169.98C2973.93,-1165.53 2951.51,-1161.41 2930,-1158 2545.02,-1096.94 2404.71,-1250.16 2057,-1074 2042.12,-1066.46 2046.96,-1053.38 2032,-1046 1978.84,-1019.76 1952.94,-1060.57 1899,-1036 1836.76,-1007.65 1783.58,-948.34 1751.06,-905.53"/>
<polygon fill="#64748b" stroke="#64748b" stroke-width="3" points="1754.93,-902.53 1742.65,-894.21 1747.07,-908.37 1754.93,-902.53"/>
<text text-anchor="middle" x="2288.5" y="-1168.4" font-family="Helvetica,Arial,sans-serif" font-size="22.00" fill="#cbd5e1">PowerData</text>
</g>
<!-- StateService&#45;&gt;MotorService -->
<g id="edge16" class="edge">
<title>StateService&#45;&gt;MotorService</title>
<path fill="none" stroke="#64748b" stroke-width="3" stroke-dasharray="5,2" d="M2056.94,-1262.39C1713.63,-1255.13 1047.75,-1239.49 482,-1217 478.44,-1216.86 474.84,-1216.71 471.23,-1216.56"/>
<polygon fill="#64748b" stroke="#64748b" stroke-width="3" points="471.36,-1211.66 457.17,-1215.96 470.94,-1221.45 471.36,-1211.66"/>
<text text-anchor="middle" x="1315" y="-1255.4" font-family="Helvetica,Arial,sans-serif" font-size="22.00" fill="#cbd5e1">PhysicsTick</text>
</g>
<!-- StateService&#45;&gt;KinematicsService -->
<g id="edge15" class="edge">
<title>StateService&#45;&gt;KinematicsService</title>
<path fill="none" stroke="#64748b" stroke-width="3" stroke-dasharray="5,2" d="M2131.36,-1221.98C2098.75,-1213.91 2064.43,-1206.36 2032,-1201 2002.76,-1196.16 1925.35,-1204.57 1899,-1191 1883.57,-1183.05 1888.49,-1170.56 1874,-1161 1744.94,-1075.83 1344.98,-979.94 1085.93,-924.22"/>
<polygon fill="#64748b" stroke="#64748b" stroke-width="3" points="1086.88,-919.41 1072.16,-921.26 1084.82,-928.99 1086.88,-919.41"/>
<text text-anchor="middle" x="1716" y="-1167.4" font-family="Helvetica,Arial,sans-serif" font-size="22.00" fill="#cbd5e1">PhysicsTick</text>
</g>
<!-- StateService&#45;&gt;PowerService -->
<g id="edge17" class="edge">
<title>StateService&#45;&gt;PowerService</title>
<path fill="none" stroke="#64748b" stroke-width="3" stroke-dasharray="5,2" d="M2520.21,-1253.63C2649.05,-1246.16 2809.56,-1236.85 2940.75,-1229.25"/>
<polygon fill="#64748b" stroke="#64748b" stroke-width="3" points="2941.28,-1234.12 2954.97,-1228.42 2940.71,-1224.34 2941.28,-1234.12"/>
<text text-anchor="middle" x="2737.5" y="-1257.4" font-family="Helvetica,Arial,sans-serif" font-size="22.00" fill="#cbd5e1">PhysicsTick</text>
</g>
<!-- ThermalService -->
<g id="node5" class="node">
<title>ThermalService</title>
<path fill="#0369a1" stroke="#f1f5f9" stroke-width="4" d="M3296,-579C3296,-579 3079,-579 3079,-579 3073,-579 3067,-573 3067,-567 3067,-567 3067,-525 3067,-525 3067,-519 3073,-513 3079,-513 3079,-513 3296,-513 3296,-513 3302,-513 3308,-519 3308,-525 3308,-525 3308,-567 3308,-567 3308,-573 3302,-579 3296,-579"/>
<text text-anchor="start" x="3076" y="-550" font-family="Helvetica,Arial,sans-serif" font-weight="bold" font-size="30.00" fill="#ffffff">ThermalService</text>
<text text-anchor="start" x="3099" y="-524.8" font-family="Helvetica,Arial,sans-serif" font-size="24.00" fill="#ffffff">Thermal Service</text>
</g>
<!-- StateService&#45;&gt;ThermalService -->
<g id="edge18" class="edge">
<title>StateService&#45;&gt;ThermalService</title>
<path fill="none" stroke="#64748b" stroke-width="3" stroke-dasharray="5,2" d="M2481.5,-1221.92C2496.05,-1212.64 2509.23,-1201.46 2520,-1188 2583.95,-1108.05 2487.26,-1043.55 2545,-959 2653.86,-799.6 2769.17,-864.74 2930,-758 3008.7,-705.77 3091.5,-633.78 3141.06,-588.57"/>
<polygon fill="#64748b" stroke="#64748b" stroke-width="3" points="3144.42,-592.15 3151.42,-579.07 3137.79,-584.92 3144.42,-592.15"/>
<text text-anchor="middle" x="2737.5" y="-965.4" font-family="Helvetica,Arial,sans-serif" font-size="22.00" fill="#cbd5e1">PhysicsTick</text>
</g>
<!-- AutonomousService -->
<g id="node7" class="node">
<title>AutonomousService</title>
<path fill="#0369a1" stroke="#f1f5f9" stroke-width="4" d="M3392,-881C3392,-881 2983,-881 2983,-881 2977,-881 2971,-875 2971,-869 2971,-869 2971,-827 2971,-827 2971,-821 2977,-815 2983,-815 2983,-815 3392,-815 3392,-815 3398,-815 3404,-821 3404,-827 3404,-827 3404,-869 3404,-869 3404,-875 3398,-881 3392,-881"/>
<text text-anchor="start" x="3042.5" y="-852" font-family="Helvetica,Arial,sans-serif" font-weight="bold" font-size="30.00" fill="#ffffff">AutonomousService</text>
<text text-anchor="start" x="2980" y="-826.8" font-family="Helvetica,Arial,sans-serif" font-size="24.00" fill="#ffffff">High level autonomous driving service.</text>
</g>
<!-- StateService&#45;&gt;AutonomousService -->
<g id="edge14" class="edge">
<title>StateService&#45;&gt;AutonomousService</title>
<path fill="none" stroke="#64748b" stroke-width="3" stroke-dasharray="5,2" d="M2431.18,-1221.98C2460.82,-1211.58 2491.67,-1200.01 2520,-1188 2743.8,-1093.13 2996.54,-955.29 3116.33,-887.99"/>
<polygon fill="#64748b" stroke="#64748b" stroke-width="3" points="3118.75,-892.25 3128.54,-881.11 3113.94,-883.71 3118.75,-892.25"/>
<text text-anchor="middle" x="2737.5" y="-1178.4" font-family="Helvetica,Arial,sans-serif" font-size="22.00" fill="#cbd5e1">PhysicsTick</text>
</g>
<!-- StateService&#45;&gt;UdpBridge -->
<g id="edge19" class="edge">
<title>StateService&#45;&gt;UdpBridge</title>
<path fill="none" stroke="#64748b" stroke-width="3" stroke-dasharray="5,2" d="M2100.09,-1221.98C2084.09,-1212.7 2069.34,-1201.5 2057,-1188 2025.51,-1153.55 2063.79,-1120.18 2032,-1086 1989.69,-1040.51 1951.77,-1075.78 1899,-1043 1840.48,-1006.65 1787.27,-947.51 1753.71,-905.47"/>
<polygon fill="#64748b" stroke="#64748b" stroke-width="3" points="1757.48,-902.35 1744.98,-894.37 1749.78,-908.41 1757.48,-902.35"/>
<text text-anchor="middle" x="1965.5" y="-1092.4" font-family="Helvetica,Arial,sans-serif" font-size="22.00" fill="#cbd5e1">StateData</text>
</g>
<!-- ThermalService&#45;&gt;UdpBridge -->
<g id="edge20" class="edge">
<title>ThermalService&#45;&gt;UdpBridge</title>
<path fill="none" stroke="#64748b" stroke-width="3" stroke-dasharray="5,2" d="M3066.79,-538.31C2785.87,-522.43 2093.45,-496.61 1899,-613 1823.27,-658.33 1768.74,-748.33 1740.08,-805.17"/>
<polygon fill="#64748b" stroke="#64748b" stroke-width="3" points="1735.64,-803.08 1733.85,-817.81 1744.43,-807.41 1735.64,-803.08"/>
<text text-anchor="middle" x="2288.5" y="-565.4" font-family="Helvetica,Arial,sans-serif" font-size="22.00" fill="#cbd5e1">ThermalData</text>
</g>
<!-- EnvironmentService -->
<g id="node6" class="node">
<title>EnvironmentService</title>
<path fill="#0369a1" stroke="#f1f5f9" stroke-width="4" d="M4024,-793C4024,-793 3675,-793 3675,-793 3669,-793 3663,-787 3663,-781 3663,-781 3663,-715 3663,-715 3663,-709 3669,-703 3675,-703 3675,-703 4024,-703 4024,-703 4030,-703 4036,-709 4036,-715 4036,-715 4036,-781 4036,-781 4036,-787 4030,-793 4024,-793"/>
<text text-anchor="start" x="3705" y="-764" font-family="Helvetica,Arial,sans-serif" font-weight="bold" font-size="30.00" fill="#ffffff">EnvironmentService</text>
<text text-anchor="start" x="3672" y="-738.8" font-family="Helvetica,Arial,sans-serif" font-size="24.00" fill="#ffffff">Centralized service for managing</text>
<text text-anchor="start" x="3685" y="-714.8" font-family="Helvetica,Arial,sans-serif" font-size="24.00" fill="#ffffff">environmental simulation data.</text>
</g>
<!-- EnvironmentService&#45;&gt;AutonomousService -->
<g id="edge6" class="edge">
<title>EnvironmentService&#45;&gt;AutonomousService</title>
<path fill="none" stroke="#64748b" stroke-width="3" stroke-dasharray="5,2" d="M3669.4,-793.04C3658.8,-795.2 3648.28,-797.2 3638,-799 3566.96,-811.43 3489.01,-821.24 3418.27,-828.72"/>
<polygon fill="#64748b" stroke="#64748b" stroke-width="3" points="3417.63,-823.86 3404.22,-830.19 3418.65,-833.61 3417.63,-823.86"/>
<text text-anchor="middle" x="3541.5" y="-830.4" font-family="Helvetica,Arial,sans-serif" font-size="22.00" fill="#cbd5e1">InternalEnvData</text>
</g>
<!-- EnvironmentService&#45;&gt;UdpBridge -->
<g id="edge7" class="edge">
<title>EnvironmentService&#45;&gt;UdpBridge</title>
<path fill="none" stroke="#64748b" stroke-width="3" stroke-dasharray="5,2" d="M3662.73,-733.56C3336.2,-711.6 2638.79,-679.97 2057,-757 1985.97,-766.4 1967.93,-769.46 1899,-789 1874.81,-795.86 1849.25,-804.42 1825.17,-813.1"/>
<polygon fill="#64748b" stroke="#64748b" stroke-width="3" points="1823.43,-808.52 1811.97,-817.92 1826.8,-817.72 1823.43,-808.52"/>
<text text-anchor="middle" x="2737.5" y="-721.4" font-family="Helvetica,Arial,sans-serif" font-size="22.00" fill="#cbd5e1">EnvironmentAck, EnvironmentRequest</text>
</g>
<!-- AutonomousService&#45;&gt;EnvironmentService -->
<g id="edge4" class="edge">
<title>AutonomousService&#45;&gt;EnvironmentService</title>
<path fill="none" stroke="#64748b" stroke-width="3" stroke-dasharray="5,2" d="M3275.28,-814.92C3324.34,-797.75 3387.25,-778.27 3445,-768 3510.7,-756.32 3583.3,-750.56 3648.6,-747.93"/>
<polygon fill="#64748b" stroke="#64748b" stroke-width="3" points="3649.04,-752.82 3662.85,-747.4 3648.67,-743.03 3649.04,-752.82"/>
<text text-anchor="middle" x="3541.5" y="-774.4" font-family="Helvetica,Arial,sans-serif" font-size="22.00" fill="#cbd5e1">InternalEnvRequest</text>
</g>
<!-- AutonomousService&#45;&gt;UdpBridge -->
<g id="edge5" class="edge">
<title>AutonomousService&#45;&gt;UdpBridge</title>
<path fill="none" stroke="#64748b" stroke-width="3" stroke-dasharray="5,2" d="M3103.1,-814.95C3053.65,-797.15 2989.26,-777.03 2930,-768 2845.42,-755.12 2630.52,-765.46 2545,-768 2327.82,-774.45 2272.82,-771.94 2057,-797 2001.84,-803.4 1942.06,-812.9 1888.23,-822.42"/>
<polygon fill="#64748b" stroke="#64748b" stroke-width="3" points="1887.24,-817.62 1874.32,-824.9 1888.96,-827.27 1887.24,-817.62"/>
<text text-anchor="middle" x="2288.5" y="-827.4" font-family="Helvetica,Arial,sans-serif" font-size="22.00" fill="#cbd5e1">AutoDriveStatus, KinematicsRequest</text>
<text text-anchor="middle" x="2288.5" y="-803.4" font-family="Helvetica,Arial,sans-serif" font-size="22.00" fill="#cbd5e1">MotorSequence, PowerRequest</text>
</g>
<!-- LogService -->
<g id="node8" class="node">
<title>LogService</title>
<path fill="#0369a1" stroke="#f1f5f9" stroke-width="4" d="M997.5,-1045C997.5,-1045 708.5,-1045 708.5,-1045 702.5,-1045 696.5,-1039 696.5,-1033 696.5,-1033 696.5,-991 696.5,-991 696.5,-985 702.5,-979 708.5,-979 708.5,-979 997.5,-979 997.5,-979 1003.5,-979 1009.5,-985 1009.5,-991 1009.5,-991 1009.5,-1033 1009.5,-1033 1009.5,-1039 1003.5,-1045 997.5,-1045"/>
<text text-anchor="start" x="772.5" y="-1016" font-family="Helvetica,Arial,sans-serif" font-weight="bold" font-size="30.00" fill="#ffffff">LogService</text>
<text text-anchor="start" x="705.5" y="-990.8" font-family="Helvetica,Arial,sans-serif" font-size="24.00" fill="#ffffff">Asynchronous logging sink.</text>
</g>
<!-- LogService&#45;&gt;UdpBridge -->
<g id="edge9" class="edge">
<title>LogService&#45;&gt;UdpBridge</title>
<path fill="none" stroke="#64748b" stroke-width="3" stroke-dasharray="5,2" d="M1009.81,-994.34C1148.13,-977.25 1355.29,-948.17 1533,-909 1548.04,-905.69 1563.66,-901.81 1579.15,-897.69"/>
<polygon fill="#64748b" stroke="#64748b" stroke-width="3" points="1580.48,-902.41 1592.71,-894.02 1577.91,-892.95 1580.48,-902.41"/>
<text text-anchor="middle" x="1315" y="-988.4" font-family="Helvetica,Arial,sans-serif" font-size="22.00" fill="#cbd5e1">Log</text>
</g>
<!-- UdpBridge&#45;&gt;MotorService -->
<g id="edge24" class="edge">
<title>UdpBridge&#45;&gt;MotorService</title>
<path fill="none" stroke="#64748b" stroke-width="3" stroke-dasharray="5,2" d="M1683.86,-894.24C1650.7,-932.08 1594.6,-988.38 1533,-1017 1438.74,-1060.79 812.56,-1139.29 471.32,-1179.6"/>
<polygon fill="#64748b" stroke="#64748b" stroke-width="3" points="470.63,-1174.74 457.3,-1181.25 471.78,-1184.48 470.63,-1174.74"/>
<text text-anchor="middle" x="853" y="-1164.4" font-family="Helvetica,Arial,sans-serif" font-size="22.00" fill="#cbd5e1">MotorSequence, ResetRequest</text>
</g>
<!-- UdpBridge&#45;&gt;KinematicsService -->
<g id="edge23" class="edge">
<title>UdpBridge&#45;&gt;KinematicsService</title>
<path fill="none" stroke="#64748b" stroke-width="3" stroke-dasharray="5,2" d="M1557.8,-832.13C1549.43,-831.3 1541.12,-830.58 1533,-830 1339.71,-816.26 1289.89,-811.52 1097,-830 1093.44,-830.34 1089.86,-830.71 1086.26,-831.1"/>
<polygon fill="#64748b" stroke="#64748b" stroke-width="3" points="1085.62,-826.24 1072.29,-832.74 1086.76,-835.98 1085.62,-826.24"/>
<text text-anchor="middle" x="1315" y="-836.4" font-family="Helvetica,Arial,sans-serif" font-size="22.00" fill="#cbd5e1">KinematicsRequest, ResetRequest</text>
</g>
<!-- UdpBridge&#45;&gt;PowerService -->
<g id="edge25" class="edge">
<title>UdpBridge&#45;&gt;PowerService</title>
<path fill="none" stroke="#64748b" stroke-width="3" stroke-dasharray="5,2" d="M1816.49,-894.07C1883.59,-918.49 1974.59,-949.23 2057,-969 2259.37,-1017.55 2315.45,-1000.64 2520,-1039 2703.55,-1073.42 2749.94,-1081.44 2930,-1131 2967.12,-1141.22 3006.83,-1153.53 3043.65,-1165.54"/>
<polygon fill="#64748b" stroke="#64748b" stroke-width="3" points="3042.24,-1170.23 3057.07,-1169.94 3045.3,-1160.92 3042.24,-1170.23"/>
<text text-anchor="middle" x="2288.5" y="-1045.4" font-family="Helvetica,Arial,sans-serif" font-size="22.00" fill="#cbd5e1">PowerRequest, ResetRequest</text>
</g>
<!-- UdpBridge&#45;&gt;StateService -->
<g id="edge26" class="edge">
<title>UdpBridge&#45;&gt;StateService</title>
<path fill="none" stroke="#64748b" stroke-width="3" stroke-dasharray="5,2" d="M1760.88,-894.3C1796.13,-927.27 1844.47,-977.84 1874,-1031 1893.33,-1065.8 1871.28,-1088.44 1899,-1117 1942.27,-1161.58 1979.94,-1126.09 2032,-1160 2045.98,-1169.11 2043.1,-1178.77 2057,-1188 2073.1,-1198.69 2090.8,-1208.08 2109,-1216.29"/>
<polygon fill="#64748b" stroke="#64748b" stroke-width="3" points="2107.21,-1220.86 2122.01,-1221.93 2111.11,-1211.87 2107.21,-1220.86"/>
<text text-anchor="middle" x="1965.5" y="-1166.4" font-family="Helvetica,Arial,sans-serif" font-size="22.00" fill="#cbd5e1">StateRequest</text>
</g>
<!-- UdpBridge&#45;&gt;ThermalService -->
<g id="edge27" class="edge">
<title>UdpBridge&#45;&gt;ThermalService</title>
<path fill="none" stroke="#64748b" stroke-width="3" stroke-dasharray="5,2" d="M1732.71,-817.93C1759.43,-756.81 1818.73,-635.72 1899,-557 1957.02,-500.1 1978.55,-486.18 2057,-465 2409.18,-369.94 2844.22,-455.23 3056.98,-509.38"/>
<polygon fill="#64748b" stroke="#64748b" stroke-width="3" points="3055.89,-514.16 3070.67,-512.9 3058.33,-504.66 3055.89,-514.16"/>
<text text-anchor="middle" x="2288.5" y="-495.4" font-family="Helvetica,Arial,sans-serif" font-size="22.00" fill="#cbd5e1">EnvironmentData, ResetRequest</text>
<text text-anchor="middle" x="2288.5" y="-471.4" font-family="Helvetica,Arial,sans-serif" font-size="22.00" fill="#cbd5e1">ThermalRequest</text>
</g>
<!-- UdpBridge&#45;&gt;EnvironmentService -->
<g id="edge22" class="edge">
<title>UdpBridge&#45;&gt;EnvironmentService</title>
<path fill="none" stroke="#64748b" stroke-width="3" stroke-dasharray="5,2" d="M1772.75,-817.97C1807.77,-795.43 1854.58,-767.71 1899,-749 1966.07,-720.75 1985.55,-719.82 2057,-706 2746.89,-572.61 2941.47,-617.33 3638,-710 3641.58,-710.48 3645.2,-710.97 3648.84,-711.48"/>
<polygon fill="#64748b" stroke="#64748b" stroke-width="3" points="3648.42,-716.38 3662.98,-713.54 3649.83,-706.68 3648.42,-716.38"/>
<text text-anchor="middle" x="2737.5" y="-662.4" font-family="Helvetica,Arial,sans-serif" font-size="22.00" fill="#cbd5e1">EnvironmentData, EnvironmentRequest</text>
<text text-anchor="middle" x="2737.5" y="-638.4" font-family="Helvetica,Arial,sans-serif" font-size="22.00" fill="#cbd5e1">ResetRequest</text>
</g>
<!-- UdpBridge&#45;&gt;AutonomousService -->
<g id="edge21" class="edge">
<title>UdpBridge&#45;&gt;AutonomousService</title>
<path fill="none" stroke="#64748b" stroke-width="3" stroke-dasharray="5,2" d="M1874.39,-873.75C2106.08,-897.02 2552.35,-931.03 2930,-896 2959.83,-893.23 2991.36,-888.69 3021.73,-883.48"/>
<polygon fill="#64748b" stroke="#64748b" stroke-width="3" points="3022.65,-888.29 3035.59,-881.04 3020.95,-878.64 3022.65,-888.29"/>
<text text-anchor="middle" x="2288.5" y="-940.4" font-family="Helvetica,Arial,sans-serif" font-size="22.00" fill="#cbd5e1">AutoDriveCommand, KinematicsData</text>
<text text-anchor="middle" x="2288.5" y="-916.4" font-family="Helvetica,Arial,sans-serif" font-size="22.00" fill="#cbd5e1">PowerData, ResetRequest</text>
</g>
<!-- TX -->
<g id="node10" class="node">
<title>TX</title>
<path fill="#b45309" stroke="#f1f5f9" stroke-width="4" d="M979.5,-254C979.5,-254 726.5,-254 726.5,-254 720.5,-254 714.5,-248 714.5,-242 714.5,-242 714.5,-200 714.5,-200 714.5,-194 720.5,-188 726.5,-188 726.5,-188 979.5,-188 979.5,-188 985.5,-188 991.5,-194 991.5,-200 991.5,-200 991.5,-242 991.5,-242 991.5,-248 985.5,-254 979.5,-254"/>
<text text-anchor="start" x="780.5" y="-225" font-family="Helvetica,Arial,sans-serif" font-weight="bold" font-size="30.00" fill="#ffffff">TX Socket</text>
<text text-anchor="start" x="723.5" y="-199.8" font-family="Helvetica,Arial,sans-serif" font-size="24.00" fill="#ffffff">Port 9000 (SIL Inbound)</text>
</g>
<!-- TX&#45;&gt;UdpBridge -->
<g id="edge3" class="edge">
<title>TX&#45;&gt;UdpBridge</title>
<path fill="none" stroke="#f1f5f9" stroke-width="5" d="M936.77,-254.04C1072.72,-311.24 1346.77,-439.2 1533,-610 1596.98,-668.67 1653.43,-752.67 1685.9,-805.76"/>
<polygon fill="#f1f5f9" stroke="#f1f5f9" stroke-width="5" points="1680.76,-809.09 1693.24,-817.9 1691.24,-802.75 1680.76,-809.09"/>
<text text-anchor="middle" x="1315" y="-786" font-family="Helvetica,Arial,sans-serif" font-size="25.00" fill="#cbd5e1">Inbound Traffic:</text>
<text text-anchor="middle" x="1315" y="-758" font-family="Helvetica,Arial,sans-serif" font-size="25.00" fill="#cbd5e1">AutoDriveCommand, EnvironmentData</text>
<text text-anchor="middle" x="1315" y="-730" font-family="Helvetica,Arial,sans-serif" font-size="25.00" fill="#cbd5e1">EnvironmentRequest, KinematicsData</text>
<text text-anchor="middle" x="1315" y="-702" font-family="Helvetica,Arial,sans-serif" font-size="25.00" fill="#cbd5e1">KinematicsRequest, MotorSequence</text>
<text text-anchor="middle" x="1315" y="-674" font-family="Helvetica,Arial,sans-serif" font-size="25.00" fill="#cbd5e1">PowerData, PowerRequest</text>
<text text-anchor="middle" x="1315" y="-646" font-family="Helvetica,Arial,sans-serif" font-size="25.00" fill="#cbd5e1">ResetRequest, StateRequest</text>
<text text-anchor="middle" x="1315" y="-618" font-family="Helvetica,Arial,sans-serif" font-size="25.00" fill="#cbd5e1">ThermalRequest</text>
</g>
<!-- RX -->
<g id="node11" class="node">
<title>RX</title>
<path fill="#b45309" stroke="#f1f5f9" stroke-width="4" d="M988.5,-98C988.5,-98 717.5,-98 717.5,-98 711.5,-98 705.5,-92 705.5,-86 705.5,-86 705.5,-44 705.5,-44 705.5,-38 711.5,-32 717.5,-32 717.5,-32 988.5,-32 988.5,-32 994.5,-32 1000.5,-38 1000.5,-44 1000.5,-44 1000.5,-86 1000.5,-86 1000.5,-92 994.5,-98 988.5,-98"/>
<text text-anchor="start" x="779" y="-69" font-family="Helvetica,Arial,sans-serif" font-weight="bold" font-size="30.00" fill="#ffffff">RX Socket</text>
<text text-anchor="start" x="714.5" y="-43.8" font-family="Helvetica,Arial,sans-serif" font-size="24.00" fill="#ffffff">Port 9001 (SIL Outbound)</text>
</g>
<!-- TX&#45;&gt;RX -->
<!-- RX&#45;&gt;UdpBridge -->
<g id="edge28" class="edge">
<title>RX&#45;&gt;UdpBridge</title>
<path fill="none" stroke="#f1f5f9" stroke-width="5" d="M1014.25,-29.72C1165.86,-6.36 1390.79,0.9 1533,-120 1642.18,-212.83 1697.3,-680.23 1711.34,-817.83"/>
<polygon fill="#f1f5f9" stroke="#f1f5f9" stroke-width="5" points="1013.13,-23.69 1000.27,-31.95 1015.06,-35.79 1013.13,-23.69"/>
<text text-anchor="middle" x="1315" y="-296" font-family="Helvetica,Arial,sans-serif" font-size="25.00" fill="#cbd5e1">Outbound Traffic:</text>
<text text-anchor="middle" x="1315" y="-268" font-family="Helvetica,Arial,sans-serif" font-size="25.00" fill="#cbd5e1">AutoDriveStatus, EnvironmentAck</text>
<text text-anchor="middle" x="1315" y="-240" font-family="Helvetica,Arial,sans-serif" font-size="25.00" fill="#cbd5e1">EnvironmentRequest, KinematicsData</text>
<text text-anchor="middle" x="1315" y="-212" font-family="Helvetica,Arial,sans-serif" font-size="25.00" fill="#cbd5e1">KinematicsRequest, Log</text>
<text text-anchor="middle" x="1315" y="-184" font-family="Helvetica,Arial,sans-serif" font-size="25.00" fill="#cbd5e1">MotorSequence, PowerData</text>
<text text-anchor="middle" x="1315" y="-156" font-family="Helvetica,Arial,sans-serif" font-size="25.00" fill="#cbd5e1">PowerRequest, StateData</text>
<text text-anchor="middle" x="1315" y="-128" font-family="Helvetica,Arial,sans-serif" font-size="25.00" fill="#cbd5e1">ThermalData</text>
</g>
<!-- TestCase -->
<g id="node12" class="node">
<title>TestCase</title>
<path fill="#047857" stroke="#f1f5f9" stroke-width="4" d="M406.5,-177.5C406.5,-177.5 92.5,-177.5 92.5,-177.5 86.5,-177.5 80.5,-171.5 80.5,-165.5 80.5,-165.5 80.5,-140.5 80.5,-140.5 80.5,-134.5 86.5,-128.5 92.5,-128.5 92.5,-128.5 406.5,-128.5 406.5,-128.5 412.5,-128.5 418.5,-134.5 418.5,-140.5 418.5,-140.5 418.5,-165.5 418.5,-165.5 418.5,-171.5 412.5,-177.5 406.5,-177.5"/>
<text text-anchor="start" x="89.5" y="-145.3" font-family="Helvetica,Arial,sans-serif" font-weight="bold" font-size="34.00" fill="#ffffff">Test Case / Fixtures</text>
</g>
<!-- TestCase&#45;&gt;TX -->
<g id="edge2" class="edge">
<title>TestCase&#45;&gt;TX</title>
<path fill="none" stroke="#f1f5f9" stroke-width="5" d="M418.85,-172.03C507.08,-182.01 614.31,-194.13 700,-203.82"/>
<polygon fill="#f1f5f9" stroke="#f1f5f9" stroke-width="5" points="699.5,-209.92 714.1,-205.41 700.88,-197.75 699.5,-209.92"/>
<text text-anchor="middle" x="545.5" y="-200.4" font-family="Helvetica,Arial,sans-serif" font-size="22.00" fill="#cbd5e1">send_msg</text>
</g>
<!-- TestCase&#45;&gt;RX -->
<g id="edge29" class="edge">
<title>TestCase&#45;&gt;RX</title>
<path fill="none" stroke="#f1f5f9" stroke-width="5" d="M431.94,-126.45C519.39,-113.66 622.91,-98.52 705.29,-86.46"/>
<polygon fill="#f1f5f9" stroke="#f1f5f9" stroke-width="5" points="431.02,-120.4 418.05,-128.49 432.79,-132.52 431.02,-120.4"/>
<text text-anchor="middle" x="545.5" y="-123.4" font-family="Helvetica,Arial,sans-serif" font-size="22.00" fill="#cbd5e1">recv_msg</text>
</g>
</g>
</svg>
