<?xml version="1.0" encoding="UTF-8" standalone="no"?>
<!DOCTYPE svg PUBLIC "-//W3C//DTD SVG 1.1//EN"
 "http://www.w3.org/Graphics/SVG/1.1/DTD/svg11.dtd">
<!-- Generated by graphviz version 2.42.4 (0)
 -->
<!-- Title: IPC Pages: 1 -->
<svg width="4267pt" height="1526pt"
 viewBox="0.00 0.00 4266.68 1525.68" xmlns="http://www.w3.org/2000/svg" xmlns:xlink="http://www.w3.org/1999/xlink">
<g id="graph0" class="graph" transform="scale(1 1) rotate(0) translate(15.84 1509.84)">
<title>IPC</title>
<polygon fill="#0f172a" stroke="transparent" points="-15.84,15.84 -15.84,-1509.84 4250.84,-1509.84 4250.84,15.84 -15.84,15.84"/>
<text text-anchor="start" x="1627.5" y="-1449.4" font-family="Helvetica,Arial,sans-serif" font-weight="bold" font-size="52.00" fill="#f1f5f9">System Architecture and Message Flow</text>
<g id="clust1" class="cluster">
<title>cluster_sim</title>
<path fill="#1e293b" stroke="#475569" stroke-width="4" d="M20,-338C20,-338 4215,-338 4215,-338 4221,-338 4227,-344 4227,-350 4227,-350 4227,-1409 4227,-1409 4227,-1415 4221,-1421 4215,-1421 4215,-1421 20,-1421 20,-1421 14,-1421 8,-1415 8,-1409 8,-1409 8,-350 8,-350 8,-344 14,-338 20,-338"/>
<text text-anchor="start" x="2024" y="-1386" font-family="Helvetica,Arial,sans-serif" font-weight="bold" font-size="40.00" fill="#f1f5f9">Simulator</text>
</g>
<g id="clust2" class="cluster">
<title>cluster_sockets</title>
<path fill="#2a1b07" stroke="#f59e0b" stroke-width="6" d="M684.5,-8C684.5,-8 1003.5,-8 1003.5,-8 1009.5,-8 1015.5,-14 1015.5,-20 1015.5,-20 1015.5,-318 1015.5,-318 1015.5,-324 1009.5,-330 1003.5,-330 1003.5,-330 684.5,-330 684.5,-330 678.5,-330 672.5,-324 672.5,-318 672.5,-318 672.5,-20 672.5,-20 672.5,-14 678.5,-8 684.5,-8"/>
<text text-anchor="start" x="704.5" y="-295" font-family="Helvetica,Arial,sans-serif" font-weight="bold" font-size="40.00" fill="#f1f5f9">Network Layer</text>
</g>
<g id="clust4" class="cluster">
<title>cluster_fixtures</title>
<path fill="#0b2a20" stroke="#22c55e" stroke-width="6" d="M68.5,-104C68.5,-104 430.5,-104 430.5,-104 436.5,-104 442.5,-110 442.5,-116 442.5,-116 442.5,-242 442.5,-242 442.5,-248 436.5,-254 430.5,-254 430.5,-254 68.5,-254 68.5,-254 62.5,-254 56.5,-248 56.5,-242 56.5,-242 56.5,-116 56.5,-116 56.5,-110 62.5,-104 68.5,-104"/>
<text text-anchor="start" x="123.5" y="-219" font-family="Helvetica,Arial,sans-serif" font-weight="bold" font-size="40.00" fill="#f1f5f9">Test Harness</text>
</g>
<!-- MotorService -->
<g id="node1" class="node">
<title>MotorService</title>
<path fill="#0369a1" stroke="#f1f5f9" stroke-width="4" d="M445,-1227C445,-1227 54,-1227 54,-1227 48,-1227 42,-1221 42,-1215 42,-1215 42,-1149 42,-1149 42,-1143 48,-1137 54,-1137 54,-1137 445,-1137 445,-1137 451,-1137 457,-1143 457,-1149 457,-1149 457,-1215 457,-1215 457,-1221 451,-1227 445,-1227"/>
<text text-anchor="start" x="154.5" y="-1198" font-family="Helvetica,Arial,sans-serif" font-weight="bold" font-size="30.00" fill="#ffffff">MotorService</text>
<text text-anchor="start" x="51" y="-1172.8" font-family="Helvetica,Arial,sans-serif" font-size="24.00" fill="#ffffff">Reactive service that executes motor</text>
<text text-anchor="start" x="130.5" y="-1148.8" font-family="Helvetica,Arial,sans-serif" font-size="24.00" fill="#ffffff">command sequences.</text>
</g>
<!-- KinematicsService -->
<g id="node2" class="node">
<title>KinematicsService</title>
<path fill="#0369a1" stroke="#f1f5f9" stroke-width="4" d="M1051,-911C1051,-911 637,-911 637,-911 631,-911 625,-905 625,-899 625,-899 625,-809 625,-809 625,-803 631,-797 637,-797 637,-797 1051,-797 1051,-797 1057,-797 1063,-803 1063,-809 1063,-809 1063,-899 1063,-899 1063,-905 1057,-911 1051,-911"/>
<text text-anchor="start" x="711" y="-882" font-family="Helvetica,Arial,sans-serif" font-weight="bold" font-size="30.00" fill="#ffffff">KinematicsService</text>
<text text-anchor="start" x="634" y="-856.8" font-family="Helvetica,Arial,sans-serif" font-size="24.00" fill="#ffffff">Simulates vehicle motion by integrating</text>
<text text-anchor="start" x="641" y="-832.8" font-family="Helvetica,Arial,sans-serif" font-size="24.00" fill="#ffffff">motor RPM over time to track position</text>
<text text-anchor="start" x="744.5" y="-808.8" font-family="Helvetica,Arial,sans-serif" font-size="24.00" fill="#ffffff">and linear velocity.</text>
</g>
<!-- MotorService&#45;&gt;KinematicsService -->
<g id="edge10" class="edge">
<title>MotorService&#45;&gt;KinematicsService</title>
<path fill="none" stroke="#64748b" stroke-width="3" stroke-dasharray="5,2" d="M309.16,-1136.86C380.75,-1083.3 506.88,-993.75 625,-934 636.88,-927.99 649.33,-922.2 661.99,-916.67"/>
<polygon fill="#64748b" stroke="#64748b" stroke-width="3" points="664.3,-921.01 675.25,-911.01 660.45,-912 664.3,-921.01"/>
<text text-anchor="middle" x="541" y="-1020.4" font-family="Helvetica,Arial,sans-serif" font-size="22.00" fill="#cbd5e1">MotorStatus</text>
</g>
<!-- PowerService -->
<g id="node3" class="node">
<title>PowerService</title>
<path fill="#0369a1" stroke="#f1f5f9" stroke-width="4" d="M3565,-1237C3565,-1237 3124,-1237 3124,-1237 3118,-1237 3112,-1231 3112,-1225 3112,-1225 3112,-1159 3112,-1159 3112,-1153 3118,-1147 3124,-1147 3124,-1147 3565,-1147 3565,-1147 3571,-1147 3577,-1153 3577,-1159 3577,-1159 3577,-1225 3577,-1225 3577,-1231 3571,-1237 3565,-1237"/>
<text text-anchor="start" x="3246" y="-1208" font-family="Helvetica,Arial,sans-serif" font-weight="bold" font-size="30.00" fill="#ffffff">PowerService</text>
<text text-anchor="start" x="3121" y="-1182.8" font-family="Helvetica,Arial,sans-serif" font-size="24.00" fill="#ffffff">Models a simple battery pack dynamically</text>
<text text-anchor="start" x="3206.5" y="-1158.8" font-family="Helvetica,Arial,sans-serif" font-size="24.00" fill="#ffffff">responding to motor load.</text>
</g>
<!-- MotorService&#45;&gt;PowerService -->
<g id="edge11" class="edge">
<title>MotorService&#45;&gt;PowerService</title>
<path fill="none" stroke="#64748b" stroke-width="3" stroke-dasharray="5,2" d="M457.36,-1208.81C877.35,-1259.73 1860.13,-1361.09 2685,-1311 2864.66,-1300.09 2910.38,-1296.67 3087,-1262 3116.95,-1256.12 3148.54,-1248.61 3178.93,-1240.7"/>
<polygon fill="#64748b" stroke="#64748b" stroke-width="3" points="3180.51,-1245.35 3192.79,-1237.04 3178.01,-1235.87 3180.51,-1245.35"/>
<text text-anchor="middle" x="1794" y="-1329.4" font-family="Helvetica,Arial,sans-serif" font-size="22.00" fill="#cbd5e1">MotorStatus</text>
</g>
<!-- StateService -->
<g id="node4" class="node">
<title>StateService</title>
<path fill="#0369a1" stroke="#f1f5f9" stroke-width="4" d="M2673,-1288C2673,-1288 2234,-1288 2234,-1288 2228,-1288 2222,-1282 2222,-1276 2222,-1276 2222,-1210 2222,-1210 2222,-1204 2228,-1198 2234,-1198 2234,-1198 2673,-1198 2673,-1198 2679,-1198 2685,-1204 2685,-1210 2685,-1210 2685,-1276 2685,-1276 2685,-1282 2679,-1288 2673,-1288"/>
<text text-anchor="start" x="2363.5" y="-1259" font-family="Helvetica,Arial,sans-serif" font-weight="bold" font-size="30.00" fill="#ffffff">StateService</text>
<text text-anchor="start" x="2265.5" y="-1233.8" font-family="Helvetica,Arial,sans-serif" font-size="24.00" fill="#ffffff">Maintains the central lifecycle state</text>
<text text-anchor="start" x="2231" y="-1209.8" font-family="Helvetica,Arial,sans-serif" font-size="24.00" fill="#ffffff">machine and the master simulation clock.</text>
</g>
<!-- MotorService&#45;&gt;StateService -->
<g id="edge12" class="edge">
<title>MotorService&#45;&gt;StateService</title>
<path fill="none" stroke="#64748b" stroke-width="3" stroke-dasharray="5,2" d="M457.37,-1184.9C621.72,-1185.77 857.32,-1183.82 1063,-1170 1074.17,-1169.25 1076.83,-1167.67 1088,-1167 1281.43,-1155.44 1330.31,-1161.11 1524,-1167 1598.88,-1169.28 2122.45,-1200.63 2197,-1208 2200.56,-1208.35 2204.14,-1208.72 2207.75,-1209.09"/>
<polygon fill="#64748b" stroke="#64748b" stroke-width="3" points="2207.31,-1213.97 2221.75,-1210.59 2208.35,-1204.23 2207.31,-1213.97"/>
<text text-anchor="middle" x="1306" y="-1173.4" font-family="Helvetica,Arial,sans-serif" font-size="22.00" fill="#cbd5e1">MotorStatus</text>
</g>
<!-- UdpBridge -->
<g id="node9" class="node">
<title>UdpBridge</title>
<path fill="#0f766e" stroke="#f1f5f9" stroke-width="4" d="M2027,-915C2027,-915 1561,-915 1561,-915 1555,-915 1549,-909 1549,-903 1549,-903 1549,-799 1549,-799 1549,-793 1555,-787 1561,-787 1561,-787 2027,-787 2027,-787 2033,-787 2039,-793 2039,-799 2039,-799 2039,-903 2039,-903 2039,-909 2033,-915 2027,-915"/>
<text text-anchor="start" x="1696" y="-879.6" font-family="Helvetica,Arial,sans-serif" font-weight="bold" font-size="38.00" fill="#ffffff">UdpBridge</text>
<text text-anchor="start" x="1558" y="-851.2" font-family="Helvetica,Arial,sans-serif" font-size="26.00" fill="#ffffff">Stateful bridge that relays IPC messages</text>
<text text-anchor="start" x="1573.5" y="-825.2" font-family="Helvetica,Arial,sans-serif" font-size="26.00" fill="#ffffff">between the internal MessageBus and</text>
<text text-anchor="start" x="1672.5" y="-799.2" font-family="Helvetica,Arial,sans-serif" font-size="26.00" fill="#ffffff">external UDP clients.</text>
</g>
<!-- KinematicsService&#45;&gt;UdpBridge -->
<g id="edge8" class="edge">
<title>KinematicsService&#45;&gt;UdpBridge</title>
<path fill="none" stroke="#64748b" stroke-width="3" stroke-dasharray="5,2" d="M1063.09,-853.31C1203.57,-852.87 1386.9,-852.29 1534.67,-851.82"/>
<polygon fill="#64748b" stroke="#64748b" stroke-width="3" points="1534.88,-856.72 1548.86,-851.77 1534.85,-846.92 1534.88,-856.72"/>
<text text-anchor="middle" x="1306" y="-859.4" font-family="Helvetica,Arial,sans-serif" font-size="22.00" fill="#cbd5e1">KinematicsData</text>
</g>
<!-- PowerService&#45;&gt;UdpBridge -->
<g id="edge13" class="edge">
<title>PowerService&#45;&gt;UdpBridge</title>
<path fill="none" stroke="#64748b" stroke-width="3" stroke-dasharray="5,2" d="M3157.01,-1146.96C3133.53,-1142.14 3109.76,-1137.66 3087,-1134 2705.66,-1072.62 2566.48,-1224.71 2222,-1050 2207.12,-1042.45 2211.96,-1029.38 2197,-1022 2170.42,-1008.88 2092.25,-1020.96 2064,-1012 2002.16,-992.38 1939.59,-956.13 1890.38,-922.99"/>
<polygon fill="#64748b" stroke="#64748b" stroke-width="3" points="1893.13,-918.93 1878.81,-915.09 1887.61,-927.03 1893.13,-918.93"/>
<text text-anchor="middle" x="2453.5" y="-1143.4" font-family="Helvetica,Arial,sans-serif" font-size="22.00" fill="#cbd5e1">PowerData</text>
</g>
<!-- StateService&#45;&gt;MotorService -->
<g id="edge16" class="edge">
<title>StateService&#45;&gt;MotorService</title>
<path fill="none" stroke="#64748b" stroke-width="3" stroke-dasharray="5,2" d="M2221.85,-1240.23C1853.82,-1235.2 1111.09,-1222.52 482,-1196 478.44,-1195.85 474.84,-1195.69 471.22,-1195.53"/>
<polygon fill="#64748b" stroke="#64748b" stroke-width="3" points="471.37,-1190.63 457.16,-1194.88 470.92,-1200.42 471.37,-1190.63"/>
<text text-anchor="middle" x="1306" y="-1233.4" font-family="Helvetica,Arial,sans-serif" font-size="22.00" fill="#cbd5e1">PhysicsTick</text>
</g>
<!-- StateService&#45;&gt;KinematicsService -->
<g id="edge15" class="edge">
<title>StateService&#45;&gt;KinematicsService</title>
<path fill="none" stroke="#64748b" stroke-width="3" stroke-dasharray="5,2" d="M2296.36,-1197.98C2263.75,-1189.91 2229.43,-1182.36 2197,-1177 2167.76,-1172.16 2090.35,-1180.57 2064,-1167 2048.57,-1159.05 2053.76,-1146.14 2039,-1137 1879.98,-1038.54 1377.39,-942.01 1077.34,-891.08"/>
<polygon fill="#64748b" stroke="#64748b" stroke-width="3" points="1077.83,-886.2 1063.21,-888.69 1076.2,-895.86 1077.83,-886.2"/>
<text text-anchor="middle" x="1794" y="-1143.4" font-family="Helvetica,Arial,sans-serif" font-size="22.00" fill="#cbd5e1">PhysicsTick</text>
</g>
<!-- StateService&#45;&gt;PowerService -->
<g id="edge17" class="edge">
<title>StateService&#45;&gt;PowerService</title>
<path fill="none" stroke="#64748b" stroke-width="3" stroke-dasharray="5,2" d="M2685.17,-1229.77C2811.88,-1222.5 2969,-1213.48 3097.97,-1206.09"/>
<polygon fill="#64748b" stroke="#64748b" stroke-width="3" points="3098.26,-1210.98 3111.96,-1205.28 3097.7,-1201.19 3098.26,-1210.98"/>
<text text-anchor="middle" x="2898.5" y="-1233.4" font-family="Helvetica,Arial,sans-serif" font-size="22.00" fill="#cbd5e1">PhysicsTick</text>
</g>
<!-- ThermalService -->
<g id="node5" class="node">
<title>ThermalService</title>
<path fill="#0369a1" stroke="#f1f5f9" stroke-width="4" d="M3525,-555C3525,-555 3164,-555 3164,-555 3158,-555 3152,-549 3152,-543 3152,-543 3152,-477 3152,-477 3152,-471 3158,-465 3164,-465 3164,-465 3525,-465 3525,-465 3531,-465 3537,-471 3537,-477 3537,-477 3537,-543 3537,-543 3537,-549 3531,-555 3525,-555"/>
<text text-anchor="start" x="3233" y="-526" font-family="Helvetica,Arial,sans-serif" font-weight="bold" font-size="30.00" fill="#ffffff">ThermalService</text>
<text text-anchor="start" x="3161" y="-500.8" font-family="Helvetica,Arial,sans-serif" font-size="24.00" fill="#ffffff">Simulates basic motor and battery</text>
<text text-anchor="start" x="3221" y="-476.8" font-family="Helvetica,Arial,sans-serif" font-size="24.00" fill="#ffffff">temperature dynamics.</text>
</g>
<!-- StateService&#45;&gt;ThermalService -->
<g id="edge18" class="edge">
<title>StateService&#45;&gt;ThermalService</title>
<path fill="none" stroke="#64748b" stroke-width="3" stroke-dasharray="5,2" d="M2646.58,-1197.98C2661.11,-1188.69 2674.27,-1177.49 2685,-1164 2752.04,-1079.73 2650.99,-1013.08 2710,-923 2815.46,-762.02 2926.9,-816.79 3087,-710 3155.27,-664.46 3228.7,-606.17 3279.42,-564.28"/>
<polygon fill="#64748b" stroke="#64748b" stroke-width="3" points="3282.56,-568.04 3290.21,-555.33 3276.3,-560.5 3282.56,-568.04"/>
<text text-anchor="middle" x="2898.5" y="-929.4" font-family="Helvetica,Arial,sans-serif" font-size="22.00" fill="#cbd5e1">PhysicsTick</text>
</g>
<!-- AutonomousService -->
<g id="node7" class="node">
<title>AutonomousService</title>
<path fill="#0369a1" stroke="#f1f5f9" stroke-width="4" d="M3546,-845C3546,-845 3143,-845 3143,-845 3137,-845 3131,-839 3131,-833 3131,-833 3131,-767 3131,-767 3131,-761 3137,-755 3143,-755 3143,-755 3546,-755 3546,-755 3552,-755 3558,-761 3558,-767 3558,-767 3558,-833 3558,-833 3558,-839 3552,-845 3546,-845"/>
<text text-anchor="start" x="3199.5" y="-816" font-family="Helvetica,Arial,sans-serif" font-weight="bold" font-size="30.00" fill="#ffffff">AutonomousService</text>
<text text-anchor="start" x="3140" y="-790.8" font-family="Helvetica,Arial,sans-serif" font-size="24.00" fill="#ffffff">High&#45;level autonomous driving service</text>
<text text-anchor="start" x="3158" y="-766.8" font-family="Helvetica,Arial,sans-serif" font-size="24.00" fill="#ffffff">executing a waypoint (node) route.</text>
</g>
<!-- StateService&#45;&gt;AutonomousService -->
<g id="edge14" class="edge">
<title>StateService&#45;&gt;AutonomousService</title>
<path fill="none" stroke="#64748b" stroke-width="3" stroke-dasharray="5,2" d="M2598.63,-1197.94C2627.59,-1187.68 2657.55,-1176.18 2685,-1164 2899.14,-1068.99 3136.42,-928.46 3259.33,-852.81"/>
<polygon fill="#64748b" stroke="#64748b" stroke-width="3" points="3262.24,-856.78 3271.58,-845.25 3257.09,-848.44 3262.24,-856.78"/>
<text text-anchor="middle" x="2898.5" y="-1153.4" font-family="Helvetica,Arial,sans-serif" font-size="22.00" fill="#cbd5e1">PhysicsTick</text>
</g>
<!-- StateService&#45;&gt;UdpBridge -->
<g id="edge19" class="edge">
<title>StateService&#45;&gt;UdpBridge</title>
<path fill="none" stroke="#64748b" stroke-width="3" stroke-dasharray="5,2" d="M2265.09,-1197.98C2249.09,-1188.7 2234.34,-1177.5 2222,-1164 2190.51,-1129.55 2228.79,-1096.18 2197,-1062 2154.69,-1016.51 2120.33,-1045.21 2064,-1019 2006.35,-992.18 1945.98,-955.37 1897.06,-923.04"/>
<polygon fill="#64748b" stroke="#64748b" stroke-width="3" points="1899.57,-918.83 1885.21,-915.14 1894.14,-926.98 1899.57,-918.83"/>
<text text-anchor="middle" x="2130.5" y="-1068.4" font-family="Helvetica,Arial,sans-serif" font-size="22.00" fill="#cbd5e1">StateData</text>
</g>
<!-- ThermalService&#45;&gt;UdpBridge -->
<g id="edge20" class="edge">
<title>ThermalService&#45;&gt;UdpBridge</title>
<path fill="none" stroke="#64748b" stroke-width="3" stroke-dasharray="5,2" d="M3151.99,-477.56C2891,-442.83 2415.85,-414.03 2064,-589 1976.49,-632.52 1899.22,-714.92 1850.21,-775.74"/>
<polygon fill="#64748b" stroke="#64748b" stroke-width="3" points="1846.27,-772.82 1841.39,-786.83 1853.94,-778.92 1846.27,-772.82"/>
<text text-anchor="middle" x="2453.5" y="-531.4" font-family="Helvetica,Arial,sans-serif" font-size="22.00" fill="#cbd5e1">ThermalData</text>
</g>
<!-- EnvironmentService -->
<g id="node6" class="node">
<title>EnvironmentService</title>
<path fill="#0369a1" stroke="#f1f5f9" stroke-width="4" d="M4181,-745C4181,-745 3832,-745 3832,-745 3826,-745 3820,-739 3820,-733 3820,-733 3820,-667 3820,-667 3820,-661 3826,-655 3832,-655 3832,-655 4181,-655 4181,-655 4187,-655 4193,-661 4193,-667 4193,-667 4193,-733 4193,-733 4193,-739 4187,-745 4181,-745"/>
<text text-anchor="start" x="3862" y="-716" font-family="Helvetica,Arial,sans-serif" font-weight="bold" font-size="30.00" fill="#ffffff">EnvironmentService</text>
<text text-anchor="start" x="3829" y="-690.8" font-family="Helvetica,Arial,sans-serif" font-size="24.00" fill="#ffffff">Centralized service for managing</text>
<text text-anchor="start" x="3842" y="-666.8" font-family="Helvetica,Arial,sans-serif" font-size="24.00" fill="#ffffff">environmental simulation data.</text>
</g>
<!-- EnvironmentService&#45;&gt;AutonomousService -->
<g id="edge6" class="edge">
<title>EnvironmentService&#45;&gt;AutonomousService</title>
<path fill="none" stroke="#64748b" stroke-width="3" stroke-dasharray="5,2" d="M3826.4,-745.04C3815.8,-747.2 3805.28,-749.2 3795,-751 3722.96,-763.6 3643.82,-773.52 3572.29,-781.04"/>
<polygon fill="#64748b" stroke="#64748b" stroke-width="3" points="3571.51,-776.19 3558.09,-782.51 3572.52,-785.94 3571.51,-776.19"/>
<text text-anchor="middle" x="3698.5" y="-782.4" font-family="Helvetica,Arial,sans-serif" font-size="22.00" fill="#cbd5e1">InternalEnvData</text>
</g>
<!-- EnvironmentService&#45;&gt;UdpBridge -->
<g id="edge7" class="edge">
<title>EnvironmentService&#45;&gt;UdpBridge</title>
<path fill="none" stroke="#64748b" stroke-width="3" stroke-dasharray="5,2" d="M3819.91,-680.21C3493.49,-650.08 2796.7,-606.69 2222,-713 2138.26,-728.49 2048.18,-755.91 1972.44,-782.25"/>
<polygon fill="#64748b" stroke="#64748b" stroke-width="3" points="1970.55,-777.73 1958.96,-786.98 1973.79,-786.97 1970.55,-777.73"/>
<text text-anchor="middle" x="2898.5" y="-661.4" font-family="Helvetica,Arial,sans-serif" font-size="22.00" fill="#cbd5e1">EnvironmentAck, EnvironmentRequest</text>
</g>
<!-- AutonomousService&#45;&gt;EnvironmentService -->
<g id="edge4" class="edge">
<title>AutonomousService&#45;&gt;EnvironmentService</title>
<path fill="none" stroke="#64748b" stroke-width="3" stroke-dasharray="5,2" d="M3467.87,-754.92C3509.84,-741.32 3557.45,-727.92 3602,-720 3667.7,-708.32 3740.3,-702.56 3805.6,-699.93"/>
<polygon fill="#64748b" stroke="#64748b" stroke-width="3" points="3806.04,-704.82 3819.85,-699.4 3805.67,-695.03 3806.04,-704.82"/>
<text text-anchor="middle" x="3698.5" y="-726.4" font-family="Helvetica,Arial,sans-serif" font-size="22.00" fill="#cbd5e1">InternalEnvRequest</text>
</g>
<!-- AutonomousService&#45;&gt;UdpBridge -->
<g id="edge5" class="edge">
<title>AutonomousService&#45;&gt;UdpBridge</title>
<path fill="none" stroke="#64748b" stroke-width="3" stroke-dasharray="5,2" d="M3160.04,-754.97C3135.61,-750.44 3110.79,-746.57 3087,-744 2704.56,-702.74 2603.89,-726.94 2222,-773 2167.17,-779.61 2108.73,-788.83 2053.26,-798.62"/>
<polygon fill="#64748b" stroke="#64748b" stroke-width="3" points="2052.14,-793.84 2039.22,-801.12 2053.86,-803.49 2052.14,-793.84"/>
<text text-anchor="middle" x="2453.5" y="-803.4" font-family="Helvetica,Arial,sans-serif" font-size="22.00" fill="#cbd5e1">AutoDriveStatus, KinematicsRequest</text>
<text text-anchor="middle" x="2453.5" y="-779.4" font-family="Helvetica,Arial,sans-serif" font-size="22.00" fill="#cbd5e1">MotorSequence, PowerRequest</text>
</g>
<!-- LogService -->
<g id="node8" class="node">
<title>LogService</title>
<path fill="#0369a1" stroke="#f1f5f9" stroke-width="4" d="M988.5,-1022C988.5,-1022 699.5,-1022 699.5,-1022 693.5,-1022 687.5,-1016 687.5,-1010 687.5,-1010 687.5,-968 687.5,-968 687.5,-962 693.5,-956 699.5,-956 699.5,-956 988.5,-956 988.5,-956 994.5,-956 1000.5,-962 1000.5,-968 1000.5,-968 1000.5,-1010 1000.5,-1010 1000.5,-1016 994.5,-1022 988.5,-1022"/>
<text text-anchor="start" x="763.5" y="-993" font-family="Helvetica,Arial,sans-serif" font-weight="bold" font-size="30.00" fill="#ffffff">LogService</text>
<text text-anchor="start" x="696.5" y="-967.8" font-family="Helvetica,Arial,sans-serif" font-size="24.00" fill="#ffffff">Asynchronous logging sink.</text>
</g>
<!-- LogService&#45;&gt;UdpBridge -->
<g id="edge9" class="edge">
<title>LogService&#45;&gt;UdpBridge</title>
<path fill="none" stroke="#64748b" stroke-width="3" stroke-dasharray="5,2" d="M1000.75,-966.33C1145.45,-945.26 1363.71,-913.49 1534.52,-888.63"/>
<polygon fill="#64748b" stroke="#64748b" stroke-width="3" points="1535.4,-893.45 1548.55,-886.58 1533.99,-883.75 1535.4,-893.45"/>
<text text-anchor="middle" x="1306" y="-957.4" font-family="Helvetica,Arial,sans-serif" font-size="22.00" fill="#cbd5e1">Log</text>
</g>
<!-- UdpBridge&#45;&gt;MotorService -->
<g id="edge24" class="edge">
<title>UdpBridge&#45;&gt;MotorService</title>
<path fill="none" stroke="#64748b" stroke-width="3" stroke-dasharray="5,2" d="M1684.72,-915.07C1636.91,-940.77 1579.13,-968.41 1524,-986 1332.48,-1047.12 782.13,-1119.03 471.23,-1156.45"/>
<polygon fill="#64748b" stroke="#64748b" stroke-width="3" points="470.38,-1151.62 457.06,-1158.15 471.55,-1161.35 470.38,-1151.62"/>
<text text-anchor="middle" x="844" y="-1141.4" font-family="Helvetica,Arial,sans-serif" font-size="22.00" fill="#cbd5e1">MotorSequence</text>
</g>
<!-- UdpBridge&#45;&gt;KinematicsService -->
<g id="edge23" class="edge">
<title>UdpBridge&#45;&gt;KinematicsService</title>
<path fill="none" stroke="#64748b" stroke-width="3" stroke-dasharray="5,2" d="M1548.65,-817.83C1540.34,-817.14 1532.11,-816.53 1524,-816 1330.63,-803.47 1281.2,-800.99 1088,-816 1084.41,-816.28 1080.8,-816.58 1077.17,-816.9"/>
<polygon fill="#64748b" stroke="#64748b" stroke-width="3" points="1076.53,-812.04 1063.06,-818.25 1077.46,-821.8 1076.53,-812.04"/>
<text text-anchor="middle" x="1306" y="-822.4" font-family="Helvetica,Arial,sans-serif" font-size="22.00" fill="#cbd5e1">KinematicsRequest</text>
</g>
<!-- UdpBridge&#45;&gt;PowerService -->
<g id="edge25" class="edge">
<title>UdpBridge&#45;&gt;PowerService</title>
<path fill="none" stroke="#64748b" stroke-width="3" stroke-dasharray="5,2" d="M2019.76,-915.01C2084.62,-931.81 2155.77,-948.67 2222,-961 2425.67,-998.93 2480.83,-979.84 2685,-1015 2865.63,-1046.11 2910.48,-1057.67 3087,-1107 3124.52,-1117.49 3164.7,-1130.11 3201.85,-1142.39"/>
<polygon fill="#64748b" stroke="#64748b" stroke-width="3" points="3200.56,-1147.13 3215.39,-1146.89 3203.65,-1137.83 3200.56,-1147.13"/>
<text text-anchor="middle" x="2453.5" y="-1021.4" font-family="Helvetica,Arial,sans-serif" font-size="22.00" fill="#cbd5e1">PowerRequest</text>
</g>
<!-- UdpBridge&#45;&gt;StateService -->
<g id="edge26" class="edge">
<title>UdpBridge&#45;&gt;StateService</title>
<path fill="none" stroke="#64748b" stroke-width="3" stroke-dasharray="5,2" d="M1932.35,-915.05C1971.55,-939.07 2011.14,-969.76 2039,-1007 2062.85,-1038.87 2036.28,-1064.44 2064,-1093 2107.27,-1137.58 2144.94,-1102.09 2197,-1136 2210.98,-1145.11 2208.1,-1154.77 2222,-1164 2238.1,-1174.69 2255.8,-1184.08 2274,-1192.29"/>
<polygon fill="#64748b" stroke="#64748b" stroke-width="3" points="2272.21,-1196.86 2287.01,-1197.93 2276.11,-1187.87 2272.21,-1196.86"/>
<text text-anchor="middle" x="2130.5" y="-1142.4" font-family="Helvetica,Arial,sans-serif" font-size="22.00" fill="#cbd5e1">StateRequest</text>
</g>
<!-- UdpBridge&#45;&gt;ThermalService -->
<g id="edge27" class="edge">
<title>UdpBridge&#45;&gt;ThermalService</title>
<path fill="none" stroke="#64748b" stroke-width="3" stroke-dasharray="5,2" d="M1829.96,-786.64C1892.05,-680.81 2033.03,-475.86 2222,-417 2554.99,-313.28 2968.91,-399.43 3188.97,-461.09"/>
<polygon fill="#64748b" stroke="#64748b" stroke-width="3" points="3187.73,-465.83 3202.54,-464.93 3190.4,-456.4 3187.73,-465.83"/>
<text text-anchor="middle" x="2453.5" y="-423.4" font-family="Helvetica,Arial,sans-serif" font-size="22.00" fill="#cbd5e1">EnvironmentData, ThermalRequest</text>
</g>
<!-- UdpBridge&#45;&gt;EnvironmentService -->
<g id="edge22" class="edge">
<title>UdpBridge&#45;&gt;EnvironmentService</title>
<path fill="none" stroke="#64748b" stroke-width="3" stroke-dasharray="5,2" d="M1895.5,-786.84C1979.15,-737.5 2103.32,-673.45 2222,-647 2809.83,-515.98 2976.05,-594.48 3577,-634 3674.01,-640.38 3698.92,-637.16 3795,-652 3798.57,-652.55 3802.16,-653.13 3805.78,-653.73"/>
<polygon fill="#64748b" stroke="#64748b" stroke-width="3" points="3805.19,-658.6 3819.82,-656.16 3806.86,-648.94 3805.19,-658.6"/>
<text text-anchor="middle" x="2898.5" y="-596.4" font-family="Helvetica,Arial,sans-serif" font-size="22.00" fill="#cbd5e1">EnvironmentData</text>
</g>
<!-- UdpBridge&#45;&gt;AutonomousService -->
<g id="edge21" class="edge">
<title>UdpBridge&#45;&gt;AutonomousService</title>
<path fill="none" stroke="#64748b" stroke-width="3" stroke-dasharray="5,2" d="M2039.22,-877.05C2300.01,-899.73 2724.75,-921.88 3087,-872 3122.7,-867.08 3160.42,-858.49 3195.64,-848.92"/>
<polygon fill="#64748b" stroke="#64748b" stroke-width="3" points="3197.34,-853.53 3209.52,-845.06 3194.72,-844.09 3197.34,-853.53"/>
<text text-anchor="middle" x="2453.5" y="-932.4" font-family="Helvetica,Arial,sans-serif" font-size="22.00" fill="#cbd5e1">AutoDriveCommand, KinematicsData</text>
<text text-anchor="middle" x="2453.5" y="-908.4" font-family="Helvetica,Arial,sans-serif" font-size="22.00" fill="#cbd5e1">PowerData</text>
</g>
<!-- TX -->
<g id="node10" class="node">
<title>TX</title>
<path fill="#b45309" stroke="#f1f5f9" stroke-width="4" d="M970.5,-254C970.5,-254 717.5,-254 717.5,-254 711.5,-254 705.5,-248 705.5,-242 705.5,-242 705.5,-200 705.5,-200 705.5,-194 711.5,-188 717.5,-188 717.5,-188 970.5,-188 970.5,-188 976.5,-188 982.5,-194 982.5,-200 982.5,-200 982.5,-242 982.5,-242 982.5,-248 976.5,-254 970.5,-254"/>
<text text-anchor="start" x="771.5" y="-225" font-family="Helvetica,Arial,sans-serif" font-weight="bold" font-size="30.00" fill="#ffffff">TX Socket</text>
<text text-anchor="start" x="714.5" y="-199.8" font-family="Helvetica,Arial,sans-serif" font-size="24.00" fill="#ffffff">Port 9000 (SIL Inbound)</text>
</g>
<!-- TX&#45;&gt;UdpBridge -->
<g id="edge3" class="edge">
<title>TX&#45;&gt;UdpBridge</title>
<path fill="none" stroke="#f1f5f9" stroke-width="5" d="M945.98,-254.06C986.08,-271 1030.33,-294.95 1063,-327 1080.45,-344.12 1071.14,-358.3 1088,-376 1242.04,-537.76 1340.73,-498.29 1524,-626 1590.59,-672.41 1660.78,-731.5 1712.76,-777.48"/>
<polygon fill="#f1f5f9" stroke="#f1f5f9" stroke-width="5" points="1708.7,-782.06 1723.23,-786.78 1716.84,-772.91 1708.7,-782.06"/>
<text text-anchor="middle" x="1306" y="-774" font-family="Helvetica,Arial,sans-serif" font-size="25.00" fill="#cbd5e1">Inbound Traffic:</text>
<text text-anchor="middle" x="1306" y="-746" font-family="Helvetica,Arial,sans-serif" font-size="25.00" fill="#cbd5e1">AutoDriveCommand, EnvironmentData</text>
<text text-anchor="middle" x="1306" y="-718" font-family="Helvetica,Arial,sans-serif" font-size="25.00" fill="#cbd5e1">KinematicsData, KinematicsRequest</text>
<text text-anchor="middle" x="1306" y="-690" font-family="Helvetica,Arial,sans-serif" font-size="25.00" fill="#cbd5e1">MotorSequence, PowerData</text>
<text text-anchor="middle" x="1306" y="-662" font-family="Helvetica,Arial,sans-serif" font-size="25.00" fill="#cbd5e1">PowerRequest, StateRequest</text>
<text text-anchor="middle" x="1306" y="-634" font-family="Helvetica,Arial,sans-serif" font-size="25.00" fill="#cbd5e1">ThermalRequest</text>
</g>
<!-- RX -->
<g id="node11" class="node">
<title>RX</title>
<path fill="#b45309" stroke="#f1f5f9" stroke-width="4" d="M979.5,-98C979.5,-98 708.5,-98 708.5,-98 702.5,-98 696.5,-92 696.5,-86 696.5,-86 696.5,-44 696.5,-44 696.5,-38 702.5,-32 708.5,-32 708.5,-32 979.5,-32 979.5,-32 985.5,-32 991.5,-38 991.5,-44 991.5,-44 991.5,-86 991.5,-86 991.5,-92 985.5,-98 979.5,-98"/>
<text text-anchor="start" x="770" y="-69" font-family="Helvetica,Arial,sans-serif" font-weight="bold" font-size="30.00" fill="#ffffff">RX Socket</text>
<text text-anchor="start" x="705.5" y="-43.8" font-family="Helvetica,Arial,sans-serif" font-size="24.00" fill="#ffffff">Port 9001 (SIL Outbound)</text>
</g>
<!-- TX&#45;&gt;RX -->
<!-- RX&#45;&gt;UdpBridge -->
<g id="edge28" class="edge">
<title>RX&#45;&gt;UdpBridge</title>
<path fill="none" stroke="#f1f5f9" stroke-width="5" d="M1005.97,-47.21C1155.95,-39.59 1377.83,-52.35 1524,-169 1721.35,-326.49 1774.37,-649.43 1788.25,-786.83"/>
<polygon fill="#f1f5f9" stroke="#f1f5f9" stroke-width="5" points="1005.32,-41.11 991.68,-48 1006,-53.34 1005.32,-41.11"/>
<text text-anchor="middle" x="1306" y="-345" font-family="Helvetica,Arial,sans-serif" font-size="25.00" fill="#cbd5e1">Outbound Traffic:</text>
<text text-anchor="middle" x="1306" y="-317" font-family="Helvetica,Arial,sans-serif" font-size="25.00" fill="#cbd5e1">AutoDriveStatus, EnvironmentAck</text>
<text text-anchor="middle" x="1306" y="-289" font-family="Helvetica,Arial,sans-serif" font-size="25.00" fill="#cbd5e1">EnvironmentRequest, KinematicsData</text>
<text text-anchor="middle" x="1306" y="-261" font-family="Helvetica,Arial,sans-serif" font-size="25.00" fill="#cbd5e1">KinematicsRequest, Log</text>
<text text-anchor="middle" x="1306" y="-233" font-family="Helvetica,Arial,sans-serif" font-size="25.00" fill="#cbd5e1">MotorSequence, PowerData</text>
<text text-anchor="middle" x="1306" y="-205" font-family="Helvetica,Arial,sans-serif" font-size="25.00" fill="#cbd5e1">PowerRequest, StateData</text>
<text text-anchor="middle" x="1306" y="-177" font-family="Helvetica,Arial,sans-serif" font-size="25.00" fill="#cbd5e1">ThermalData</text>
</g>
<!-- TestCase -->
<g id="node12" class="node">
<title>TestCase</title>
<path fill="#047857" stroke="#f1f5f9" stroke-width="4" d="M406.5,-177.5C406.5,-177.5 92.5,-177.5 92.5,-177.5 86.5,-177.5 80.5,-171.5 80.5,-165.5 80.5,-165.5 80.5,-140.5 80.5,-140.5 80.5,-134.5 86.5,-128.5 92.5,-128.5 92.5,-128.5 406.5,-128.5 406.5,-128.5 412.5,-128.5 418.5,-134.5 418.5,-140.5 418.5,-140.5 418.5,-165.5 418.5,-165.5 418.5,-171.5 412.5,-177.5 406.5,-177.5"/>
<text text-anchor="start" x="89.5" y="-145.3" font-family="Helvetica,Arial,sans-serif" font-weight="bold" font-size="34.00" fill="#ffffff">Test Case / Fixtures</text>
</g>
<!-- TestCase&#45;&gt;TX -->
<g id="edge2" class="edge">
<title>TestCase&#45;&gt;TX</title>
<path fill="none" stroke="#f1f5f9" stroke-width="5" d="M418.7,-172.3C504.5,-182.15 608.03,-194.03 691.35,-203.6"/>
<polygon fill="#f1f5f9" stroke="#f1f5f9" stroke-width="5" points="690.73,-209.69 705.33,-205.2 692.12,-197.52 690.73,-209.69"/>
<text text-anchor="middle" x="541" y="-200.4" font-family="Helvetica,Arial,sans-serif" font-size="22.00" fill="#cbd5e1">send_msg</text>
</g>
<!-- TestCase&#45;&gt;RX -->
<g id="edge29" class="edge">
<title>TestCase&#45;&gt;RX</title>
<path fill="none" stroke="#f1f5f9" stroke-width="5" d="M429.62,-126.4C514.81,-113.74 615.39,-98.81 696.01,-86.83"/>
<polygon fill="#f1f5f9" stroke="#f1f5f9" stroke-width="5" points="428.49,-120.37 415.54,-128.49 430.29,-132.49 428.49,-120.37"/>
<text text-anchor="middle" x="541" y="-123.4" font-family="Helvetica,Arial,sans-serif" font-size="22.00" fill="#cbd5e1">recv_msg</text>
</g>
</g>
</svg>
