<?xml version="1.0" encoding="UTF-8" standalone="no"?>
<!DOCTYPE svg PUBLIC "-//W3C//DTD SVG 1.1//EN"
 "http://www.w3.org/Graphics/SVG/1.1/DTD/svg11.dtd">
<!-- Generated by graphviz version 2.42.4 (0)
 -->
<!-- Title: IPC Pages: 1 -->
<svg width="4093pt" height="1550pt"
 viewBox="0.00 0.00 4092.68 1549.68" xmlns="http://www.w3.org/2000/svg" xmlns:xlink="http://www.w3.org/1999/xlink">
<g id="graph0" class="graph" transform="scale(1 1) rotate(0) translate(15.84 1533.84)">
<title>IPC</title>
<polygon fill="#0f172a" stroke="transparent" points="-15.84,15.84 -15.84,-1533.84 4076.84,-1533.84 4076.84,15.84 -15.84,15.84"/>
<text text-anchor="start" x="1540.5" y="-1473.4" font-family="Helvetica,Arial,sans-serif" font-weight="bold" font-size="52.00" fill="#f1f5f9">System Architecture and Message Flow</text>
<g id="clust1" class="cluster">
<title>cluster_sim</title>
<path fill="#1e293b" stroke="#475569" stroke-width="4" d="M20,-338C20,-338 4041,-338 4041,-338 4047,-338 4053,-344 4053,-350 4053,-350 4053,-1433 4053,-1433 4053,-1439 4047,-1445 4041,-1445 4041,-1445 20,-1445 20,-1445 14,-1445 8,-1439 8,-1433 8,-1433 8,-350 8,-350 8,-344 14,-338 20,-338"/>
<text text-anchor="start" x="1937" y="-1410" font-family="Helvetica,Arial,sans-serif" font-weight="bold" font-size="40.00" fill="#f1f5f9">Simulator</text>
</g>
<g id="clust2" class="cluster">
<title>cluster_sockets</title>
<path fill="#2a1b07" stroke="#f59e0b" stroke-width="6" d="M684.5,-8C684.5,-8 1003.5,-8 1003.5,-8 1009.5,-8 1015.5,-14 1015.5,-20 1015.5,-20 1015.5,-318 1015.5,-318 1015.5,-324 1009.5,-330 1003.5,-330 1003.5,-330 684.5,-330 684.5,-330 678.5,-330 672.5,-324 672.5,-318 672.5,-318 672.5,-20 672.5,-20 672.5,-14 678.5,-8 684.5,-8"/>
<text text-anchor="start" x="704.5" y="-295" font-family="Helvetica,Arial,sans-serif" font-weight="bold" font-size="40.00" fill="#f1f5f9">Network Layer</text>
</g>
<g id="clust4" class="cluster">
<title>cluster_fixtures</title>
<path fill="#0b2a20" stroke="#22c55e" stroke-width="6" d="M68.5,-104C68.5,-104 430.5,-104 430.5,-104 436.5,-104 442.5,-110 442.5,-116 442.5,-116 442.5,-242 442.5,-242 442.5,-248 436.5,-254 430.5,-254 430.5,-254 68.5,-254 68.5,-254 62.5,-254 56.5,-248 56.5,-242 56.5,-242 56.5,-116 56.5,-116 56.5,-110 62.5,-104 68.5,-104"/>
<text text-anchor="start" x="123.5" y="-219" font-family="Helvetica,Arial,sans-serif" font-weight="bold" font-size="40.00" fill="#f1f5f9">Test Harness</text>
</g>
<!-- MotorService -->
<g id="node1" class="node">
<title>MotorService</title>
<path fill="#0369a1" stroke="#f1f5f9" stroke-width="4" d="M445,-1250C445,-1250 54,-1250 54,-1250 48,-1250 42,-1244 42,-1238 42,-1238 42,-1172 42,-1172 42,-1166 48,-1160 54,-1160 54,-1160 445,-1160 445,-1160 451,-1160 457,-1166 457,-1172 457,-1172 457,-1238 457,-1238 457,-1244 451,-1250 445,-1250"/>
<text text-anchor="start" x="154.5" y="-1221" font-family="Helvetica,Arial,sans-serif" font-weight="bold" font-size="30.00" fill="#ffffff">MotorService</text>
<text text-anchor="start" x="51" y="-1195.8" font-family="Helvetica,Arial,sans-serif" font-size="24.00" fill="#ffffff">Reactive service that executes motor</text>
<text text-anchor="start" x="130.5" y="-1171.8" font-family="Helvetica,Arial,sans-serif" font-size="24.00" fill="#ffffff">command sequences.</text>
</g>
<!-- KinematicsService -->
<g id="node2" class="node">
<title>KinematicsService</title>
<path fill="#0369a1" stroke="#f1f5f9" stroke-width="4" d="M1051,-934C1051,-934 637,-934 637,-934 631,-934 625,-928 625,-922 625,-922 625,-832 625,-832 625,-826 631,-820 637,-820 637,-820 1051,-820 1051,-820 1057,-820 1063,-826 1063,-832 1063,-832 1063,-922 1063,-922 1063,-928 1057,-934 1051,-934"/>
<text text-anchor="start" x="711" y="-905" font-family="Helvetica,Arial,sans-serif" font-weight="bold" font-size="30.00" fill="#ffffff">KinematicsService</text>
<text text-anchor="start" x="634" y="-879.8" font-family="Helvetica,Arial,sans-serif" font-size="24.00" fill="#ffffff">Simulates vehicle motion by integrating</text>
<text text-anchor="start" x="641" y="-855.8" font-family="Helvetica,Arial,sans-serif" font-size="24.00" fill="#ffffff">motor RPM over time to track position</text>
<text text-anchor="start" x="744.5" y="-831.8" font-family="Helvetica,Arial,sans-serif" font-size="24.00" fill="#ffffff">and linear velocity.</text>
</g>
<!-- MotorService&#45;&gt;KinematicsService -->
<g id="edge10" class="edge">
<title>MotorService&#45;&gt;KinematicsService</title>
<path fill="none" stroke="#64748b" stroke-width="3" stroke-dasharray="5,2" d="M309.16,-1159.86C380.75,-1106.3 506.88,-1016.75 625,-957 636.88,-950.99 649.33,-945.2 661.99,-939.67"/>
<polygon fill="#64748b" stroke="#64748b" stroke-width="3" points="664.3,-944.01 675.25,-934.01 660.45,-935 664.3,-944.01"/>
<text text-anchor="middle" x="541" y="-1043.4" font-family="Helvetica,Arial,sans-serif" font-size="22.00" fill="#cbd5e1">MotorStatus</text>
</g>
<!-- PowerService -->
<g id="node3" class="node">
<title>PowerService</title>
<path fill="#0369a1" stroke="#f1f5f9" stroke-width="4" d="M3391,-1260C3391,-1260 2950,-1260 2950,-1260 2944,-1260 2938,-1254 2938,-1248 2938,-1248 2938,-1182 2938,-1182 2938,-1176 2944,-1170 2950,-1170 2950,-1170 3391,-1170 3391,-1170 3397,-1170 3403,-1176 3403,-1182 3403,-1182 3403,-1248 3403,-1248 3403,-1254 3397,-1260 3391,-1260"/>
<text text-anchor="start" x="3072" y="-1231" font-family="Helvetica,Arial,sans-serif" font-weight="bold" font-size="30.00" fill="#ffffff">PowerService</text>
<text text-anchor="start" x="2947" y="-1205.8" font-family="Helvetica,Arial,sans-serif" font-size="24.00" fill="#ffffff">Models a simple battery pack dynamically</text>
<text text-anchor="start" x="3032.5" y="-1181.8" font-family="Helvetica,Arial,sans-serif" font-size="24.00" fill="#ffffff">responding to motor load.</text>
</g>
<!-- MotorService&#45;&gt;PowerService -->
<g id="edge11" class="edge">
<title>MotorService&#45;&gt;PowerService</title>
<path fill="none" stroke="#64748b" stroke-width="3" stroke-dasharray="5,2" d="M457.01,-1233.2C854.63,-1283.87 1754.21,-1380.95 2511,-1335 2690.66,-1324.09 2736.45,-1320.99 2913,-1286 2943.8,-1279.9 2976.31,-1272.03 3007.47,-1263.77"/>
<polygon fill="#64748b" stroke="#64748b" stroke-width="3" points="3008.95,-1268.44 3021.2,-1260.08 3006.41,-1258.98 3008.95,-1268.44"/>
<text text-anchor="middle" x="1707" y="-1350.4" font-family="Helvetica,Arial,sans-serif" font-size="22.00" fill="#cbd5e1">MotorStatus</text>
</g>
<!-- StateService -->
<g id="node4" class="node">
<title>StateService</title>
<path fill="#0369a1" stroke="#f1f5f9" stroke-width="4" d="M2499,-1312C2499,-1312 2060,-1312 2060,-1312 2054,-1312 2048,-1306 2048,-1300 2048,-1300 2048,-1234 2048,-1234 2048,-1228 2054,-1222 2060,-1222 2060,-1222 2499,-1222 2499,-1222 2505,-1222 2511,-1228 2511,-1234 2511,-1234 2511,-1300 2511,-1300 2511,-1306 2505,-1312 2499,-1312"/>
<text text-anchor="start" x="2189.5" y="-1283" font-family="Helvetica,Arial,sans-serif" font-weight="bold" font-size="30.00" fill="#ffffff">StateService</text>
<text text-anchor="start" x="2091.5" y="-1257.8" font-family="Helvetica,Arial,sans-serif" font-size="24.00" fill="#ffffff">Maintains the central lifecycle state</text>
<text text-anchor="start" x="2057" y="-1233.8" font-family="Helvetica,Arial,sans-serif" font-size="24.00" fill="#ffffff">machine and the master simulation clock.</text>
</g>
<!-- MotorService&#45;&gt;StateService -->
<g id="edge12" class="edge">
<title>MotorService&#45;&gt;StateService</title>
<path fill="none" stroke="#64748b" stroke-width="3" stroke-dasharray="5,2" d="M457.16,-1203.06C621.39,-1201.19 856.93,-1197.77 1063,-1192 1074.12,-1191.69 1076.88,-1191.22 1088,-1191 1281.74,-1187.13 1330.38,-1183.06 1524,-1191 1746.34,-1200.12 1801.8,-1207.78 2023,-1232 2026.55,-1232.39 2030.13,-1232.79 2033.74,-1233.2"/>
<polygon fill="#64748b" stroke="#64748b" stroke-width="3" points="2033.26,-1238.07 2047.73,-1234.81 2034.38,-1228.34 2033.26,-1238.07"/>
<text text-anchor="middle" x="1306" y="-1197.4" font-family="Helvetica,Arial,sans-serif" font-size="22.00" fill="#cbd5e1">MotorStatus</text>
</g>
<!-- UdpBridge -->
<g id="node9" class="node">
<title>UdpBridge</title>
<path fill="#0f766e" stroke="#f1f5f9" stroke-width="4" d="M1853,-894C1853,-894 1561,-894 1561,-894 1555,-894 1549,-888 1549,-882 1549,-882 1549,-830 1549,-830 1549,-824 1555,-818 1561,-818 1561,-818 1853,-818 1853,-818 1859,-818 1865,-824 1865,-830 1865,-830 1865,-882 1865,-882 1865,-888 1859,-894 1853,-894"/>
<text text-anchor="start" x="1609" y="-858.6" font-family="Helvetica,Arial,sans-serif" font-weight="bold" font-size="38.00" fill="#ffffff">UdpBridge</text>
<text text-anchor="start" x="1558" y="-830.2" font-family="Helvetica,Arial,sans-serif" font-size="26.00" fill="#ffffff">Message Distribution Hub</text>
</g>
<!-- KinematicsService&#45;&gt;UdpBridge -->
<g id="edge8" class="edge">
<title>KinematicsService&#45;&gt;UdpBridge</title>
<path fill="none" stroke="#64748b" stroke-width="3" stroke-dasharray="5,2" d="M1063.1,-871.68C1209.38,-868.11 1399.31,-863.48 1534.72,-860.18"/>
<polygon fill="#64748b" stroke="#64748b" stroke-width="3" points="1535.01,-865.07 1548.89,-859.83 1534.77,-855.27 1535.01,-865.07"/>
<text text-anchor="middle" x="1306" y="-876.4" font-family="Helvetica,Arial,sans-serif" font-size="22.00" fill="#cbd5e1">KinematicsData</text>
</g>
<!-- PowerService&#45;&gt;UdpBridge -->
<g id="edge13" class="edge">
<title>PowerService&#45;&gt;UdpBridge</title>
<path fill="none" stroke="#64748b" stroke-width="3" stroke-dasharray="5,2" d="M2978.8,-1169.93C2956.69,-1165.51 2934.4,-1161.4 2913,-1158 2531.54,-1097.33 2390.95,-1251.7 2048,-1074 2032.89,-1066.17 2038.19,-1052.66 2023,-1045 1970.07,-1018.3 1943.98,-1059.5 1890,-1035 1827.9,-1006.81 1774.69,-947.83 1742.13,-905.26"/>
<polygon fill="#64748b" stroke="#64748b" stroke-width="3" points="1746.01,-902.28 1733.7,-894 1738.17,-908.15 1746.01,-902.28"/>
<text text-anchor="middle" x="2279.5" y="-1168.4" font-family="Helvetica,Arial,sans-serif" font-size="22.00" fill="#cbd5e1">PowerData</text>
</g>
<!-- StateService&#45;&gt;MotorService -->
<g id="edge16" class="edge">
<title>StateService&#45;&gt;MotorService</title>
<path fill="none" stroke="#64748b" stroke-width="3" stroke-dasharray="5,2" d="M2047.71,-1260.88C1705.74,-1251.66 1044.3,-1233.22 482,-1214 478.44,-1213.88 474.85,-1213.75 471.23,-1213.63"/>
<polygon fill="#64748b" stroke="#64748b" stroke-width="3" points="471.34,-1208.73 457.17,-1213.13 470.99,-1218.52 471.34,-1208.73"/>
<text text-anchor="middle" x="1306" y="-1251.4" font-family="Helvetica,Arial,sans-serif" font-size="22.00" fill="#cbd5e1">PhysicsTick</text>
</g>
<!-- StateService&#45;&gt;KinematicsService -->
<g id="edge15" class="edge">
<title>StateService&#45;&gt;KinematicsService</title>
<path fill="none" stroke="#64748b" stroke-width="3" stroke-dasharray="5,2" d="M2125.11,-1221.96C2091.7,-1213.51 2056.36,-1205.58 2023,-1200 1993.77,-1195.11 1916.46,-1203.35 1890,-1190 1874.81,-1182.34 1879.28,-1170.25 1865,-1161 1735.28,-1076.94 1335.79,-980.76 1076.96,-924.66"/>
<polygon fill="#64748b" stroke="#64748b" stroke-width="3" points="1077.92,-919.85 1063.2,-921.69 1075.85,-929.43 1077.92,-919.85"/>
<text text-anchor="middle" x="1707" y="-1167.4" font-family="Helvetica,Arial,sans-serif" font-size="22.00" fill="#cbd5e1">PhysicsTick</text>
</g>
<!-- StateService&#45;&gt;PowerService -->
<g id="edge17" class="edge">
<title>StateService&#45;&gt;PowerService</title>
<path fill="none" stroke="#64748b" stroke-width="3" stroke-dasharray="5,2" d="M2511.17,-1253.51C2637.88,-1246.1 2795,-1236.91 2923.97,-1229.36"/>
<polygon fill="#64748b" stroke="#64748b" stroke-width="3" points="2924.27,-1234.25 2937.96,-1228.54 2923.69,-1224.47 2924.27,-1234.25"/>
<text text-anchor="middle" x="2724.5" y="-1257.4" font-family="Helvetica,Arial,sans-serif" font-size="22.00" fill="#cbd5e1">PhysicsTick</text>
</g>
<!-- ThermalService -->
<g id="node5" class="node">
<title>ThermalService</title>
<path fill="#0369a1" stroke="#f1f5f9" stroke-width="4" d="M3279,-579C3279,-579 3062,-579 3062,-579 3056,-579 3050,-573 3050,-567 3050,-567 3050,-525 3050,-525 3050,-519 3056,-513 3062,-513 3062,-513 3279,-513 3279,-513 3285,-513 3291,-519 3291,-525 3291,-525 3291,-567 3291,-567 3291,-573 3285,-579 3279,-579"/>
<text text-anchor="start" x="3059" y="-550" font-family="Helvetica,Arial,sans-serif" font-weight="bold" font-size="30.00" fill="#ffffff">ThermalService</text>
<text text-anchor="start" x="3082" y="-524.8" font-family="Helvetica,Arial,sans-serif" font-size="24.00" fill="#ffffff">Thermal Service</text>
</g>
<!-- StateService&#45;&gt;ThermalService -->
<g id="edge18" class="edge">
<title>StateService&#45;&gt;ThermalService</title>
<path fill="none" stroke="#64748b" stroke-width="3" stroke-dasharray="5,2" d="M2472.58,-1221.98C2487.11,-1212.69 2500.27,-1201.49 2511,-1188 2578.04,-1103.73 2476.99,-1037.08 2536,-947 2641.46,-786.02 2751.33,-838.4 2913,-734 2985.51,-687.18 3065.1,-627.44 3116.1,-588.01"/>
<polygon fill="#64748b" stroke="#64748b" stroke-width="3" points="3119.42,-591.64 3127.48,-579.19 3113.41,-583.9 3119.42,-591.64"/>
<text text-anchor="middle" x="2724.5" y="-953.4" font-family="Helvetica,Arial,sans-serif" font-size="22.00" fill="#cbd5e1">PhysicsTick</text>
</g>
<!-- AutonomousService -->
<g id="node7" class="node">
<title>AutonomousService</title>
<path fill="#0369a1" stroke="#f1f5f9" stroke-width="4" d="M3375,-857C3375,-857 2966,-857 2966,-857 2960,-857 2954,-851 2954,-845 2954,-845 2954,-803 2954,-803 2954,-797 2960,-791 2966,-791 2966,-791 3375,-791 3375,-791 3381,-791 3387,-797 3387,-803 3387,-803 3387,-845 3387,-845 3387,-851 3381,-857 3375,-857"/>
<text text-anchor="start" x="3025.5" y="-828" font-family="Helvetica,Arial,sans-serif" font-weight="bold" font-size="30.00" fill="#ffffff">AutonomousService</text>
<text text-anchor="start" x="2963" y="-802.8" font-family="Helvetica,Arial,sans-serif" font-size="24.00" fill="#ffffff">High level autonomous driving service.</text>
</g>
<!-- StateService&#45;&gt;AutonomousService -->
<g id="edge14" class="edge">
<title>StateService&#45;&gt;AutonomousService</title>
<path fill="none" stroke="#64748b" stroke-width="3" stroke-dasharray="5,2" d="M2424.63,-1221.94C2453.59,-1211.68 2483.55,-1200.18 2511,-1188 2737.09,-1087.69 2988.98,-936.63 3104.81,-864.77"/>
<polygon fill="#64748b" stroke="#64748b" stroke-width="3" points="3107.62,-868.8 3116.92,-857.24 3102.45,-860.47 3107.62,-868.8"/>
<text text-anchor="middle" x="2724.5" y="-1177.4" font-family="Helvetica,Arial,sans-serif" font-size="22.00" fill="#cbd5e1">PhysicsTick</text>
</g>
<!-- StateService&#45;&gt;UdpBridge -->
<g id="edge19" class="edge">
<title>StateService&#45;&gt;UdpBridge</title>
<path fill="none" stroke="#64748b" stroke-width="3" stroke-dasharray="5,2" d="M2090.78,-1221.85C2074.9,-1212.59 2060.26,-1201.44 2048,-1188 2016.26,-1153.19 2055.04,-1119.53 2023,-1085 1980.74,-1039.46 1942.82,-1074.71 1890,-1042 1831.59,-1005.83 1778.36,-947.01 1744.76,-905.2"/>
<polygon fill="#64748b" stroke="#64748b" stroke-width="3" points="1748.56,-902.1 1736.03,-894.16 1740.87,-908.18 1748.56,-902.1"/>
<text text-anchor="middle" x="1956.5" y="-1091.4" font-family="Helvetica,Arial,sans-serif" font-size="22.00" fill="#cbd5e1">StateData</text>
</g>
<!-- ThermalService&#45;&gt;UdpBridge -->
<g id="edge20" class="edge">
<title>ThermalService&#45;&gt;UdpBridge</title>
<path fill="none" stroke="#64748b" stroke-width="3" stroke-dasharray="5,2" d="M3049.76,-538.36C2770.09,-522.69 2083.07,-497.44 1890,-613 1814.27,-658.33 1759.74,-748.33 1731.08,-805.17"/>
<polygon fill="#64748b" stroke="#64748b" stroke-width="3" points="1726.64,-803.08 1724.85,-817.81 1735.43,-807.41 1726.64,-803.08"/>
<text text-anchor="middle" x="2279.5" y="-565.4" font-family="Helvetica,Arial,sans-serif" font-size="22.00" fill="#cbd5e1">ThermalData</text>
</g>
<!-- EnvironmentService -->
<g id="node6" class="node">
<title>EnvironmentService</title>
<path fill="#0369a1" stroke="#f1f5f9" stroke-width="4" d="M4007,-769C4007,-769 3658,-769 3658,-769 3652,-769 3646,-763 3646,-757 3646,-757 3646,-691 3646,-691 3646,-685 3652,-679 3658,-679 3658,-679 4007,-679 4007,-679 4013,-679 4019,-685 4019,-691 4019,-691 4019,-757 4019,-757 4019,-763 4013,-769 4007,-769"/>
<text text-anchor="start" x="3688" y="-740" font-family="Helvetica,Arial,sans-serif" font-weight="bold" font-size="30.00" fill="#ffffff">EnvironmentService</text>
<text text-anchor="start" x="3655" y="-714.8" font-family="Helvetica,Arial,sans-serif" font-size="24.00" fill="#ffffff">Centralized service for managing</text>
<text text-anchor="start" x="3668" y="-690.8" font-family="Helvetica,Arial,sans-serif" font-size="24.00" fill="#ffffff">environmental simulation data.</text>
</g>
<!-- EnvironmentService&#45;&gt;AutonomousService -->
<g id="edge6" class="edge">
<title>EnvironmentService&#45;&gt;AutonomousService</title>
<path fill="none" stroke="#64748b" stroke-width="3" stroke-dasharray="5,2" d="M3652.4,-769.04C3641.8,-771.2 3631.28,-773.2 3621,-775 3549.96,-787.43 3472.01,-797.24 3401.27,-804.72"/>
<polygon fill="#64748b" stroke="#64748b" stroke-width="3" points="3400.63,-799.86 3387.22,-806.19 3401.65,-809.61 3400.63,-799.86"/>
<text text-anchor="middle" x="3524.5" y="-806.4" font-family="Helvetica,Arial,sans-serif" font-size="22.00" fill="#cbd5e1">InternalEnvData</text>
</g>
<!-- EnvironmentService&#45;&gt;UdpBridge -->
<g id="edge7" class="edge">
<title>EnvironmentService&#45;&gt;UdpBridge</title>
<path fill="none" stroke="#64748b" stroke-width="3" stroke-dasharray="5,2" d="M3645.92,-704.4C3319.5,-674.59 2622.72,-631.8 2048,-738 1964.48,-753.43 1873.79,-785.75 1807.09,-812.67"/>
<polygon fill="#64748b" stroke="#64748b" stroke-width="3" points="1805.2,-808.15 1794.08,-817.97 1808.9,-817.22 1805.2,-808.15"/>
<text text-anchor="middle" x="2724.5" y="-686.4" font-family="Helvetica,Arial,sans-serif" font-size="22.00" fill="#cbd5e1">EnvironmentAck, EnvironmentRequest</text>
</g>
<!-- AutonomousService&#45;&gt;EnvironmentService -->
<g id="edge4" class="edge">
<title>AutonomousService&#45;&gt;EnvironmentService</title>
<path fill="none" stroke="#64748b" stroke-width="3" stroke-dasharray="5,2" d="M3258.28,-790.92C3307.34,-773.75 3370.25,-754.27 3428,-744 3493.7,-732.32 3566.3,-726.56 3631.6,-723.93"/>
<polygon fill="#64748b" stroke="#64748b" stroke-width="3" points="3632.04,-728.82 3645.85,-723.4 3631.67,-719.03 3632.04,-728.82"/>
<text text-anchor="middle" x="3524.5" y="-750.4" font-family="Helvetica,Arial,sans-serif" font-size="22.00" fill="#cbd5e1">InternalEnvRequest</text>
</g>
<!-- AutonomousService&#45;&gt;UdpBridge -->
<g id="edge5" class="edge">
<title>AutonomousService&#45;&gt;UdpBridge</title>
<path fill="none" stroke="#64748b" stroke-width="3" stroke-dasharray="5,2" d="M3044.16,-791C3002.72,-781.6 2956.16,-772.66 2913,-768 2530.56,-726.74 2430.09,-752.64 2048,-797 1992.84,-803.4 1933.06,-812.9 1879.23,-822.42"/>
<polygon fill="#64748b" stroke="#64748b" stroke-width="3" points="1878.24,-817.62 1865.32,-824.9 1879.96,-827.27 1878.24,-817.62"/>
<text text-anchor="middle" x="2279.5" y="-827.4" font-family="Helvetica,Arial,sans-serif" font-size="22.00" fill="#cbd5e1">AutoDriveStatus, KinematicsRequest</text>
<text text-anchor="middle" x="2279.5" y="-803.4" font-family="Helvetica,Arial,sans-serif" font-size="22.00" fill="#cbd5e1">MotorSequence, PowerRequest</text>
</g>
<!-- LogService -->
<g id="node8" class="node">
<title>LogService</title>
<path fill="#0369a1" stroke="#f1f5f9" stroke-width="4" d="M988.5,-1045C988.5,-1045 699.5,-1045 699.5,-1045 693.5,-1045 687.5,-1039 687.5,-1033 687.5,-1033 687.5,-991 687.5,-991 687.5,-985 693.5,-979 699.5,-979 699.5,-979 988.5,-979 988.5,-979 994.5,-979 1000.5,-985 1000.5,-991 1000.5,-991 1000.5,-1033 1000.5,-1033 1000.5,-1039 994.5,-1045 988.5,-1045"/>
<text text-anchor="start" x="763.5" y="-1016" font-family="Helvetica,Arial,sans-serif" font-weight="bold" font-size="30.00" fill="#ffffff">LogService</text>
<text text-anchor="start" x="696.5" y="-990.8" font-family="Helvetica,Arial,sans-serif" font-size="24.00" fill="#ffffff">Asynchronous logging sink.</text>
</g>
<!-- LogService&#45;&gt;UdpBridge -->
<g id="edge9" class="edge">
<title>LogService&#45;&gt;UdpBridge</title>
<path fill="none" stroke="#64748b" stroke-width="3" stroke-dasharray="5,2" d="M1000.59,-992.29C1138.78,-973.65 1345.85,-942.91 1524,-905 1534.92,-902.68 1546.17,-900.1 1557.45,-897.38"/>
<polygon fill="#64748b" stroke="#64748b" stroke-width="3" points="1558.79,-902.1 1571.22,-894 1556.46,-892.58 1558.79,-902.1"/>
<text text-anchor="middle" x="1306" y="-986.4" font-family="Helvetica,Arial,sans-serif" font-size="22.00" fill="#cbd5e1">Log</text>
</g>
<!-- UdpBridge&#45;&gt;MotorService -->
<g id="edge24" class="edge">
<title>UdpBridge&#45;&gt;MotorService</title>
<path fill="none" stroke="#64748b" stroke-width="3" stroke-dasharray="5,2" d="M1674.43,-894.07C1641.14,-931.42 1585.12,-986.74 1524,-1015 1430.41,-1058.27 810.22,-1137.86 471.1,-1178.94"/>
<polygon fill="#64748b" stroke="#64748b" stroke-width="3" points="470.48,-1174.08 457.17,-1180.63 471.65,-1183.81 470.48,-1174.08"/>
<text text-anchor="middle" x="844" y="-1163.4" font-family="Helvetica,Arial,sans-serif" font-size="22.00" fill="#cbd5e1">MotorSequence, ResetRequest</text>
</g>
<!-- UdpBridge&#45;&gt;KinematicsService -->
<g id="edge23" class="edge">
<title>UdpBridge&#45;&gt;KinematicsService</title>
<path fill="none" stroke="#64748b" stroke-width="3" stroke-dasharray="5,2" d="M1548.87,-827.54C1540.47,-826.55 1532.14,-825.69 1524,-825 1330.91,-808.67 1280.7,-804.61 1088,-825 1084.43,-825.38 1080.84,-825.78 1077.23,-826.22"/>
<polygon fill="#64748b" stroke="#64748b" stroke-width="3" points="1076.48,-821.38 1063.22,-828.03 1077.74,-831.1 1076.48,-821.38"/>
<text text-anchor="middle" x="1306" y="-831.4" font-family="Helvetica,Arial,sans-serif" font-size="22.00" fill="#cbd5e1">KinematicsRequest, ResetRequest</text>
</g>
<!-- UdpBridge&#45;&gt;PowerService -->
<g id="edge25" class="edge">
<title>UdpBridge&#45;&gt;PowerService</title>
<path fill="none" stroke="#64748b" stroke-width="3" stroke-dasharray="5,2" d="M1796.56,-894.08C1864.23,-921.69 1960.46,-957.76 2048,-979 2249.65,-1027.92 2306.74,-1002.48 2511,-1039 2691.42,-1071.26 2736.39,-1081.98 2913,-1131 2950,-1141.27 2989.59,-1153.57 3026.32,-1165.55"/>
<polygon fill="#64748b" stroke="#64748b" stroke-width="3" points="3024.88,-1170.23 3039.71,-1169.94 3027.94,-1160.92 3024.88,-1170.23"/>
<text text-anchor="middle" x="2279.5" y="-1045.4" font-family="Helvetica,Arial,sans-serif" font-size="22.00" fill="#cbd5e1">PowerRequest, ResetRequest</text>
</g>
<!-- UdpBridge&#45;&gt;StateService -->
<g id="edge26" class="edge">
<title>UdpBridge&#45;&gt;StateService</title>
<path fill="none" stroke="#64748b" stroke-width="3" stroke-dasharray="5,2" d="M1751.83,-894.32C1787.06,-927.31 1835.38,-977.88 1865,-1031 1884.18,-1065.39 1862.53,-1087.79 1890,-1116 1933.34,-1160.51 1971.24,-1124.64 2023,-1159 2037.18,-1168.41 2033.91,-1178.47 2048,-1188 2063.87,-1198.73 2081.33,-1208.14 2099.33,-1216.36"/>
<polygon fill="#64748b" stroke="#64748b" stroke-width="3" points="2097.4,-1220.86 2112.19,-1221.99 2101.34,-1211.88 2097.4,-1220.86"/>
<text text-anchor="middle" x="1956.5" y="-1165.4" font-family="Helvetica,Arial,sans-serif" font-size="22.00" fill="#cbd5e1">StateRequest</text>
</g>
<!-- UdpBridge&#45;&gt;ThermalService -->
<g id="edge27" class="edge">
<title>UdpBridge&#45;&gt;ThermalService</title>
<path fill="none" stroke="#64748b" stroke-width="3" stroke-dasharray="5,2" d="M1723.67,-817.88C1750.33,-756.71 1809.55,-635.53 1890,-557 1947.99,-500.4 1969.71,-486.93 2048,-466 2396.98,-372.69 2827.48,-456.09 3039.27,-509.48"/>
<polygon fill="#64748b" stroke="#64748b" stroke-width="3" points="3038.12,-514.25 3052.9,-512.95 3040.54,-504.75 3038.12,-514.25"/>
<text text-anchor="middle" x="2279.5" y="-496.4" font-family="Helvetica,Arial,sans-serif" font-size="22.00" fill="#cbd5e1">EnvironmentData, ResetRequest</text>
<text text-anchor="middle" x="2279.5" y="-472.4" font-family="Helvetica,Arial,sans-serif" font-size="22.00" fill="#cbd5e1">ThermalRequest</text>
</g>
<!-- UdpBridge&#45;&gt;EnvironmentService -->
<g id="edge22" class="edge">
<title>UdpBridge&#45;&gt;EnvironmentService</title>
<path fill="none" stroke="#64748b" stroke-width="3" stroke-dasharray="5,2" d="M1757,-817.93C1792.55,-791.51 1842.53,-756.74 1890,-732 1956.61,-697.28 1974.68,-688.34 2048,-672 2635.83,-540.98 2801.96,-620.85 3403,-659 3499.99,-665.16 3524.92,-661.38 3621,-676 3624.57,-676.54 3628.16,-677.11 3631.78,-677.71"/>
<polygon fill="#64748b" stroke="#64748b" stroke-width="3" points="3631.2,-682.58 3645.83,-680.11 3632.86,-672.92 3631.2,-682.58"/>
<text text-anchor="middle" x="2724.5" y="-621.4" font-family="Helvetica,Arial,sans-serif" font-size="22.00" fill="#cbd5e1">EnvironmentData, ResetRequest</text>
</g>
<!-- UdpBridge&#45;&gt;AutonomousService -->
<g id="edge21" class="edge">
<title>UdpBridge&#45;&gt;AutonomousService</title>
<path fill="none" stroke="#64748b" stroke-width="3" stroke-dasharray="5,2" d="M1865.34,-878.13C2096.27,-906.8 2540.01,-947.36 2913,-896 2962.83,-889.14 3016.62,-875.11 3062,-861.25"/>
<polygon fill="#64748b" stroke="#64748b" stroke-width="3" points="3063.58,-865.89 3075.5,-857.06 3060.67,-856.53 3063.58,-865.89"/>
<text text-anchor="middle" x="2279.5" y="-950.4" font-family="Helvetica,Arial,sans-serif" font-size="22.00" fill="#cbd5e1">AutoDriveCommand, KinematicsData</text>
<text text-anchor="middle" x="2279.5" y="-926.4" font-family="Helvetica,Arial,sans-serif" font-size="22.00" fill="#cbd5e1">PowerData, ResetRequest</text>
</g>
<!-- TX -->
<g id="node10" class="node">
<title>TX</title>
<path fill="#b45309" stroke="#f1f5f9" stroke-width="4" d="M970.5,-254C970.5,-254 717.5,-254 717.5,-254 711.5,-254 705.5,-248 705.5,-242 705.5,-242 705.5,-200 705.5,-200 705.5,-194 711.5,-188 717.5,-188 717.5,-188 970.5,-188 970.5,-188 976.5,-188 982.5,-194 982.5,-200 982.5,-200 982.5,-242 982.5,-242 982.5,-248 976.5,-254 970.5,-254"/>
<text text-anchor="start" x="771.5" y="-225" font-family="Helvetica,Arial,sans-serif" font-weight="bold" font-size="30.00" fill="#ffffff">TX Socket</text>
<text text-anchor="start" x="714.5" y="-199.8" font-family="Helvetica,Arial,sans-serif" font-size="24.00" fill="#ffffff">Port 9000 (SIL Inbound)</text>
</g>
<!-- TX&#45;&gt;UdpBridge -->
<g id="edge3" class="edge">
<title>TX&#45;&gt;UdpBridge</title>
<path fill="none" stroke="#f1f5f9" stroke-width="5" d="M928.08,-254.05C970.24,-272.61 1021.23,-297.88 1063,-327 1075.64,-335.81 1075.92,-341.45 1088,-351 1268.88,-493.93 1352.29,-478.18 1524,-632 1583.01,-684.86 1638.55,-757.86 1672.4,-805.97"/>
<polygon fill="#f1f5f9" stroke="#f1f5f9" stroke-width="5" points="1667.5,-809.65 1680.52,-817.64 1677.55,-802.65 1667.5,-809.65"/>
<text text-anchor="middle" x="1306" y="-780" font-family="Helvetica,Arial,sans-serif" font-size="25.00" fill="#cbd5e1">Inbound Traffic:</text>
<text text-anchor="middle" x="1306" y="-752" font-family="Helvetica,Arial,sans-serif" font-size="25.00" fill="#cbd5e1">AutoDriveCommand, EnvironmentData</text>
<text text-anchor="middle" x="1306" y="-724" font-family="Helvetica,Arial,sans-serif" font-size="25.00" fill="#cbd5e1">KinematicsData, KinematicsRequest</text>
<text text-anchor="middle" x="1306" y="-696" font-family="Helvetica,Arial,sans-serif" font-size="25.00" fill="#cbd5e1">MotorSequence, PowerData</text>
<text text-anchor="middle" x="1306" y="-668" font-family="Helvetica,Arial,sans-serif" font-size="25.00" fill="#cbd5e1">PowerRequest, ResetRequest</text>
<text text-anchor="middle" x="1306" y="-640" font-family="Helvetica,Arial,sans-serif" font-size="25.00" fill="#cbd5e1">StateRequest, ThermalRequest</text>
</g>
<!-- RX -->
<g id="node11" class="node">
<title>RX</title>
<path fill="#b45309" stroke="#f1f5f9" stroke-width="4" d="M979.5,-98C979.5,-98 708.5,-98 708.5,-98 702.5,-98 696.5,-92 696.5,-86 696.5,-86 696.5,-44 696.5,-44 696.5,-38 702.5,-32 708.5,-32 708.5,-32 979.5,-32 979.5,-32 985.5,-32 991.5,-38 991.5,-44 991.5,-44 991.5,-86 991.5,-86 991.5,-92 985.5,-98 979.5,-98"/>
<text text-anchor="start" x="770" y="-69" font-family="Helvetica,Arial,sans-serif" font-weight="bold" font-size="30.00" fill="#ffffff">RX Socket</text>
<text text-anchor="start" x="705.5" y="-43.8" font-family="Helvetica,Arial,sans-serif" font-size="24.00" fill="#ffffff">Port 9001 (SIL Outbound)</text>
</g>
<!-- TX&#45;&gt;RX -->
<!-- RX&#45;&gt;UdpBridge -->
<g id="edge28" class="edge">
<title>RX&#45;&gt;UdpBridge</title>
<path fill="none" stroke="#f1f5f9" stroke-width="5" d="M1005.77,-36.57C1157.76,-19.44 1382.96,-20.75 1524,-144 1628.24,-235.09 1686.53,-683.34 1701.87,-817.8"/>
<polygon fill="#f1f5f9" stroke="#f1f5f9" stroke-width="5" points="1004.94,-30.5 991.75,-38.22 1006.37,-42.66 1004.94,-30.5"/>
<text text-anchor="middle" x="1306" y="-320" font-family="Helvetica,Arial,sans-serif" font-size="25.00" fill="#cbd5e1">Outbound Traffic:</text>
<text text-anchor="middle" x="1306" y="-292" font-family="Helvetica,Arial,sans-serif" font-size="25.00" fill="#cbd5e1">AutoDriveStatus, EnvironmentAck</text>
<text text-anchor="middle" x="1306" y="-264" font-family="Helvetica,Arial,sans-serif" font-size="25.00" fill="#cbd5e1">EnvironmentRequest, KinematicsData</text>
<text text-anchor="middle" x="1306" y="-236" font-family="Helvetica,Arial,sans-serif" font-size="25.00" fill="#cbd5e1">KinematicsRequest, Log</text>
<text text-anchor="middle" x="1306" y="-208" font-family="Helvetica,Arial,sans-serif" font-size="25.00" fill="#cbd5e1">MotorSequence, PowerData</text>
<text text-anchor="middle" x="1306" y="-180" font-family="Helvetica,Arial,sans-serif" font-size="25.00" fill="#cbd5e1">PowerRequest, StateData</text>
<text text-anchor="middle" x="1306" y="-152" font-family="Helvetica,Arial,sans-serif" font-size="25.00" fill="#cbd5e1">ThermalData</text>
</g>
<!-- TestCase -->
<g id="node12" class="node">
<title>TestCase</title>
<path fill="#047857" stroke="#f1f5f9" stroke-width="4" d="M406.5,-177.5C406.5,-177.5 92.5,-177.5 92.5,-177.5 86.5,-177.5 80.5,-171.5 80.5,-165.5 80.5,-165.5 80.5,-140.5 80.5,-140.5 80.5,-134.5 86.5,-128.5 92.5,-128.5 92.5,-128.5 406.5,-128.5 406.5,-128.5 412.5,-128.5 418.5,-134.5 418.5,-140.5 418.5,-140.5 418.5,-165.5 418.5,-165.5 418.5,-171.5 412.5,-177.5 406.5,-177.5"/>
<text text-anchor="start" x="89.5" y="-145.3" font-family="Helvetica,Arial,sans-serif" font-weight="bold" font-size="34.00" fill="#ffffff">Test Case / Fixtures</text>
</g>
<!-- TestCase&#45;&gt;TX -->
<g id="edge2" class="edge">
<title>TestCase&#45;&gt;TX</title>
<path fill="none" stroke="#f1f5f9" stroke-width="5" d="M418.7,-172.3C504.5,-182.15 608.03,-194.03 691.35,-203.6"/>
<polygon fill="#f1f5f9" stroke="#f1f5f9" stroke-width="5" points="690.73,-209.69 705.33,-205.2 692.12,-197.52 690.73,-209.69"/>
<text text-anchor="middle" x="541" y="-200.4" font-family="Helvetica,Arial,sans-serif" font-size="22.00" fill="#cbd5e1">send_msg</text>
</g>
<!-- TestCase&#45;&gt;RX -->
<g id="edge29" class="edge">
<title>TestCase&#45;&gt;RX</title>
<path fill="none" stroke="#f1f5f9" stroke-width="5" d="M429.62,-126.4C514.81,-113.74 615.39,-98.81 696.01,-86.83"/>
<polygon fill="#f1f5f9" stroke="#f1f5f9" stroke-width="5" points="428.49,-120.37 415.54,-128.49 430.29,-132.49 428.49,-120.37"/>
<text text-anchor="middle" x="541" y="-123.4" font-family="Helvetica,Arial,sans-serif" font-size="22.00" fill="#cbd5e1">recv_msg</text>
</g>
</g>
</svg>
