<?xml version="1.0" encoding="UTF-8" standalone="no"?>
<!DOCTYPE svg PUBLIC "-//W3C//DTD SVG 1.1//EN"
 "http://www.w3.org/Graphics/SVG/1.1/DTD/svg11.dtd">
<!-- Generated by graphviz version 2.42.4 (0)
 -->
<!-- Title: IPC Pages: 1 -->
<svg width="4093pt" height="1526pt"
 viewBox="0.00 0.00 4092.68 1525.68" xmlns="http://www.w3.org/2000/svg" xmlns:xlink="http://www.w3.org/1999/xlink">
<g id="graph0" class="graph" transform="scale(1 1) rotate(0) translate(15.84 1509.84)">
<title>IPC</title>
<polygon fill="#0f172a" stroke="transparent" points="-15.84,15.84 -15.84,-1509.84 4076.84,-1509.84 4076.84,15.84 -15.84,15.84"/>
<text text-anchor="start" x="1540.5" y="-1449.4" font-family="Helvetica,Arial,sans-serif" font-weight="bold" font-size="52.00" fill="#f1f5f9">System Architecture and Message Flow</text>
<g id="clust1" class="cluster">
<title>cluster_sim</title>
<path fill="#1e293b" stroke="#475569" stroke-width="4" d="M20,-338C20,-338 4041,-338 4041,-338 4047,-338 4053,-344 4053,-350 4053,-350 4053,-1409 4053,-1409 4053,-1415 4047,-1421 4041,-1421 4041,-1421 20,-1421 20,-1421 14,-1421 8,-1415 8,-1409 8,-1409 8,-350 8,-350 8,-344 14,-338 20,-338"/>
<text text-anchor="start" x="1937" y="-1386" font-family="Helvetica,Arial,sans-serif" font-weight="bold" font-size="40.00" fill="#f1f5f9">Simulator</text>
</g>
<g id="clust2" class="cluster">
<title>cluster_sockets</title>
<path fill="#2a1b07" stroke="#f59e0b" stroke-width="6" d="M684.5,-8C684.5,-8 1003.5,-8 1003.5,-8 1009.5,-8 1015.5,-14 1015.5,-20 1015.5,-20 1015.5,-318 1015.5,-318 1015.5,-324 1009.5,-330 1003.5,-330 1003.5,-330 684.5,-330 684.5,-330 678.5,-330 672.5,-324 672.5,-318 672.5,-318 672.5,-20 672.5,-20 672.5,-14 678.5,-8 684.5,-8"/>
<text text-anchor="start" x="704.5" y="-295" font-family="Helvetica,Arial,sans-serif" font-weight="bold" font-size="40.00" fill="#f1f5f9">Network Layer</text>
</g>
<g id="clust4" class="cluster">
<title>cluster_fixtures</title>
<path fill="#0b2a20" stroke="#22c55e" stroke-width="6" d="M68.5,-104C68.5,-104 430.5,-104 430.5,-104 436.5,-104 442.5,-110 442.5,-116 442.5,-116 442.5,-242 442.5,-242 442.5,-248 436.5,-254 430.5,-254 430.5,-254 68.5,-254 68.5,-254 62.5,-254 56.5,-248 56.5,-242 56.5,-242 56.5,-116 56.5,-116 56.5,-110 62.5,-104 68.5,-104"/>
<text text-anchor="start" x="123.5" y="-219" font-family="Helvetica,Arial,sans-serif" font-weight="bold" font-size="40.00" fill="#f1f5f9">Test Harness</text>
</g>
<!-- MotorService -->
<g id="node1" class="node">
<title>MotorService</title>
<path fill="#0369a1" stroke="#f1f5f9" stroke-width="4" d="M445,-1227C445,-1227 54,-1227 54,-1227 48,-1227 42,-1221 42,-1215 42,-1215 42,-1149 42,-1149 42,-1143 48,-1137 54,-1137 54,-1137 445,-1137 445,-1137 451,-1137 457,-1143 457,-1149 457,-1149 457,-1215 457,-1215 457,-1221 451,-1227 445,-1227"/>
<text text-anchor="start" x="154.5" y="-1198" font-family="Helvetica,Arial,sans-serif" font-weight="bold" font-size="30.00" fill="#ffffff">MotorService</text>
<text text-anchor="start" x="51" y="-1172.8" font-family="Helvetica,Arial,sans-serif" font-size="24.00" fill="#ffffff">Reactive service that executes motor</text>
<text text-anchor="start" x="130.5" y="-1148.8" font-family="Helvetica,Arial,sans-serif" font-size="24.00" fill="#ffffff">command sequences.</text>
</g>
<!-- KinematicsService -->
<g id="node2" class="node">
<title>KinematicsService</title>
<path fill="#0369a1" stroke="#f1f5f9" stroke-width="4" d="M1051,-911C1051,-911 637,-911 637,-911 631,-911 625,-905 625,-899 625,-899 625,-809 625,-809 625,-803 631,-797 637,-797 637,-797 1051,-797 1051,-797 1057,-797 1063,-803 1063,-809 1063,-809 1063,-899 1063,-899 1063,-905 1057,-911 1051,-911"/>
<text text-anchor="start" x="711" y="-882" font-family="Helvetica,Arial,sans-serif" font-weight="bold" font-size="30.00" fill="#ffffff">KinematicsService</text>
<text text-anchor="start" x="634" y="-856.8" font-family="Helvetica,Arial,sans-serif" font-size="24.00" fill="#ffffff">Simulates vehicle motion by integrating</text>
<text text-anchor="start" x="641" y="-832.8" font-family="Helvetica,Arial,sans-serif" font-size="24.00" fill="#ffffff">motor RPM over time to track position</text>
<text text-anchor="start" x="744.5" y="-808.8" font-family="Helvetica,Arial,sans-serif" font-size="24.00" fill="#ffffff">and linear velocity.</text>
</g>
<!-- MotorService&#45;&gt;KinematicsService -->
<g id="edge10" class="edge">
<title>MotorService&#45;&gt;KinematicsService</title>
<path fill="none" stroke="#64748b" stroke-width="3" stroke-dasharray="5,2" d="M309.16,-1136.86C380.75,-1083.3 506.88,-993.75 625,-934 636.88,-927.99 649.33,-922.2 661.99,-916.67"/>
<polygon fill="#64748b" stroke="#64748b" stroke-width="3" points="664.3,-921.01 675.25,-911.01 660.45,-912 664.3,-921.01"/>
<text text-anchor="middle" x="541" y="-1020.4" font-family="Helvetica,Arial,sans-serif" font-size="22.00" fill="#cbd5e1">MotorStatus</text>
</g>
<!-- PowerService -->
<g id="node3" class="node">
<title>PowerService</title>
<path fill="#0369a1" stroke="#f1f5f9" stroke-width="4" d="M3391,-1236C3391,-1236 2950,-1236 2950,-1236 2944,-1236 2938,-1230 2938,-1224 2938,-1224 2938,-1158 2938,-1158 2938,-1152 2944,-1146 2950,-1146 2950,-1146 3391,-1146 3391,-1146 3397,-1146 3403,-1152 3403,-1158 3403,-1158 3403,-1224 3403,-1224 3403,-1230 3397,-1236 3391,-1236"/>
<text text-anchor="start" x="3072" y="-1207" font-family="Helvetica,Arial,sans-serif" font-weight="bold" font-size="30.00" fill="#ffffff">PowerService</text>
<text text-anchor="start" x="2947" y="-1181.8" font-family="Helvetica,Arial,sans-serif" font-size="24.00" fill="#ffffff">Models a simple battery pack dynamically</text>
<text text-anchor="start" x="3032.5" y="-1157.8" font-family="Helvetica,Arial,sans-serif" font-size="24.00" fill="#ffffff">responding to motor load.</text>
</g>
<!-- MotorService&#45;&gt;PowerService -->
<g id="edge11" class="edge">
<title>MotorService&#45;&gt;PowerService</title>
<path fill="none" stroke="#64748b" stroke-width="3" stroke-dasharray="5,2" d="M448.19,-1227C459.6,-1229.15 470.94,-1231.17 482,-1233 545.09,-1243.45 561.36,-1242.69 625,-1249 1459.58,-1331.73 1673.87,-1361.83 2511,-1311 2690.66,-1300.09 2736.45,-1296.99 2913,-1262 2943.8,-1255.9 2976.31,-1248.03 3007.47,-1239.77"/>
<polygon fill="#64748b" stroke="#64748b" stroke-width="3" points="3008.95,-1244.44 3021.2,-1236.08 3006.41,-1234.98 3008.95,-1244.44"/>
<text text-anchor="middle" x="1707" y="-1341.4" font-family="Helvetica,Arial,sans-serif" font-size="22.00" fill="#cbd5e1">MotorStatus</text>
</g>
<!-- StateService -->
<g id="node4" class="node">
<title>StateService</title>
<path fill="#0369a1" stroke="#f1f5f9" stroke-width="4" d="M2499,-1288C2499,-1288 2060,-1288 2060,-1288 2054,-1288 2048,-1282 2048,-1276 2048,-1276 2048,-1210 2048,-1210 2048,-1204 2054,-1198 2060,-1198 2060,-1198 2499,-1198 2499,-1198 2505,-1198 2511,-1204 2511,-1210 2511,-1210 2511,-1276 2511,-1276 2511,-1282 2505,-1288 2499,-1288"/>
<text text-anchor="start" x="2189.5" y="-1259" font-family="Helvetica,Arial,sans-serif" font-weight="bold" font-size="30.00" fill="#ffffff">StateService</text>
<text text-anchor="start" x="2091.5" y="-1233.8" font-family="Helvetica,Arial,sans-serif" font-size="24.00" fill="#ffffff">Maintains the central lifecycle state</text>
<text text-anchor="start" x="2057" y="-1209.8" font-family="Helvetica,Arial,sans-serif" font-size="24.00" fill="#ffffff">machine and the master simulation clock.</text>
</g>
<!-- MotorService&#45;&gt;StateService -->
<g id="edge12" class="edge">
<title>MotorService&#45;&gt;StateService</title>
<path fill="none" stroke="#64748b" stroke-width="3" stroke-dasharray="5,2" d="M457.13,-1201.78C622.61,-1212.59 859.85,-1216.77 1063,-1177 1074.74,-1174.7 1076.25,-1169.26 1088,-1167 1278.28,-1130.36 1330.38,-1159.06 1524,-1167 1746.34,-1176.12 1801.8,-1183.78 2023,-1208 2026.55,-1208.39 2030.13,-1208.79 2033.74,-1209.2"/>
<polygon fill="#64748b" stroke="#64748b" stroke-width="3" points="2033.26,-1214.07 2047.73,-1210.81 2034.38,-1204.34 2033.26,-1214.07"/>
<text text-anchor="middle" x="1306" y="-1173.4" font-family="Helvetica,Arial,sans-serif" font-size="22.00" fill="#cbd5e1">MotorStatus</text>
</g>
<!-- UdpBridge -->
<g id="node9" class="node">
<title>UdpBridge</title>
<path fill="#0f766e" stroke="#f1f5f9" stroke-width="4" d="M1853,-885C1853,-885 1561,-885 1561,-885 1555,-885 1549,-879 1549,-873 1549,-873 1549,-821 1549,-821 1549,-815 1555,-809 1561,-809 1561,-809 1853,-809 1853,-809 1859,-809 1865,-815 1865,-821 1865,-821 1865,-873 1865,-873 1865,-879 1859,-885 1853,-885"/>
<text text-anchor="start" x="1609" y="-849.6" font-family="Helvetica,Arial,sans-serif" font-weight="bold" font-size="38.00" fill="#ffffff">UdpBridge</text>
<text text-anchor="start" x="1558" y="-821.2" font-family="Helvetica,Arial,sans-serif" font-size="26.00" fill="#ffffff">Message Distribution Hub</text>
</g>
<!-- KinematicsService&#45;&gt;UdpBridge -->
<g id="edge8" class="edge">
<title>KinematicsService&#45;&gt;UdpBridge</title>
<path fill="none" stroke="#64748b" stroke-width="3" stroke-dasharray="5,2" d="M1063.1,-852.23C1209.38,-851.04 1399.31,-849.49 1534.72,-848.39"/>
<polygon fill="#64748b" stroke="#64748b" stroke-width="3" points="1534.93,-853.29 1548.89,-848.28 1534.85,-843.49 1534.93,-853.29"/>
<text text-anchor="middle" x="1306" y="-857.4" font-family="Helvetica,Arial,sans-serif" font-size="22.00" fill="#cbd5e1">KinematicsData</text>
</g>
<!-- PowerService&#45;&gt;UdpBridge -->
<g id="edge13" class="edge">
<title>PowerService&#45;&gt;UdpBridge</title>
<path fill="none" stroke="#64748b" stroke-width="3" stroke-dasharray="5,2" d="M2978.8,-1145.93C2956.69,-1141.51 2934.4,-1137.4 2913,-1134 2531.54,-1073.33 2392.48,-1224.71 2048,-1050 2033.12,-1042.45 2037.96,-1029.38 2023,-1022 1969.84,-995.76 1944.47,-1035.4 1890,-1012 1831.69,-986.95 1779.67,-935.27 1746.33,-896.38"/>
<polygon fill="#64748b" stroke="#64748b" stroke-width="3" points="1749.77,-892.86 1737.02,-885.28 1742.26,-899.15 1749.77,-892.86"/>
<text text-anchor="middle" x="2279.5" y="-1143.4" font-family="Helvetica,Arial,sans-serif" font-size="22.00" fill="#cbd5e1">PowerData</text>
</g>
<!-- StateService&#45;&gt;MotorService -->
<g id="edge16" class="edge">
<title>StateService&#45;&gt;MotorService</title>
<path fill="none" stroke="#64748b" stroke-width="3" stroke-dasharray="5,2" d="M2047.96,-1249.63C1705.62,-1257.22 1042.93,-1263.25 482,-1217 478.41,-1216.7 474.79,-1216.39 471.15,-1216.05"/>
<polygon fill="#64748b" stroke="#64748b" stroke-width="3" points="471.43,-1211.15 457.01,-1214.66 470.47,-1220.91 471.43,-1211.15"/>
<text text-anchor="middle" x="1306" y="-1260.4" font-family="Helvetica,Arial,sans-serif" font-size="22.00" fill="#cbd5e1">PhysicsTick</text>
</g>
<!-- StateService&#45;&gt;KinematicsService -->
<g id="edge15" class="edge">
<title>StateService&#45;&gt;KinematicsService</title>
<path fill="none" stroke="#64748b" stroke-width="3" stroke-dasharray="5,2" d="M2122.36,-1197.98C2089.75,-1189.91 2055.43,-1182.36 2023,-1177 1993.76,-1172.16 1916.35,-1180.57 1890,-1167 1874.57,-1159.05 1879.5,-1146.54 1865,-1137 1735.86,-1052.02 1335.93,-956.51 1076.9,-901.01"/>
<polygon fill="#64748b" stroke="#64748b" stroke-width="3" points="1077.85,-896.2 1063.13,-898.07 1075.8,-905.79 1077.85,-896.2"/>
<text text-anchor="middle" x="1707" y="-1143.4" font-family="Helvetica,Arial,sans-serif" font-size="22.00" fill="#cbd5e1">PhysicsTick</text>
</g>
<!-- StateService&#45;&gt;PowerService -->
<g id="edge17" class="edge">
<title>StateService&#45;&gt;PowerService</title>
<path fill="none" stroke="#64748b" stroke-width="3" stroke-dasharray="5,2" d="M2511.17,-1229.51C2637.88,-1222.1 2795,-1212.91 2923.97,-1205.36"/>
<polygon fill="#64748b" stroke="#64748b" stroke-width="3" points="2924.27,-1210.25 2937.96,-1204.54 2923.69,-1200.47 2924.27,-1210.25"/>
<text text-anchor="middle" x="2724.5" y="-1233.4" font-family="Helvetica,Arial,sans-serif" font-size="22.00" fill="#cbd5e1">PhysicsTick</text>
</g>
<!-- ThermalService -->
<g id="node5" class="node">
<title>ThermalService</title>
<path fill="#0369a1" stroke="#f1f5f9" stroke-width="4" d="M3279,-555C3279,-555 3062,-555 3062,-555 3056,-555 3050,-549 3050,-543 3050,-543 3050,-501 3050,-501 3050,-495 3056,-489 3062,-489 3062,-489 3279,-489 3279,-489 3285,-489 3291,-495 3291,-501 3291,-501 3291,-543 3291,-543 3291,-549 3285,-555 3279,-555"/>
<text text-anchor="start" x="3059" y="-526" font-family="Helvetica,Arial,sans-serif" font-weight="bold" font-size="30.00" fill="#ffffff">ThermalService</text>
<text text-anchor="start" x="3082" y="-500.8" font-family="Helvetica,Arial,sans-serif" font-size="24.00" fill="#ffffff">Thermal Service</text>
</g>
<!-- StateService&#45;&gt;ThermalService -->
<g id="edge18" class="edge">
<title>StateService&#45;&gt;ThermalService</title>
<path fill="none" stroke="#64748b" stroke-width="3" stroke-dasharray="5,2" d="M2472.58,-1197.98C2487.11,-1188.69 2500.27,-1177.49 2511,-1164 2578.04,-1079.73 2476.99,-1013.08 2536,-923 2641.46,-762.02 2751.33,-814.4 2913,-710 2985.51,-663.18 3065.1,-603.44 3116.1,-564.01"/>
<polygon fill="#64748b" stroke="#64748b" stroke-width="3" points="3119.42,-567.64 3127.48,-555.19 3113.41,-559.9 3119.42,-567.64"/>
<text text-anchor="middle" x="2724.5" y="-929.4" font-family="Helvetica,Arial,sans-serif" font-size="22.00" fill="#cbd5e1">PhysicsTick</text>
</g>
<!-- AutonomousService -->
<g id="node7" class="node">
<title>AutonomousService</title>
<path fill="#0369a1" stroke="#f1f5f9" stroke-width="4" d="M3375,-833C3375,-833 2966,-833 2966,-833 2960,-833 2954,-827 2954,-821 2954,-821 2954,-779 2954,-779 2954,-773 2960,-767 2966,-767 2966,-767 3375,-767 3375,-767 3381,-767 3387,-773 3387,-779 3387,-779 3387,-821 3387,-821 3387,-827 3381,-833 3375,-833"/>
<text text-anchor="start" x="3025.5" y="-804" font-family="Helvetica,Arial,sans-serif" font-weight="bold" font-size="30.00" fill="#ffffff">AutonomousService</text>
<text text-anchor="start" x="2963" y="-778.8" font-family="Helvetica,Arial,sans-serif" font-size="24.00" fill="#ffffff">High level autonomous driving service.</text>
</g>
<!-- StateService&#45;&gt;AutonomousService -->
<g id="edge14" class="edge">
<title>StateService&#45;&gt;AutonomousService</title>
<path fill="none" stroke="#64748b" stroke-width="3" stroke-dasharray="5,2" d="M2424.63,-1197.94C2453.59,-1187.68 2483.55,-1176.18 2511,-1164 2737.09,-1063.69 2988.98,-912.63 3104.81,-840.77"/>
<polygon fill="#64748b" stroke="#64748b" stroke-width="3" points="3107.62,-844.8 3116.92,-833.24 3102.45,-836.47 3107.62,-844.8"/>
<text text-anchor="middle" x="2724.5" y="-1153.4" font-family="Helvetica,Arial,sans-serif" font-size="22.00" fill="#cbd5e1">PhysicsTick</text>
</g>
<!-- StateService&#45;&gt;UdpBridge -->
<g id="edge19" class="edge">
<title>StateService&#45;&gt;UdpBridge</title>
<path fill="none" stroke="#64748b" stroke-width="3" stroke-dasharray="5,2" d="M2091.09,-1197.98C2075.09,-1188.7 2060.34,-1177.5 2048,-1164 2016.51,-1129.55 2054.79,-1096.18 2023,-1062 1980.69,-1016.51 1943.45,-1050.67 1890,-1019 1834.85,-986.32 1782.86,-934.23 1748.67,-895.93"/>
<polygon fill="#64748b" stroke="#64748b" stroke-width="3" points="1752.01,-892.3 1739.09,-885.02 1744.65,-898.77 1752.01,-892.3"/>
<text text-anchor="middle" x="1956.5" y="-1068.4" font-family="Helvetica,Arial,sans-serif" font-size="22.00" fill="#cbd5e1">StateData</text>
</g>
<!-- ThermalService&#45;&gt;UdpBridge -->
<g id="edge20" class="edge">
<title>ThermalService&#45;&gt;UdpBridge</title>
<path fill="none" stroke="#64748b" stroke-width="3" stroke-dasharray="5,2" d="M3049.8,-514.01C2769.82,-497.55 2081.46,-470.66 1890,-589 1810.67,-638.03 1756.4,-735.84 1728.92,-795.94"/>
<polygon fill="#64748b" stroke="#64748b" stroke-width="3" points="1724.37,-794.11 1723.14,-808.89 1733.32,-798.1 1724.37,-794.11"/>
<text text-anchor="middle" x="2279.5" y="-540.4" font-family="Helvetica,Arial,sans-serif" font-size="22.00" fill="#cbd5e1">ThermalData</text>
</g>
<!-- EnvironmentService -->
<g id="node6" class="node">
<title>EnvironmentService</title>
<path fill="#0369a1" stroke="#f1f5f9" stroke-width="4" d="M4007,-745C4007,-745 3658,-745 3658,-745 3652,-745 3646,-739 3646,-733 3646,-733 3646,-667 3646,-667 3646,-661 3652,-655 3658,-655 3658,-655 4007,-655 4007,-655 4013,-655 4019,-661 4019,-667 4019,-667 4019,-733 4019,-733 4019,-739 4013,-745 4007,-745"/>
<text text-anchor="start" x="3688" y="-716" font-family="Helvetica,Arial,sans-serif" font-weight="bold" font-size="30.00" fill="#ffffff">EnvironmentService</text>
<text text-anchor="start" x="3655" y="-690.8" font-family="Helvetica,Arial,sans-serif" font-size="24.00" fill="#ffffff">Centralized service for managing</text>
<text text-anchor="start" x="3668" y="-666.8" font-family="Helvetica,Arial,sans-serif" font-size="24.00" fill="#ffffff">environmental simulation data.</text>
</g>
<!-- EnvironmentService&#45;&gt;AutonomousService -->
<g id="edge6" class="edge">
<title>EnvironmentService&#45;&gt;AutonomousService</title>
<path fill="none" stroke="#64748b" stroke-width="3" stroke-dasharray="5,2" d="M3652.4,-745.04C3641.8,-747.2 3631.28,-749.2 3621,-751 3549.96,-763.43 3472.01,-773.24 3401.27,-780.72"/>
<polygon fill="#64748b" stroke="#64748b" stroke-width="3" points="3400.63,-775.86 3387.22,-782.19 3401.65,-785.61 3400.63,-775.86"/>
<text text-anchor="middle" x="3524.5" y="-782.4" font-family="Helvetica,Arial,sans-serif" font-size="22.00" fill="#cbd5e1">InternalEnvData</text>
</g>
<!-- EnvironmentService&#45;&gt;UdpBridge -->
<g id="edge7" class="edge">
<title>EnvironmentService&#45;&gt;UdpBridge</title>
<path fill="none" stroke="#64748b" stroke-width="3" stroke-dasharray="5,2" d="M3645.74,-679C3319.07,-646.95 2621.9,-600.48 2048,-711 1957.1,-728.51 1859.6,-770.1 1792.42,-802.71"/>
<polygon fill="#64748b" stroke="#64748b" stroke-width="3" points="1790.23,-798.33 1779.82,-808.9 1794.55,-807.13 1790.23,-798.33"/>
<text text-anchor="middle" x="2724.5" y="-657.4" font-family="Helvetica,Arial,sans-serif" font-size="22.00" fill="#cbd5e1">EnvironmentAck, EnvironmentRequest</text>
</g>
<!-- AutonomousService&#45;&gt;EnvironmentService -->
<g id="edge4" class="edge">
<title>AutonomousService&#45;&gt;EnvironmentService</title>
<path fill="none" stroke="#64748b" stroke-width="3" stroke-dasharray="5,2" d="M3258.28,-766.92C3307.34,-749.75 3370.25,-730.27 3428,-720 3493.7,-708.32 3566.3,-702.56 3631.6,-699.93"/>
<polygon fill="#64748b" stroke="#64748b" stroke-width="3" points="3632.04,-704.82 3645.85,-699.4 3631.67,-695.03 3632.04,-704.82"/>
<text text-anchor="middle" x="3524.5" y="-726.4" font-family="Helvetica,Arial,sans-serif" font-size="22.00" fill="#cbd5e1">InternalEnvRequest</text>
</g>
<!-- AutonomousService&#45;&gt;UdpBridge -->
<g id="edge5" class="edge">
<title>AutonomousService&#45;&gt;UdpBridge</title>
<path fill="none" stroke="#64748b" stroke-width="3" stroke-dasharray="5,2" d="M3044.16,-767C3002.72,-757.6 2956.16,-748.66 2913,-744 2530.56,-702.74 2429.07,-720.53 2048,-773 1990.35,-780.94 1927.94,-793.38 1872.52,-805.81"/>
<polygon fill="#64748b" stroke="#64748b" stroke-width="3" points="1871.15,-801.1 1858.58,-808.97 1873.32,-810.66 1871.15,-801.1"/>
<text text-anchor="middle" x="2279.5" y="-803.4" font-family="Helvetica,Arial,sans-serif" font-size="22.00" fill="#cbd5e1">AutoDriveStatus, KinematicsRequest</text>
<text text-anchor="middle" x="2279.5" y="-779.4" font-family="Helvetica,Arial,sans-serif" font-size="22.00" fill="#cbd5e1">MotorSequence, PowerRequest</text>
</g>
<!-- LogService -->
<g id="node8" class="node">
<title>LogService</title>
<path fill="#0369a1" stroke="#f1f5f9" stroke-width="4" d="M988.5,-1022C988.5,-1022 699.5,-1022 699.5,-1022 693.5,-1022 687.5,-1016 687.5,-1010 687.5,-1010 687.5,-968 687.5,-968 687.5,-962 693.5,-956 699.5,-956 699.5,-956 988.5,-956 988.5,-956 994.5,-956 1000.5,-962 1000.5,-968 1000.5,-968 1000.5,-1010 1000.5,-1010 1000.5,-1016 994.5,-1022 988.5,-1022"/>
<text text-anchor="start" x="763.5" y="-993" font-family="Helvetica,Arial,sans-serif" font-weight="bold" font-size="30.00" fill="#ffffff">LogService</text>
<text text-anchor="start" x="696.5" y="-967.8" font-family="Helvetica,Arial,sans-serif" font-size="24.00" fill="#ffffff">Asynchronous logging sink.</text>
</g>
<!-- LogService&#45;&gt;UdpBridge -->
<g id="edge9" class="edge">
<title>LogService&#45;&gt;UdpBridge</title>
<path fill="none" stroke="#64748b" stroke-width="3" stroke-dasharray="5,2" d="M1000.51,-968.14C1138.42,-948.99 1345.14,-918.7 1524,-886 1527.55,-885.35 1531.13,-884.69 1534.74,-884.01"/>
<polygon fill="#64748b" stroke="#64748b" stroke-width="3" points="1535.95,-888.76 1548.77,-881.31 1534.1,-879.14 1535.95,-888.76"/>
<text text-anchor="middle" x="1306" y="-959.4" font-family="Helvetica,Arial,sans-serif" font-size="22.00" fill="#cbd5e1">Log</text>
</g>
<!-- UdpBridge&#45;&gt;MotorService -->
<g id="edge24" class="edge">
<title>UdpBridge&#45;&gt;MotorService</title>
<path fill="none" stroke="#64748b" stroke-width="3" stroke-dasharray="5,2" d="M1668.95,-885.08C1634.59,-917.94 1580.39,-963.82 1524,-988 1338.97,-1067.36 784.29,-1131.05 471.43,-1161.86"/>
<polygon fill="#64748b" stroke="#64748b" stroke-width="3" points="470.63,-1157.01 457.18,-1163.26 471.59,-1166.77 470.63,-1157.01"/>
<text text-anchor="middle" x="844" y="-1150.4" font-family="Helvetica,Arial,sans-serif" font-size="22.00" fill="#cbd5e1">MotorSequence</text>
</g>
<!-- UdpBridge&#45;&gt;KinematicsService -->
<g id="edge23" class="edge">
<title>UdpBridge&#45;&gt;KinematicsService</title>
<path fill="none" stroke="#64748b" stroke-width="3" stroke-dasharray="5,2" d="M1548.91,-815.78C1540.5,-814.7 1532.16,-813.76 1524,-813 1331.05,-795.13 1281.1,-796.82 1088,-813 1084.41,-813.3 1080.79,-813.63 1077.15,-813.97"/>
<polygon fill="#64748b" stroke="#64748b" stroke-width="3" points="1076.45,-809.12 1063.03,-815.42 1077.45,-818.87 1076.45,-809.12"/>
<text text-anchor="middle" x="1306" y="-819.4" font-family="Helvetica,Arial,sans-serif" font-size="22.00" fill="#cbd5e1">KinematicsRequest</text>
</g>
<!-- UdpBridge&#45;&gt;PowerService -->
<g id="edge25" class="edge">
<title>UdpBridge&#45;&gt;PowerService</title>
<path fill="none" stroke="#64748b" stroke-width="3" stroke-dasharray="5,2" d="M1807.38,-885.07C1874.43,-909.36 1965.42,-939.62 2048,-958 2250.38,-1003.05 2306.79,-979.16 2511,-1015 2691.53,-1046.68 2736.39,-1057.98 2913,-1107 2950,-1117.27 2989.59,-1129.57 3026.32,-1141.55"/>
<polygon fill="#64748b" stroke="#64748b" stroke-width="3" points="3024.88,-1146.23 3039.71,-1145.94 3027.94,-1136.92 3024.88,-1146.23"/>
<text text-anchor="middle" x="2279.5" y="-1021.4" font-family="Helvetica,Arial,sans-serif" font-size="22.00" fill="#cbd5e1">PowerRequest</text>
</g>
<!-- UdpBridge&#45;&gt;StateService -->
<g id="edge26" class="edge">
<title>UdpBridge&#45;&gt;StateService</title>
<path fill="none" stroke="#64748b" stroke-width="3" stroke-dasharray="5,2" d="M1756.7,-885.24C1791.52,-914.98 1836.99,-959.14 1865,-1007 1885.1,-1041.36 1862.28,-1064.44 1890,-1093 1933.27,-1137.58 1970.94,-1102.09 2023,-1136 2036.98,-1145.11 2034.1,-1154.77 2048,-1164 2064.1,-1174.69 2081.8,-1184.08 2100,-1192.29"/>
<polygon fill="#64748b" stroke="#64748b" stroke-width="3" points="2098.21,-1196.86 2113.01,-1197.93 2102.11,-1187.87 2098.21,-1196.86"/>
<text text-anchor="middle" x="1956.5" y="-1142.4" font-family="Helvetica,Arial,sans-serif" font-size="22.00" fill="#cbd5e1">StateRequest</text>
</g>
<!-- UdpBridge&#45;&gt;ThermalService -->
<g id="edge27" class="edge">
<title>UdpBridge&#45;&gt;ThermalService</title>
<path fill="none" stroke="#64748b" stroke-width="3" stroke-dasharray="5,2" d="M1720.92,-808.83C1744.7,-743.79 1801.25,-610.89 1890,-532 1947.14,-481.21 1973.12,-479.43 2048,-464 2398.87,-391.7 2823.83,-453.07 3035.77,-493.47"/>
<polygon fill="#64748b" stroke="#64748b" stroke-width="3" points="3035.05,-498.32 3049.73,-496.16 3036.91,-488.7 3035.05,-498.32"/>
<text text-anchor="middle" x="2279.5" y="-470.4" font-family="Helvetica,Arial,sans-serif" font-size="22.00" fill="#cbd5e1">EnvironmentData, ThermalRequest</text>
</g>
<!-- UdpBridge&#45;&gt;EnvironmentService -->
<g id="edge22" class="edge">
<title>UdpBridge&#45;&gt;EnvironmentService</title>
<path fill="none" stroke="#64748b" stroke-width="3" stroke-dasharray="5,2" d="M1749.62,-808.82C1784.98,-777.83 1838.13,-734.58 1890,-705 1955.53,-667.63 1974.46,-659.82 2048,-643 2635.1,-508.75 2802.23,-587.75 3403,-630 3500.06,-636.83 3524.98,-634.27 3621,-650 3625.59,-650.75 3630.22,-651.55 3634.89,-652.38"/>
<polygon fill="#64748b" stroke="#64748b" stroke-width="3" points="3634.32,-657.26 3648.98,-654.99 3636.11,-647.62 3634.32,-657.26"/>
<text text-anchor="middle" x="2724.5" y="-590.4" font-family="Helvetica,Arial,sans-serif" font-size="22.00" fill="#cbd5e1">EnvironmentData</text>
</g>
<!-- UdpBridge&#45;&gt;AutonomousService -->
<g id="edge21" class="edge">
<title>UdpBridge&#45;&gt;AutonomousService</title>
<path fill="none" stroke="#64748b" stroke-width="3" stroke-dasharray="5,2" d="M1865.38,-865.94C2096.34,-890.19 2540.14,-923.34 2913,-872 2962.83,-865.14 3016.62,-851.11 3062,-837.25"/>
<polygon fill="#64748b" stroke="#64748b" stroke-width="3" points="3063.58,-841.89 3075.5,-833.06 3060.67,-832.53 3063.58,-841.89"/>
<text text-anchor="middle" x="2279.5" y="-929.4" font-family="Helvetica,Arial,sans-serif" font-size="22.00" fill="#cbd5e1">AutoDriveCommand, KinematicsData</text>
<text text-anchor="middle" x="2279.5" y="-905.4" font-family="Helvetica,Arial,sans-serif" font-size="22.00" fill="#cbd5e1">PowerData</text>
</g>
<!-- TX -->
<g id="node10" class="node">
<title>TX</title>
<path fill="#b45309" stroke="#f1f5f9" stroke-width="4" d="M970.5,-254C970.5,-254 717.5,-254 717.5,-254 711.5,-254 705.5,-248 705.5,-242 705.5,-242 705.5,-200 705.5,-200 705.5,-194 711.5,-188 717.5,-188 717.5,-188 970.5,-188 970.5,-188 976.5,-188 982.5,-194 982.5,-200 982.5,-200 982.5,-242 982.5,-242 982.5,-248 976.5,-254 970.5,-254"/>
<text text-anchor="start" x="771.5" y="-225" font-family="Helvetica,Arial,sans-serif" font-weight="bold" font-size="30.00" fill="#ffffff">TX Socket</text>
<text text-anchor="start" x="714.5" y="-199.8" font-family="Helvetica,Arial,sans-serif" font-size="24.00" fill="#ffffff">Port 9000 (SIL Inbound)</text>
</g>
<!-- TX&#45;&gt;UdpBridge -->
<g id="edge3" class="edge">
<title>TX&#45;&gt;UdpBridge</title>
<path fill="none" stroke="#f1f5f9" stroke-width="5" d="M944.04,-254.05C984.41,-271.12 1029.39,-295.17 1063,-327 1079.61,-342.73 1071.92,-355.73 1088,-372 1244.86,-530.72 1354.17,-476.24 1524,-621 1585.15,-673.12 1640.74,-748.01 1673.97,-797.08"/>
<polygon fill="#f1f5f9" stroke="#f1f5f9" stroke-width="5" points="1669.05,-800.74 1681.93,-808.96 1679.23,-793.92 1669.05,-800.74"/>
<text text-anchor="middle" x="1306" y="-769" font-family="Helvetica,Arial,sans-serif" font-size="25.00" fill="#cbd5e1">Inbound Traffic:</text>
<text text-anchor="middle" x="1306" y="-741" font-family="Helvetica,Arial,sans-serif" font-size="25.00" fill="#cbd5e1">AutoDriveCommand, EnvironmentData</text>
<text text-anchor="middle" x="1306" y="-713" font-family="Helvetica,Arial,sans-serif" font-size="25.00" fill="#cbd5e1">KinematicsData, KinematicsRequest</text>
<text text-anchor="middle" x="1306" y="-685" font-family="Helvetica,Arial,sans-serif" font-size="25.00" fill="#cbd5e1">MotorSequence, PowerData</text>
<text text-anchor="middle" x="1306" y="-657" font-family="Helvetica,Arial,sans-serif" font-size="25.00" fill="#cbd5e1">PowerRequest, StateRequest</text>
<text text-anchor="middle" x="1306" y="-629" font-family="Helvetica,Arial,sans-serif" font-size="25.00" fill="#cbd5e1">ThermalRequest</text>
</g>
<!-- RX -->
<g id="node11" class="node">
<title>RX</title>
<path fill="#b45309" stroke="#f1f5f9" stroke-width="4" d="M979.5,-98C979.5,-98 708.5,-98 708.5,-98 702.5,-98 696.5,-92 696.5,-86 696.5,-86 696.5,-44 696.5,-44 696.5,-38 702.5,-32 708.5,-32 708.5,-32 979.5,-32 979.5,-32 985.5,-32 991.5,-38 991.5,-44 991.5,-44 991.5,-86 991.5,-86 991.5,-92 985.5,-98 979.5,-98"/>
<text text-anchor="start" x="770" y="-69" font-family="Helvetica,Arial,sans-serif" font-weight="bold" font-size="30.00" fill="#ffffff">RX Socket</text>
<text text-anchor="start" x="705.5" y="-43.8" font-family="Helvetica,Arial,sans-serif" font-size="24.00" fill="#ffffff">Port 9001 (SIL Outbound)</text>
</g>
<!-- TX&#45;&gt;RX -->
<!-- RX&#45;&gt;UdpBridge -->
<g id="edge28" class="edge">
<title>RX&#45;&gt;UdpBridge</title>
<path fill="none" stroke="#f1f5f9" stroke-width="5" d="M1005.71,-42.65C1157.93,-30.99 1383.53,-39.76 1524,-165 1622.79,-253.07 1684.44,-678.05 1701.29,-808.7"/>
<polygon fill="#f1f5f9" stroke="#f1f5f9" stroke-width="5" points="1005.13,-36.55 991.68,-43.8 1006.13,-48.76 1005.13,-36.55"/>
<text text-anchor="middle" x="1306" y="-341" font-family="Helvetica,Arial,sans-serif" font-size="25.00" fill="#cbd5e1">Outbound Traffic:</text>
<text text-anchor="middle" x="1306" y="-313" font-family="Helvetica,Arial,sans-serif" font-size="25.00" fill="#cbd5e1">AutoDriveStatus, EnvironmentAck</text>
<text text-anchor="middle" x="1306" y="-285" font-family="Helvetica,Arial,sans-serif" font-size="25.00" fill="#cbd5e1">EnvironmentRequest, KinematicsData</text>
<text text-anchor="middle" x="1306" y="-257" font-family="Helvetica,Arial,sans-serif" font-size="25.00" fill="#cbd5e1">KinematicsRequest, Log</text>
<text text-anchor="middle" x="1306" y="-229" font-family="Helvetica,Arial,sans-serif" font-size="25.00" fill="#cbd5e1">MotorSequence, PowerData</text>
<text text-anchor="middle" x="1306" y="-201" font-family="Helvetica,Arial,sans-serif" font-size="25.00" fill="#cbd5e1">PowerRequest, StateData</text>
<text text-anchor="middle" x="1306" y="-173" font-family="Helvetica,Arial,sans-serif" font-size="25.00" fill="#cbd5e1">ThermalData</text>
</g>
<!-- TestCase -->
<g id="node12" class="node">
<title>TestCase</title>
<path fill="#047857" stroke="#f1f5f9" stroke-width="4" d="M406.5,-177.5C406.5,-177.5 92.5,-177.5 92.5,-177.5 86.5,-177.5 80.5,-171.5 80.5,-165.5 80.5,-165.5 80.5,-140.5 80.5,-140.5 80.5,-134.5 86.5,-128.5 92.5,-128.5 92.5,-128.5 406.5,-128.5 406.5,-128.5 412.5,-128.5 418.5,-134.5 418.5,-140.5 418.5,-140.5 418.5,-165.5 418.5,-165.5 418.5,-171.5 412.5,-177.5 406.5,-177.5"/>
<text text-anchor="start" x="89.5" y="-145.3" font-family="Helvetica,Arial,sans-serif" font-weight="bold" font-size="34.00" fill="#ffffff">Test Case / Fixtures</text>
</g>
<!-- TestCase&#45;&gt;TX -->
<g id="edge2" class="edge">
<title>TestCase&#45;&gt;TX</title>
<path fill="none" stroke="#f1f5f9" stroke-width="5" d="M418.7,-172.3C504.5,-182.15 608.03,-194.03 691.35,-203.6"/>
<polygon fill="#f1f5f9" stroke="#f1f5f9" stroke-width="5" points="690.73,-209.69 705.33,-205.2 692.12,-197.52 690.73,-209.69"/>
<text text-anchor="middle" x="541" y="-200.4" font-family="Helvetica,Arial,sans-serif" font-size="22.00" fill="#cbd5e1">send_msg</text>
</g>
<!-- TestCase&#45;&gt;RX -->
<g id="edge29" class="edge">
<title>TestCase&#45;&gt;RX</title>
<path fill="none" stroke="#f1f5f9" stroke-width="5" d="M429.62,-126.4C514.81,-113.74 615.39,-98.81 696.01,-86.83"/>
<polygon fill="#f1f5f9" stroke="#f1f5f9" stroke-width="5" points="428.49,-120.37 415.54,-128.49 430.29,-132.49 428.49,-120.37"/>
<text text-anchor="middle" x="541" y="-123.4" font-family="Helvetica,Arial,sans-serif" font-size="22.00" fill="#cbd5e1">recv_msg</text>
</g>
</g>
</svg>
